<?xml version="1.0" encoding="utf-8"?>
<!-- Generator: Adobe Illustrator 27.5.0, SVG Export Plug-In . SVG Version: 6.00 Build 0)  -->
<svg version="1.1" xmlns="http://www.w3.org/2000/svg" xmlns:xlink="http://www.w3.org/1999/xlink" x="0px" y="0px"
	 viewBox="0 0 500 500" style="enable-background:new 0 0 500 500;" xml:space="preserve">
<g id="BACKGROUND">
</g>
<g id="OBJECTS">
	<g>
		<g>
			<path style="fill:#668EE6;" d="M350.149,113.698c5.726,4.85,14.97,2.367,20.083-2.485c0.287,1.512,0.977,2.875,2.606,3.83
				c2.459,1.442,5.651,1.278,8.052-0.156c0.712-0.425,1.356-0.946,1.935-1.536c0.206,0.704,0.525,1.366,1.028,1.932
				c1.144,1.289,2.956,1.818,4.75,1.678c2.717-0.213,4.747-1.419,6.29-3.16c1.797,1.693,4.728,2.416,7.404,1.694
				c3.672-0.991,6.371-3.889,8.167-6.919c0.069,0.561,0.147,1.119,0.241,1.673c0.702,4.144,4.6,7.988,9.537,6.122
				c2.221-0.839,3.912-2.523,5.44-4.167c-0.031,0.873-0.058,1.745-0.091,2.618c-0.08,2.095-0.272,3.902,1.785,5.224
				c0.651,0.419,1.674,0.356,2.333,0c2.016-1.09,1.969-2.966,2.039-4.882c0.025-0.687,0.045-1.374,0.069-2.061
				c0.266-0.725,0.503-1.425,0.775-1.93c1.139-2.114,2.589-4.015,4.223-5.841c1.545-1.726,3.298-3.192,4.996-4.772
				c0.352-0.047,0.51-0.137,0.48-0.269c0.017,0.024,0.034,0.049,0.052,0.073c0.344,0.34,0.292,1.111,0.294,1.548
				c0.005,1.242-0.425,2.476-0.701,3.68c-1.004,4.393-1.146,10.551,2.106,14.274c1.43,1.636,3.596,2.604,5.924,2.065
				c1.732-0.401,3.794-2.054,2.995-3.844c-0.262-0.587-0.779-0.878-1.488-0.762c-1.791,0.292-3.053,0.024-3.727-1.669
				c-0.937-2.353-0.94-5.066-0.687-7.523c0.254-2.466,1.071-4.915,0.632-7.402c-0.396-2.241-1.894-4.618-4.631-4.871
				c-2.513-0.232-4.484,1.355-6.054,2.922c-1.717,1.713-3.392,3.526-4.735,5.497c-0.063,0.093-0.125,0.189-0.188,0.283
				c0.062-2.288,0.112-4.577,0.118-6.864c0.01-3.773-0.045-7.534-0.218-11.304c-0.164-3.571,0.273-7.925-1.793-11.105
				c-0.401-0.618-1.441-0.629-1.839,0c-1.971,3.114-1.563,7.284-1.757,10.762c-0.216,3.882-0.369,7.761-0.497,11.647
				c-0.08,2.434-0.133,4.869-0.192,7.304c-0.836,1.193-1.728,2.353-2.71,3.453c-1.186,1.328-2.525,2.992-4.182,3.868
				c-4.28,2.263-4.075-5.736-4.142-7.627c-0.144-4.049-0.062-8.1,0.24-12.138c0.053-0.309,0.104-0.617,0.155-0.926
				c2.347-0.06,4.841-0.29,6.927-1.036c1.981-0.709,1.989-3.873-0.552-3.682c-1.931,0.146-3.824,0.499-5.741,0.745
				c0.412-2.747,0.759-5.5,0.971-8.267c0.176-2.298-4.06-2.859-4.504-0.55c-0.579,3.011-1.047,6.038-1.4,9.076
				c-1.845-0.016-3.694-0.032-5.463,0.473c-0.869,0.248-0.915,1.187-0.237,1.638c1.547,1.03,3.429,1.402,5.335,1.54
				c-0.06,0.712-0.112,1.424-0.157,2.137c-0.441,2.324-0.952,4.628-1.565,6.885c-0.618,2.276-1.448,4.554-2.775,6.577
				c-0.256-0.05-0.542-0.013-0.835,0.159c-1.572,0.92-4.937,4.464-7.062,3.664c-0.267-0.262-0.436-0.606-0.436-1.045
				c0-0.287-0.056-0.541-0.151-0.766c1.364-3.393,1.978-7.215,2.478-9.984c0.795-4.407,1.599-8.993,1.168-13.469
				c-0.215-2.238-1.468-8.792-5.688-6.365c-1.478,0.85-1.874,2.788-2.309,4.182c-0.645,2.069-1.226,4.176-1.656,6.29
				c-0.892,4.392-0.947,8.974-0.479,13.41c0.211,2.003,0.396,4.518,1.193,6.716c-0.55,0.903-1.242,1.718-2.147,2.346
				c-0.632,0.439-2.23,1.182-2.967,0.531c-0.518-0.458-0.398-1.899-0.463-2.507c-0.095-0.888-0.228-1.771-0.34-2.657
				c-0.051-0.398-0.094-0.797-0.137-1.196c0.485-2.435,0.397-4.936-0.277-6.988c-0.09-0.275-0.202-0.553-0.327-0.829
				c-0.06-0.766-0.126-1.532-0.207-2.297c-0.091-0.851-1.395-1.25-1.876-0.576c-1.093-0.977-2.469-1.647-4.061-1.664
				c-0.532-0.006-1.122,0.097-1.694,0.29c-0.268-0.208-0.649-0.316-1.072-0.254c-2.675,0.389-4.352,3.256-5.24,5.303
				c-0.906,2.09-1.279,4.348-1.414,6.6c-0.002,0.001-0.004,0.001-0.006,0.002c-4.696,1.983-9.015,7.606-14.954,5.334
				c-2.458-0.94-3.141-2.917-2.96-5.11c3.368-0.635,7.504-1.247,9.982-3.434c2.736-2.415,2.446-6.408-0.59-8.483
				c-2.776-1.896-6.197-1.488-8.69,0.584c-2.258,1.877-3.863,4.825-4.773,7.589c-1.476,0.271-2.957,0.513-4.443,0.73
				c-0.013-3.241-0.015-6.483,0.022-9.722c0.038-3.299,0.875-7.803-1.343-10.647c-0.279-0.358-0.877-0.511-1.248-0.145
				c-2.564,2.536-2.309,6.877-2.499,10.106c-0.217,3.694-0.337,7.383-0.333,11.08c-1.457,0.15-2.917,0.277-4.381,0.378
				c-2.375,0.163-4.75,0.236-7.127,0.269c0.02-1.301,0.044-2.601,0.077-3.902c0.103-4.118,0.212-8.236,0.337-12.354
				c0.062-2.055,0.051-4.116-0.011-6.171c-0.058-1.926-0.105-3.527-1.605-4.983c-0.328-0.318-0.836-0.248-1.174,0
				c-1.682,1.232-1.941,2.847-2.252,4.71c-0.337,2.021-0.621,4.063-0.788,6.102c-0.345,4.231-0.572,8.455-0.672,12.697
				c-0.031,1.318-0.054,2.637-0.072,3.956c-2.701,0.05-5.353,0.18-8.074,0.479c-1.141,0.126-1.411,1.447-0.274,1.824
				c2.098,0.696,3.978,1.219,6.198,1.521c0.701,0.095,1.406,0.166,2.114,0.226c-0.006,1.452-0.006,2.903,0.004,4.355
				c0.014,2.06,0.044,4.12,0.09,6.18c0.048,2.139-0.02,4.414,0.627,6.485c0.696,2.228,4.647,2.426,5.222,0
				c0.93-3.92,0.237-8.332,0.212-12.322c-0.01-1.494-0.008-2.988-0.001-4.482c3.871-0.001,7.748-0.174,11.596-0.543
				c0.053,2.725,0.142,5.449,0.273,8.172c0.094,1.948,0.198,3.889,0.442,5.827c0.239,1.902,0.277,3.947,1.348,5.641
				c0.854,1.35,2.853,0.885,3.399-0.401c0.734-1.732,0.441-3.763,0.425-5.583c-0.017-1.831-0.141-3.656-0.226-5.484
				c-0.136-2.933-0.226-5.868-0.271-8.803c1.198-0.165,2.392-0.348,3.583-0.547C347.296,109.605,348.087,111.951,350.149,113.698z
				 M396.463,85.009c0.165-0.635,0.341-1.269,0.537-1.897c0.059,0.545,0.252,1.164,0.279,1.653c0.047,0.854,0.061,1.709,0.037,2.564
				c-0.09,3.184-0.685,6.354-1.283,9.487c-0.257,1.349-0.526,2.703-0.816,4.054C394.783,95.593,395.146,90.087,396.463,85.009z
				 M379.934,99.014c1.131,1.076,1.044,3.037,1.001,4.415c-0.066,2.109-0.911,6.84-3.788,7.483c-1.12,0.25-1.523-0.134-1.633-1.018
				c-0.209-1.673-0.136-3.443-0.097-5.124c0.037-1.61,0.198-3.246,0.617-4.815c0.129-0.483,0.294-0.922,0.48-1.341
				C377.751,98.388,378.913,98.043,379.934,99.014z M357.696,96.857c1.242,0.054,1.832,1.1,1.48,2.114
				c-0.586,1.687-3.857,2.162-5.864,2.524c0.437-1.116,1.012-2.179,1.776-3.119C355.687,97.637,356.592,96.809,357.696,96.857z"/>
			<path style="fill:#8CB1F4;" d="M325.554,57.753c5.358-2.905,9.608-7.057,12.762-11.841c-0.226,3.474-0.445,6.948-0.646,10.422
				c-0.336,5.81-0.579,11.988,2.397,17.336c1.247,2.24,3.525,4.094,6.477,3.707c2.61-0.342,4.544-2.316,5.735-4.315
				c0.501-0.841,0.935-1.728,1.331-2.634c0.449,2.218,1.073,4.387,1.93,6.455c1.034,2.496,3.416,5.297,6.722,4.928
				c3.537-0.395,4.578-4.073,5.7-6.591c2.848-6.391,4.869-13.083,6.036-19.89c0.638-3.723,1.014-7.448,1.126-11.178
				c5.978,0.781,12.169-3.107,17.743-4.61c2.236-0.603,1.907-3.871-0.566-3.776c-2.914,0.111-5.455,0.88-8.133,1.863
				c-2.429,0.891-4.954,1.887-7.617,1.934c-0.463,0.008-0.946-0.015-1.422-0.078c-0.07-2.402-0.25-4.807-0.541-7.215
				c-0.15-1.239-1.272-2.269-2.754-1.893c-6.135,1.555-5.862,9.082-1.355,12.068c-0.281,8.306-1.749,16.579-4.479,24.517
				c-0.964,2.804-2.069,5.579-3.353,8.277c-0.226,0.475-0.882,1.238-0.899,1.743c0-0.001-0.045,0.082-0.094,0.166
				c-0.005-0.008-0.01-0.014-0.016-0.023c-0.701-1.098-1.309-1.901-1.702-3.177c-1.582-5.142-2.283-10.434-2.422-15.753
				c0.196-0.835,0.381-1.672,0.548-2.512c1.392-6.994,1.774-14.04,1.122-21.121c-0.227-2.47-3.933-2.429-4.223,0
				c-0.856,7.167-2.212,14.24-2.369,21.467c-0.02,0.913-0.029,1.837-0.025,2.768c-0.526,1.995-1.125,3.975-1.814,5.929
				c-0.876,2.484-1.68,6.078-3.94,7.89c-2.418,1.939-3.748-3.66-4.07-5.049c-0.723-3.12-0.612-6.366-0.589-9.537
				c0.053-7.234,0.368-14.456,0.704-21.682c0.094-2.026-3.23-2.346-3.842-0.469c-2.611,7.996-8.085,14.717-14.709,20.418
				C323.462,57.021,324.55,58.297,325.554,57.753z M361.723,77.244C361.891,77.258,361.923,77.508,361.723,77.244L361.723,77.244z"
				/>
			<path style="fill:#8CB1F4;" d="M398.632,56.12c0.939,0.31,1.941,0.539,2.971,0.687c-0.468,0.938-1.107,1.754-1.749,2.577
				c-1.955,0.113-3.806,0.357-5.652,0.69c-0.11-0.236-0.223-0.47-0.344-0.698c-1.422-2.681-4.224-4.999-7.677-4.971
				c-2.99,0.024-6.078,1.88-6.569,4.633c-0.616,0.856-1.091,1.813-1.373,2.49c-1.449,3.473-2.235,7.292-2.237,11.005
				c-0.002,3.138,0.946,6.614,4.126,8.344c3.394,1.847,7.728,0.91,10.521-1.406c4.496-3.728,5.894-10.199,4.747-15.75
				c1.016-0.326,2.004-0.694,2.983-1.096c0.076,0.036,0.163,0.058,0.266,0.055c3.118-0.094,5.117-2.873,6.122-5.694
				c1.735-0.047,3.457-0.341,5.032-0.909c-0.233,2.749-0.502,5.495-0.676,8.251c-0.116,1.84-0.256,3.681-0.349,5.522
				c-0.072,1.435,0.109,3.022,1.464,3.969c0.772,0.539,1.755,0.745,2.584,0.469c0.576,0.134,1.185,0.155,1.798,0.021
				c2.387-0.52,3.399-2.997,4.376-4.765c0.429-0.776,0.836-1.561,1.234-2.349c2.707,3.235,7.728,4.395,11.463,1.578
				c0.505-0.381,0.961-0.797,1.378-1.241c0.479,0.768,1.117,1.486,1.957,2.136c2.012,1.557,4.782,2.013,7.214,1.02
				c1.153-0.471,2.08-1.211,2.835-2.087c0.628,1.815,1.562,3.58,3.438,4.563c2.452,1.284,5.642,0.804,7.752-0.813
				c1.766-1.354,3.181-4.013,3.072-6.121c-0.05-0.977-1.294-1.82-2.309-1.196c-1.517,0.933-2.458,2.739-4.333,3.241
				c-0.801,0.215-0.958,0.223-1.305-0.341c-0.439-0.713-0.588-1.727-0.818-2.509c-1.265-4.297-1.745-8.688-1.898-13.122
				c-0.154-4.462-0.096-8.933-0.103-13.397c-0.004-2.391-0.043-4.78-0.141-7.169c-0.047-1.14-0.156-2.276-0.254-3.414
				c-0.051-0.599-0.077-1.208-0.182-1.802c-0.138-0.781-0.548-1.503-0.621-2.294c-0.116-1.257-1.956-1.212-2.13,0
				c-0.125,0.869-0.638,1.642-0.793,2.513c-0.134,0.75-0.21,1.513-0.313,2.267c-0.187,1.365-0.335,2.725-0.448,4.096
				c-0.243,2.957-0.402,5.914-0.559,8.876c-0.119,2.24-0.232,4.483-0.293,6.725c-1.303-0.333-2.696-0.303-4.038,0.223
				c-1.496,0.587-2.509,1.581-3.28,2.747c-0.751-0.088-1.531,0.224-1.717,1.059c-0.6,2.699-1.697,5.889-1.925,8.939
				c-0.059,0.134-0.112,0.269-0.173,0.402c-0.735,1.599-2.161,4.089-4.43,4.07c-2.547-0.021-3.743-2.846-4.165-4.669
				c-0.036-0.157-0.065-0.316-0.098-0.474c3.87-9.721,5.876-20.078,5.907-30.404c0.008-2.779,0.047-5.698-0.482-8.443
				c-0.407-2.11-1.606-4.127-4.051-4.683c-0.913-0.208-1.791,0.147-2.295,0.843c-6.478,8.937-5.947,20.981-5.402,31.2
				c0.157,2.934,0.37,5.87,0.695,8.793c0.157,1.405,0.328,2.82,0.661,4.197c-0.038,0.087-0.073,0.174-0.111,0.26
				c-1.034,2.348-2.135,4.679-3.37,6.948c-0.248,0.456-0.535,1.039-0.884,1.21c-0.032-0.085-0.061-0.172-0.085-0.264
				c-0.212-0.829,0.063-2.017,0.1-2.878c0.044-1.035,0.088-2.071,0.133-3.106c0.172-4.028,0.146-8.053,0.314-12.079
				c0.067-1.594-2.277-2.427-3.48-1.301c-1.397,1.308-3.217,1.87-5.128,2.025c0.16-3.29-2.517-10.592-7.432-7.32
				C394.381,48.477,393.706,54.495,398.632,56.12z M389.097,61.001c0.028,0.051,0.053,0.104,0.081,0.156
				c-1.287,0.292-2.704,0.523-3.925,0.035c-0.866-0.345-1.567-1.053-0.975-1.83C385.775,57.397,388.388,59.72,389.097,61.001z
				 M390.15,68.804c-0.369,2.439-1.239,5.469-3.419,7.132c-2.098,1.6-4.394,1.009-5.109-1.339c-0.755-2.48-0.336-5.376,0.043-7.877
				c0.134-0.885,0.316-1.759,0.524-2.629c1.21,0.771,2.696,1.243,4.159,1.323c1.314,0.072,2.63-0.103,3.928-0.367
				C390.394,66.314,390.332,67.599,390.15,68.804z M439.981,52.135c0.975-0.506,1.985-0.32,2.815,0.193
				c0.014,2.117,0.102,4.233,0.312,6.347c0.129,1.305,0.294,2.614,0.509,3.917c-0.225,0.686-0.495,1.359-0.84,2.002
				c-0.548,1.02-1.338,2.268-2.62,2.632c-1.576,0.447-2.947-0.763-3.559-1.96c-0.477-0.933-0.601-1.974-0.578-3.02
				c0.686-2.22,0.954-4.6,1.031-6.844C437.778,54.186,438.666,52.817,439.981,52.135z M421.36,35.248
				c0.094-4.579,0.72-9.072,2.989-13.122c0.442,1.225,0.328,3.087,0.369,3.828c0.138,2.475,0.159,4.955,0.065,7.431
				c-0.194,5.103-0.886,10.176-2.073,15.168c-0.225,0.946-0.472,1.888-0.73,2.827C421.545,46.026,421.25,40.605,421.36,35.248z
				 M400.307,48.356c1.761,0.012,2.137,2.749,2.068,4.909c-1.238-0.111-3.322-0.221-3.803-1.378
				C398.088,50.724,398.874,48.346,400.307,48.356z"/>
			<path style="fill:#8CB1F4;" d="M396.229,139.954c-2.466-6.896-8.766-14.296-16.504-16.845
				c-5.194-1.711-10.748-0.435-15.716,1.273c-2.189,0.752-4.37,1.552-6.439,2.547c-0.835,0.402-1.559,0.883-2.219,1.421
				c-0.433,0.041-0.834,0.223-1.126,0.527c-0.252,0.263-0.454,0.586-0.538,0.928c-0.014,0.056-0.023,0.115-0.032,0.174
				c-0.346,0.382-0.683,0.778-1.019,1.186c-0.805,0.98,0.791,2.408,1.877,1.694c2.6-1.708,6.146-2.539,9.139-3.559
				c0.094-0.032,0.188-0.064,0.282-0.096c-0.013,0.257-0.024,0.512-0.037,0.763c-0.094,1.842-0.195,3.684-0.283,5.526
				c-0.174,3.677-0.178,7.372-0.198,11.052c-0.031,5.564-0.226,11.18-0.155,16.766c-1.219-0.577-2.237-1.441-3.164-2.379
				c-2.62-2.65-3.598-6.131-5.923-8.89c-0.828-0.982-2.799-1.069-3.168,0.374c-0.963,3.767,1.463,7.796,3.934,10.7
				c2.277,2.676,5.011,4.703,8.487,5.582c0.197,2.934,4.399,3.241,5.527,0.627c0.016-0.037,0.025-0.069,0.039-0.104
				c7.743-0.164,16.071-3.396,21.333-8.201C396.419,155.454,398.917,147.472,396.229,139.954z M370.463,163.956
				c-0.415,0.044-0.838,0.082-1.263,0.113c0.097-5.836-0.114-11.709-0.15-17.526c-0.022-3.68-0.028-7.375-0.205-11.052
				c-0.088-1.842-0.191-3.684-0.286-5.526c-0.037-0.707-0.058-1.449-0.162-2.174c2.193-0.589,4.447-0.971,6.703-0.794
				c6.616,0.518,12.102,6.733,14.802,11.736c2.997,5.553,2.537,11.768-1.546,16.761C384.211,160.564,377.24,163.241,370.463,163.956
				z"/>
			<path style="fill:#8CB1F4;" d="M483.738,153.539c-11.329,2.808-22.86,5.089-34.541,6.239c0.251-1.709,0.385-3.443,0.406-5.195
				c0.046-3.753-0.411-7.484-0.814-11.214c-0.005-0.05-0.011-0.1-0.017-0.15c0.808-4.056,0.494-8.353-0.938-12.242
				c-0.74-2.011-3.933-1.631-4.062,0.496c-0.191,3.141-0.363,6.163-0.186,9.316c0.076,1.353,0.17,2.706,0.26,4.059
				c-0.89,2.383-2.351,5.016-4.612,5.813c-3.254,1.147-4.167-6.249-4.428-11.757c0.122-1.809,0.082-3.629-0.113-5.437
				c-0.266-2.462-4.365-2.573-4.345,0c0.014,1.796,0.007,3.641,0.045,5.497c-0.143,1.428-0.405,2.847-0.804,4.248
				c-0.455,1.595-1.048,3.171-1.816,4.666c-0.49,0.953-1.178,2.488-2.463,2.739c-2.507,0.489-4.108-3.503-4.662-5.084
				c-0.125-0.358-0.244-0.718-0.36-1.079c0.055-2.831-0.525-5.668-1.907-8.125c-0.062-0.389-0.121-0.778-0.176-1.167
				c-0.079-0.56-0.732-0.951-1.285-0.932c-1.619-1.875-3.957-3.44-6.649-3.235c-5.696-1.709-8.267,6.553-8.846,10.247
				c-0.764,4.871-0.743,11.764,3.824,15.266c2.267,1.739,5.324,2.026,8.017,0.949c2.88-1.151,4.618-3.499,5.645-6.105
				c1.465,1.901,3.574,3.378,6.211,3.349c3.269-0.036,5.301-2.303,6.651-4.818c1.206,3.231,4.148,6.084,8.326,5.082
				c1.627-0.39,2.978-1.234,4.096-2.33c0.027,2.549-0.076,5.098-0.493,7.598c-1.93,0.128-3.864,0.224-5.802,0.283
				c-13.129,0.4-27.829-1.092-39.541,5.44c-2.682,1.496-5.159,3.417-5.983,6.276c-0.847,2.938,0.095,6.079,1.747,8.646
				c3.054,4.747,8.587,7.912,14.486,8.977c13.486,2.437,26.552-5.31,34.13-14.868c2.499-3.151,4.231-6.585,5.334-10.193
				c4.716-0.379,9.415-0.941,14.068-1.696c3.82-0.62,7.615-1.376,11.375-2.248c3.93-0.912,7.605-2.202,11.373-3.542
				C487.421,156.408,486.493,152.856,483.738,153.539z M410.917,153.225c-4.327,1.623-4.958-6.066-5.009-8.164
				c-0.053-2.219-0.006-5.657,1.1-8.327c0.342,0.08,0.728-0.015,0.908-0.337c1.012-1.816,3.338-1.128,4.486,0.097
				c1.428,1.524,2.141,3.661,2.404,5.614C415.237,145.299,414.86,151.747,410.917,153.225z M441.532,167.122
				c-4.688,9.39-15.89,18.199-27.749,18.321c-5.105,0.053-10.4-1.715-13.908-5.128c-1.77-1.722-3.437-4.262-3.074-6.704
				c0.384-2.587,3.773-4.092,6.075-5.13c10.966-4.941,24.326-2.823,36.117-3.182c1.133-0.035,2.266-0.083,3.398-0.138
				C442.138,165.821,441.854,166.476,441.532,167.122z"/>
		</g>
		<g>
			<path style="fill:#D4FF1D;" d="M45.03,338.168c0.185-2.596,0.087-5.13-0.383-7.412c-0.71-3.45-6.065-5.132-8.369-2.21
				c-1.623,2.059-3.008,4.602-4.11,7.346c-7.474,1.651-13.633,8.185-15.475,15.886c-0.005,0.019-0.007,0.038-0.011,0.057
				c-0.74,2.426-1.157,4.972-1.236,7.505c-0.195,6.304,2.502,12.763,7.186,16.788c-0.237,2.296-0.009,4.553,1.053,6.515
				c3.014,5.567,10.536,4.717,13.74,0c0.567-0.836,0.985-1.9,1.302-3.069c2.23-0.512,4.396-1.445,6.352-2.821
				c4.312-3.034,6.796-7.457,7.732-12.285c0.122-0.359,0.248-0.716,0.354-1.078C55.82,354.295,53.095,343.241,45.03,338.168z"/>
			<g>
				<path style="fill:#F74646;" d="M475.136,352.032c-3.654-3.455-9.213-4.307-13.655-1.853c-2.409,1.331-4.204,3.457-5.537,5.835
					c-2.932,5.232-3.675,12.447-0.405,17.684c0.99,1.585,2.226,2.803,3.599,3.694c1.232,1.005,2.696,1.778,4.407,2.219
					C478.502,383.469,484.437,360.827,475.136,352.032z M472.313,363.305c-0.008-0.034-0.012-0.055-0.019-0.085
					c0.009-0.069,0.025-0.155,0.045-0.253c0.033,0.186,0.026,0.345,0.003,0.441C472.334,363.376,472.32,363.335,472.313,363.305z
					 M472.472,363.283C472.521,363.416,472.537,363.466,472.472,363.283L472.472,363.283z"/>
				<path style="fill:#F74646;" d="M440.219,374.233c-6.319-4.882-15.187-4.029-20.82,1.5c-3.772,3.703-5.176,8.926-4.302,13.808
					c-0.135,0.991-0.189,2.015-0.132,3.075c0.417,7.703,6.493,13.94,14.354,13.93c7.283-0.01,12.988-5.811,15.642-12.101
					C448.059,387.107,446.639,379.193,440.219,374.233z"/>
				<path style="fill:#7DA055;" d="M456.618,342.091c-3.525-3.386-8.979-8.615-14.386-10.017c2.825-3.449,6.061-6.543,8.233-10.497
					c1.899-3.456,3.66-9.784-0.315-12.59c-7.128-5.031-11.405,10.44-12.746,19.227c-0.539,0.625-1.044,1.272-1.507,1.948
					c-1.125-1.937-2.573-3.74-3.964-5.375c-2.737-3.218-8.37-9.713-13.182-6.867c-4.665,2.758-1.83,9.594,0.981,12.599
					c1.988,2.125,4.613,3.49,7.251,4.63c2.824,1.22,5.719,2.701,8.779,3.079c0.108,0.095,0.229,0.182,0.341,0.274
					c-0.044,2.201,0.22,4.494,0.221,6.508c0.002,3.946-0.19,7.901-0.564,11.829c-0.407,4.27-0.731,8.592-1.481,12.82
					c-0.665,3.751-2.093,7.382-2.25,11.193c-0.075,1.811,2.322,2.215,3.218,0.872c3.927-5.882,5.459-15.227,6.417-22.166
					c0.58-4.203,0.794-8.485,0.766-12.724c-0.025-3.766-0.802-7.405-1.045-11.104c0.946,0.705,1.949,1.354,2.921,2.049
					c3.215,2.297,6.291,4.741,9.092,7.533c2.779,2.77,5.311,5.808,7.517,9.054c1.637,2.408,2.767,5.001,5.303,6.564
					c0.847,0.522,1.82-0.168,1.875-1.076C468.473,353.48,460.882,346.188,456.618,342.091z"/>
			</g>
			<g>
				<path style="fill:#F74646;" d="M142.022,178.646c-0.615-0.811-1.277-1.522-1.973-2.152c-2.306-3.73-6.012-6.484-10.565-7.452
					c-7.371-1.568-14.091,2.461-17.548,8.872c-1.236,2.294-2.191,4.768-2.908,7.339c-4.099-5.233-11.408-8.283-18.201-6.94
					c-13.524,2.673-17.325,17.88-11.729,29.032c2.538,5.058,6.665,8.18,10.67,11.935c3.373,3.163,4.669,8.145,7.885,11.716
					c4.163,4.622,10.617,6.999,16.767,6.017c3.276-0.523,6.121-1.844,8.521-4.103c2.142,0.325,4.331,0.212,6.49-0.397
					c2.664-0.752,4.892-2.26,6.643-4.209c1.804-0.911,3.339-2.316,4.286-4.238c1.991-4.043,2.087-7.766,2.584-11.783
					c0.345-2.794,1.484-6.272,2.074-9.321C146.57,194.942,147.261,185.552,142.022,178.646z M95.743,195.548
					c-0.015,0.006-0.031,0.012-0.046,0.018C95.703,195.554,95.718,195.548,95.743,195.548z"/>
				<path style="fill:#7DA055;" d="M116.291,185.514c-1.028,0.227-1.735,0.977-2.638,1.47c-0.207,0.113-0.429,0.208-0.651,0.3
					c-0.836-6.164-3.479-12.104-4.069-18.406c-0.025-0.264-0.048-0.536-0.072-0.806c0.614,0.106,1.275-0.026,1.811-0.5
					c3.653-3.231,9.403-7.456,7.044-13.159c-1.789-4.326-6.852-4.763-9.823-1.437c-3.412,3.819-3.488,9.77-3.015,14.851
					c-0.146-0.084-0.291-0.167-0.437-0.251c-1.7-2.451-3.917-4.899-6.674-5.114c-2.74-0.213-5.112,2.172-4.249,4.94
					c1.414,4.536,6.498,3.321,9.982,3.865c0.822,1.052,1.571,2.138,2.272,3.249c0.829,4.664,2.277,9.727,5.083,13.325
					c-0.253,0.03-0.506,0.055-0.755,0.061c-0.695,0.016-3.77-1.06-3.879,0.256c-0.185,2.22,4.194,2.486,5.625,2.324
					c2.156-0.243,5.464-1.594,5.553-4.123C117.42,185.764,116.825,185.396,116.291,185.514z"/>
			</g>
			<g>
				<g>
					<path style="fill:#7DA055;" d="M390.524,253.702c-3.289,0.947-6.579,1.894-9.868,2.841c0.976-3.792,1.953-7.583,2.929-11.375
						c0.706-2.74-2.622-4.577-4.646-2.704c-2.893,2.677-5.68,5.448-8.387,8.301c-0.437-5.087-0.873-10.173-1.31-15.26
						c-0.228-2.659-3.677-3.899-5.183-1.404c-2.792,4.624-5.753,9.119-8.851,13.529c-1.248-3.442-2.515-6.875-3.867-10.28
						c-1.01-2.545-4.678-2.254-4.855,0.657c-0.545,8.957-2.386,17.815-4.116,26.602c-0.175,0.887,0.192,1.573,0.754,1.961
						c0.323,0.809,0.964,1.501,1.802,1.617c7.648,1.059,26.626,5.001,26.447,15.24c-0.039,2.207,3.214,3.928,4.74,1.963
						c6.724-8.66,12.599-17.82,17.548-27.608C394.717,255.695,392.966,252.999,390.524,253.702z"/>
					<path style="fill:#B9D89A;" d="M386.993,258.482c-7.883,2.891-15.172,6.777-21.897,11.643
						c1.019-8.41,1.494-16.855,1.366-25.352c-0.05-3.344-4.35-3.536-5.484-0.742c-3.103,7.65-6.382,15.299-11.923,21.409
						c-1.704-3.602-2.866-7.397-3.357-11.408c-0.404-3.303-4.84-3.364-5.19,0c-0.776,7.467-1.246,14.969-1.297,22.471
						c-0.279,2.91-0.557,5.821-0.836,8.731c-0.256,2.671-1.103,5.95,0.611,8.313c1.854,2.558,5.356,2.097,8.179,2.241
						c0.02,0.001,0.039,0.002,0.059,0.003c-0.193,1.269,0.369,2.603,1.911,2.862c0.244,0.041,0.481,0.061,0.722,0.094
						c0,0.001,0,0.002,0,0.003c0.012,0,0.024,0.001,0.036,0.001c1.476,0.2,2.911,0.262,4.304,0.148
						c4.312,0.242,8.581,0.766,12.847,1.596c1.4,0.272,3.047-0.381,3.386-1.922c0.016-0.073,0.035-0.146,0.051-0.22
						c5.335-6.524,10.265-13.322,14.765-20.45c1.058-1.675-0.294-4.382-2.4-4.183c-0.456,0.043-0.896,0.11-1.343,0.166
						c2.978-3.693,5.863-7.457,8.635-11.315C391.521,260.646,389.209,257.67,386.993,258.482z"/>
					<path style="fill:#7DA055;" d="M378.397,288.399c-4.147,1.336-8.179,2.901-12.133,4.673c1.526-4.293,2.725-8.671,3.555-13.203
						c0.402-2.192-2.039-3.792-3.777-2.199c-3.735,3.425-7.34,6.968-10.829,10.633c-0.886-5.647-1.792-11.29-2.858-16.908
						c-0.389-2.052-3.093-1.581-3.704,0c-2.352,6.085-3.547,12.353-4.422,18.734c-0.176-0.305-0.35-0.611-0.525-0.917
						c-2.149-5.137-4.374-10.245-6.229-15.502c-0.456-1.291-2.096-1.685-3.117-1.147c-0.463-0.256-1.109-0.068-1.332,0.532
						c-2.282,6.156-1.278,13.899-1.142,20.36c0.07,3.295-0.552,9.091,3.625,10.026c0.06,0.013,0.123,0.02,0.187,0.024
						c0.35,0.078,0.712,0.088,1.062,0.004c4.161-0.989,8.368-1.312,12.571-0.853c1.449,0.401,2.688,0.784,3.427,0.981
						c5.192,1.383,9.988,3.437,13.962,7.129c0.158,0.147,0.321,0.266,0.486,0.365c1.508,1.147,3.751-0.067,3.996-2.059
						c0.668-5.418,6.43-11.083,9.237-15.646c0.143-0.232,0.229-0.458,0.293-0.68c0.232-0.447,0.45-0.902,0.637-1.379
						C382.037,289.653,380.037,287.87,378.397,288.399z"/>
				</g>
				<g>
					<path style="fill:#FFC952;" d="M358.043,300.233c-6.738-3.664-15.268-2.889-21.927,0.908
						c-8.297,4.732-12.711,14.114-14.227,23.212c-0.202,1.211-0.369,2.468-0.505,3.754c-0.783,2.621-1.392,5.259-1.817,7.836
						c-1.699,10.301-1.434,20.956,5.693,29.265c4.851,5.655,11.897,8.025,18.85,7.277c3.182,0.393,6.505,0.044,9.763-1.199
						c5.093-1.943,9.04-5.375,11.936-9.615c2.996-3.707,5.246-8.083,6.921-12.727C378.688,332.428,379.509,305.178,358.043,300.233z
						"/>
					<path style="fill:#BA8419;" d="M375.519,330.858c-0.114,0.078-0.22,0.167-0.332,0.248c-0.521-3.312-1.559-6.674-2.666-9.813
						c0.881-0.935,1.728-1.897,2.509-2.911c0.658-0.854-0.578-1.84-1.39-1.39c-0.75,0.416-1.476,0.875-2.192,1.353
						c-0.145-0.387-0.288-0.77-0.43-1.146c-0.819-2.181-1.712-4.439-2.736-6.648c0.822-0.654,1.637-1.315,2.425-2.005
						c0.535-0.468-0.03-1.468-0.709-1.218c-0.925,0.34-1.841,0.715-2.753,1.106c-1.519-2.945-3.318-5.726-5.555-8.021
						c-0.216-0.222-0.639,0.003-0.535,0.312c1.018,3.011,2.332,5.91,3.651,8.813c-2.364,1.134-4.686,2.412-6.966,3.781
						c-1.189-2.52-2.482-4.989-3.905-7.38c-0.561-0.943-1.151-1.877-1.787-2.767c2.343-1.329,4.74-2.608,6.669-4.48
						c0.356-0.346,0.107-1.082-0.429-1.037c-2.87,0.241-5.757,1.339-8.544,2.831c-1.354-1.296-2.927-2.327-4.869-2.844
						c-0.377-0.1-0.654,0.304-0.486,0.633c0.706,1.382,1.569,2.654,2.468,3.906c-3.107,1.976-6.025,4.271-8.567,6.209
						c-1.166,0.889-2.302,1.813-3.437,2.74c-1.781-1.838-3.863-3.414-6.075-3.538c-0.333-0.019-0.552,0.39-0.381,0.665
						c1.111,1.788,2.457,3.439,3.833,5.076c-0.88,0.755-1.768,1.5-2.63,2.275c-2.894,2.6-6.445,5.215-8.311,8.669
						c-0.477,0.883,0.148,1.841,0.99,1.953c1.131,3.135,3.2,5.986,4.818,8.919c-2.435,1.891-4.846,3.948-6.49,6.32
						c-0.068-0.099-0.133-0.204-0.201-0.302c-0.525-0.758-1.835-0.32-1.554,0.655c1.274,4.417,3.139,8.649,4.627,12.997
						c0.826,2.414,1.456,4.901,2.129,7.37c-0.313,0.598-0.574,1.21-0.764,1.836c-0.227,0.748,0.564,1.67,1.358,1.358
						c0.098-0.038,0.192-0.087,0.289-0.129c0.296,0.961,0.611,1.914,0.967,2.851c0.503,1.324,2.839,1.296,2.689-0.364
						c-0.128-1.414-0.345-2.877-0.627-4.361c2.215-1.79,4.148-4.217,6.02-6.393c0.776,2.742,1.484,5.503,2.124,8.287
						c0.092,0.4,0.174,0.804,0.256,1.208c-1.131,0.683-2.24,1.397-3.298,2.184c-1.38,1.027-0.646,3.475,1.242,2.946
						c0.97-0.272,1.934-0.612,2.891-0.994c0.094,0.426,0.188,0.853,0.296,1.273c-0.162-0.631,0.113-1.826,0.017-0.152
						c-0.061,1.064,1.132,1.958,2.136,1.627c0.094-0.031,0.187-0.062,0.281-0.093c0.807-0.266,1.485-1.014,1.453-1.908
						c-0.031-0.85-0.134-1.722-0.269-2.602c2.534-1.388,4.988-3.073,7.313-4.914c0.307,1.823,0.712,3.605,1.343,5.276
						c0.471,1.247,2.772,1.693,3.002,0c0.381-2.801,0.19-5.798-0.226-8.795c1.842-1.685,3.572-3.411,5.154-5.083
						c1.23-1.299,2.401-2.647,3.55-4.014c0.123,3.95,0.12,7.905,0.576,11.824c0.175,1.503,2.379,2.072,2.819,0.382
						c1.43-5.491,1.572-11.553,0.934-17.631c0.66-0.869,1.317-1.741,1.966-2.619c1.311-1.772,2.779-3.615,4.089-5.547
						c0.023,0.061,0.039,0.125,0.063,0.186c0.43,1.137,1.924,0.906,2.06-0.279c0.138-1.201,0.153-2.437,0.076-3.693
						c0.36-0.754,0.689-1.516,0.936-2.298C376.585,331.06,375.966,330.554,375.519,330.858z M366.035,312.267
						c0.944,2.126,1.845,4.271,2.587,6.481c0.149,0.444,0.272,0.898,0.405,1.348c-2.202,1.709-4.284,3.607-6.338,5.481
						c-0.189-0.573-0.377-1.146-0.57-1.705c-0.818-2.372-1.715-4.722-2.698-7.037C361.674,315.366,363.89,313.855,366.035,312.267z
						 M335.719,345.014c-1.033-2.557-2.212-5.66-3.647-8.717c0.199-0.169,0.398-0.346,0.597-0.508
						c3.048-2.473,6.151-4.873,9.303-7.208c0.964,2.217,1.824,4.482,2.588,6.788c0.607,1.831,1.135,3.684,1.632,5.546
						c-2.951,2.861-5.868,5.758-8.755,8.684C336.895,348.061,336.331,346.529,335.719,345.014z M347.298,331.342
						c-0.666-1.711-1.396-3.395-2.182-5.051c0.417-0.299,0.831-0.604,1.25-0.901c3.085-2.185,6.32-4.235,9.553-6.298
						c0.989,2.48,1.895,4.993,2.688,7.544c0.215,0.69,0.421,1.383,0.623,2.077c-3.3,2.967-6.547,5.992-9.757,9.055
						C348.833,335.598,348.119,333.45,347.298,331.342z M339.799,311.579c2.97-2.324,6.046-4.501,9.23-6.519
						c0.748,1.073,1.463,2.176,2.063,3.368c1.164,2.314,2.272,4.658,3.31,7.032c-3.766,2.427-7.417,5.021-10.966,7.51
						c-1.488-2.732-3.175-5.353-5.101-7.815c-0.35-0.447-0.738-0.946-1.153-1.464C338.046,312.976,338.917,312.27,339.799,311.579z
						 M324.24,325.415c2.488-1.705,4.474-4.173,6.683-6.225c1.18-1.097,2.382-2.172,3.597-3.232c0.93,1.139,1.828,2.299,2.623,3.528
						c1.189,1.839,2.263,3.735,3.239,5.679c-3.064,2.201-6.096,4.446-9.044,6.798c-0.345,0.275-0.703,0.553-1.066,0.832
						C328.609,329.852,326.639,327.195,324.24,325.415z M328.438,358.414c-1.429-5.009-3.547-10.034-6.06-14.31
						c2.422-1.24,4.599-3.176,6.711-5.126c1.859,4.013,3.447,8.146,4.833,12.347c0.149,0.453,0.285,0.91,0.429,1.364
						C332.496,354.464,330.29,356.357,328.438,358.414z M347.38,360.827c-1.773,1.287-3.668,2.386-5.572,3.465
						c-0.533-2.019-1.143-4.014-1.64-5.873c-0.429-1.608-0.902-3.202-1.396-4.79c2.787-2.869,5.608-5.704,8.455-8.513
						c0.495,2.183,0.947,4.376,1.338,6.581c0.427,2.409,0.646,4.962,0.91,7.516C348.785,359.761,348.094,360.309,347.38,360.827z
						 M357.846,351.452c-1.412,1.509-2.883,2.961-4.401,4.362c-0.337-1.778-0.693-3.522-0.996-5.187
						c-0.535-2.946-1.149-5.888-1.876-8.801c3.201-3.103,6.446-6.158,9.706-9.198c0.982,3.947,1.735,7.951,2.199,11.989
						c0.05,0.435,0.083,0.87,0.122,1.305C361.075,347.812,359.513,349.671,357.846,351.452z M368.14,338.864
						c-0.528,0.676-1.052,1.354-1.577,2.031c-0.671-3.969-1.625-7.874-2.71-11.572c2.033-1.824,4.133-3.62,6.133-5.504
						c0.743,3.358,1.299,6.779,2.152,10.072C370.707,335.469,369.426,337.216,368.14,338.864z"/>
				</g>
			</g>
			<g>
				<path style="fill:#FFC952;" d="M388.321,389.994c-1.177-2.176-5.24-6.695-8.486-5.974c-0.636-0.287-1.396-0.366-2.32-0.158
					c-7.489,1.689-11.089,15.762-13.347,22.021c-2.516,6.973-4.823,15.349-9.959,20.9c-5.511,5.956-14.869,8.232-22.49,9.919
					c-7.442,1.647-16.638,1.065-23.223,5.25c-3.384,2.151-6.295,6.007-6.295,10.184c0,4.212,3.628,7.611,6.954,9.672
					c6.124,3.796,13.443,4.033,20.461,4.217c4.045,1.179,8.854,1.044,13.47,0.283c4.009-0.19,7.935-0.903,11.417-2.897
					c0.287-0.164,0.558-0.351,0.833-0.533c0.002-0.001,0.005-0.002,0.007-0.003c10.868-4.345,19.757-11.823,26.125-21.638
					c6.185-9.534,9.377-20.875,9.902-32.176C391.656,402.955,391.284,395.471,388.321,389.994z"/>
				<g>
					<path style="fill:#6F304B;" d="M389.593,392.879c0.324-0.886,0.332-1.955-0.161-3.112c-1.31-3.075-2.829-5.923-3.605-9.208
						c-0.59-2.498-1.111-4.708-3.386-6.167c-1.355-0.869-3.3-0.024-3.689,1.501c-0.713,2.792-1.362,5.392-1.739,8.12
						c-4.891,1.501-8.073,8.317-10.298,14.441c2.692-1.197,5.503-4.46,7.762-5.524c0.892-0.42,2.052-0.116,2.32,0.944
						c0.461,1.824,1.157,3.557,1.749,5.329c-0.772,2.127-1.522,4.261-2.155,6.418c-1.174,4-1.753,8.147-3.076,12.116
						c-2.647,7.94-7.65,14.14-14.393,19.004c-6.485,4.677-13.768,7.631-21.528,9.459c-8.504,2.003-17.3,1.854-25.783,3.656
						c-0.377,0.08-0.631,0.278-0.798,0.525c0.654-2.412,3.753-4.101,6.258-5.678c-2.635-0.387-5.283-0.782-7.795-1.596
						c1.586-0.819,3.989-1.27,5.167-2.642c0.326-0.38,0.306-0.969-0.16-1.24c-1.941-1.129-4.835,0.207-6.51,1.353
						c-1.28,0.876-2.614,1.926-3.359,3.27c-0.192,0.228-0.39,0.464-0.61,0.705c-1.292,1.41-2.705,2.349-4.553,2.869
						c-2.396,0.675-4.875,1.707-4.252,4.804c0.484,2.404,3.769,4.783,5.57,6.253c1.28,1.045,2.889,1.689,4.325,2.49
						c1.684,0.94,3.003,2.1,4.9,2.642c0.564,0.161,1.101,0.226,1.606,0.214c0.703,0.503,1.447,0.922,2.083,1.237
						c2.008,0.994,3.764,1.343,5.578-0.161c0.38-0.315,0.301-0.93,0-1.256c-1.051-1.142-2.093-1.477-3.404-1.931
						c1.537-0.488,3.06-1.015,4.55-1.625c-1.359-0.694-2.849-1.459-4.242-2.318c-0.071-0.545-0.212-1.089-0.444-1.611
						c-0.628-1.413-1.804-2.557-3.172-3.491c9.318,0.253,19.633-1.712,28.587-4.075c7.554-1.993,15.18-5.034,21.441-9.79
						c13.279-10.085,16.779-25.125,18.491-40.705c0.918-0.837,1.808-1.709,2.762-2.448c0.874-0.677,1.809-0.563,2.48,0.32
						c1.731,2.278,3.335,4.565,5.247,6.585C391.171,399.249,390.662,395.886,389.593,392.879z"/>
					<path style="fill:#6F304B;" d="M340.915,454.668c-0.75,0.039-1.475,0.342-2,0.887c-0.594,0.617-0.862,1.549-0.562,2.326
						c0.106,0.552,0.371,1.043,0.746,1.487c0.187,0.221,0.51,0.351,0.827,0.382c0.339,0.221,0.737,0.348,1.147,0.305
						c0.1-0.01,0.181-0.044,0.264-0.076c0.242,0.109,0.517,0.148,0.801,0.063c0.408-0.122,0.754-0.348,1.034-0.647
						c0.696-0.426,1.048-1.453,0.813-2.211C343.575,455.865,342.402,454.59,340.915,454.668z M341.104,458.287
						c-0.004-0.006-0.008-0.01-0.013-0.017c0,0,0.002,0,0.002-0.001c0.002,0.004,0.008,0.011,0.012,0.018
						C341.105,458.287,341.105,458.287,341.104,458.287z"/>
					<path style="fill:#6F304B;" d="M329.485,455.228c-0.543-0.185-1.089-0.24-1.641-0.037c-1.68,0.62-1.683,2.805,0,3.426
						c0.543,0.2,1.105,0.146,1.641-0.037C331.132,458.017,331.135,455.791,329.485,455.228z"/>
					<path style="fill:#6F304B;" d="M333.789,459.079c-1.232,0-2.412,1.083-2.355,2.355c0.057,1.276,1.035,2.355,2.355,2.355
						c1.232,0,2.412-1.083,2.355-2.355C336.088,460.159,335.11,459.079,333.789,459.079z"/>
				</g>
			</g>
			<g>
				<g>
					<path style="fill:#F74646;" d="M166.93,274.417c-1.631-5.521-7.454-9.685-13.249-10.399c-3.147-1.367-6.64-1.328-9.586,0.317
						c-10.214,1.207-8.841,14.836-7.402,22.493c1.535,8.17,8.82,27.167,20.301,17.959c3.848-3.086,5.214-9.139,7.073-13.541
						C166.319,285.914,168.661,280.274,166.93,274.417z"/>
					<g>
						<path style="fill:#FFC952;" d="M140.787,279.719c-0.024,0.114-0.287,0.377-0.336,0.507c-0.057,0.148-0.114,0.304-0.157,0.456
							c-0.112,0.392-0.114,0.788-0.07,1.192c0.159,1.455,2.108,1.458,2.268,0c0.044-0.403,0.043-0.8-0.07-1.192
							c-0.043-0.15-0.102-0.311-0.157-0.456c-0.065-0.171-0.307-0.368-0.336-0.507C141.811,279.154,140.904,279.153,140.787,279.719
							L140.787,279.719z"/>
					</g>
					<g>
						<path style="fill:#FFC952;" d="M143.947,288.645c-0.015,0.287-0.044,0.568-0.048,0.858c-0.005,0.342-0.008,0.63,0.039,0.974
							c0.091,0.672,0.316,1.287,0.645,1.882c0.575,1.039,2.475,0.637,2.348-0.636c-0.075-0.75-0.235-1.407-0.568-2.084
							c-0.262-0.532-0.662-0.954-0.99-1.381C144.922,287.671,143.99,287.835,143.947,288.645L143.947,288.645z"/>
					</g>
					<g>
						<path style="fill:#FFC952;" d="M151.229,290.348c0.019,0.56,0.036,1.068,0.203,1.619c0.229,0.756,1.042,1.164,1.778,0.854
							c0.789-0.332,0.94-1.144,0.63-1.869c-0.224-0.526-0.552-0.893-0.884-1.319C152.406,288.928,151.202,289.53,151.229,290.348
							L151.229,290.348z"/>
					</g>
					<g>
						<path style="fill:#FFC952;" d="M146.503,282.655c0.028,0.274-0.032,0.537,0.005,0.818c0.042,0.321,0.084,0.642,0.128,0.963
							c0.1,0.741,1.066,1.047,1.659,0.797c0.66-0.278,0.977-1.11,0.588-1.744c-0.132-0.215-0.26-0.434-0.399-0.645
							c-0.142-0.217-0.35-0.383-0.487-0.593C147.601,281.646,146.415,281.805,146.503,282.655L146.503,282.655z"/>
					</g>
					<g>
						<path style="fill:#FFC952;" d="M158.069,282.622c-0.007,0.067-0.014,0.133-0.021,0.2c0.086-0.208,0.173-0.417,0.259-0.625
							c-0.649,0.7-0.748,1.507-0.852,2.423c-0.09,0.794,0.743,1.477,1.477,1.477c0.729,0,1.567-0.679,1.477-1.477
							c-0.104-0.918-0.202-1.722-0.852-2.423c0.086,0.208,0.173,0.417,0.259,0.625c-0.007-0.067-0.014-0.133-0.021-0.2
							C159.679,281.513,158.186,281.511,158.069,282.622L158.069,282.622z"/>
					</g>
					<g>
						<path style="fill:#FFC952;" d="M158.053,296.112c-0.07,0.247-0.158,0.526-0.306,0.738c-0.215,0.308-0.442,0.485-0.594,0.852
							c-0.223,0.535,0.327,1.038,0.809,1.062c1.145,0.058,1.966-1.41,1.86-2.412C159.72,295.39,158.347,295.072,158.053,296.112
							L158.053,296.112z"/>
					</g>
					<g>
						<path style="fill:#FFC952;" d="M161.368,288.263c-0.148,0.144-0.326,0.187-0.496,0.287c-0.161,0.094-0.315,0.26-0.453,0.384
							c-0.311,0.28-0.536,0.573-0.75,0.932c-0.534,0.899,0.708,1.866,1.448,1.118c0.291-0.294,0.522-0.593,0.713-0.961
							c0.089-0.172,0.206-0.351,0.258-0.538c0.051-0.187,0.051-0.371,0.152-0.55C162.55,288.387,161.824,287.821,161.368,288.263
							L161.368,288.263z"/>
					</g>
					<g>
						<path style="fill:#FFC952;" d="M145.63,300.536c0.076,0.522,0.264,0.983,0.45,1.474c0.243,0.641,0.857,1.082,1.563,0.887
							c0.651-0.179,1.087-0.904,0.887-1.563c-0.183-0.606-0.356-1.186-0.669-1.74c-0.296-0.525-0.982-0.738-1.525-0.5
							C145.736,299.359,145.539,299.914,145.63,300.536L145.63,300.536z"/>
					</g>
					<g>
						<path style="fill:#FFC952;" d="M152.529,301.875c-0.005,0.16-0.142,0.364-0.15,0.549c-0.009,0.208,0.021,0.433,0.038,0.64
							c0.042,0.513,0.178,0.949,0.398,1.414c0.497,1.051,2.237,0.534,2.18-0.59c-0.026-0.509-0.131-0.965-0.34-1.43
							c-0.074-0.165-0.142-0.338-0.229-0.496c-0.107-0.195-0.329-0.319-0.425-0.486C153.6,300.783,152.551,301.106,152.529,301.875
							L152.529,301.875z"/>
					</g>
					<g>
						<path style="fill:#FFC952;" d="M163.008,278.262c-0.364,0.677-0.493,1.41-0.253,2.156c0.238,0.739,0.941,1.369,1.741,1.234
							c0.27-0.046,0.453-0.3,0.537-0.537c0.249-0.703-0.232-1.37-0.063-2.026C165.266,277.938,163.598,277.164,163.008,278.262
							L163.008,278.262z"/>
					</g>
					<g>
						<path style="fill:#FFC952;" d="M151.54,279.327c-0.036,0.303-0.1,0.612-0.064,0.915c0.133,1.111,1.598,1.113,1.732,0
							c0.036-0.303-0.029-0.613-0.064-0.915C153.023,278.298,151.661,278.296,151.54,279.327L151.54,279.327z"/>
					</g>
					<g>
						<path style="fill:#FFC952;" d="M153.515,285.917c0.021,0.343,0.012,0.69,0.238,0.973c0.149,0.187,0.289,0.294,0.455,0.457
							c0.181,0.179,0.482,0.179,0.663,0c0.16-0.158,0.321-0.278,0.455-0.457c0.217-0.291,0.216-0.624,0.238-0.973
							C155.645,284.6,153.432,284.598,153.515,285.917L153.515,285.917z"/>
					</g>
					<g>
						<path style="fill:#FFC952;" d="M150.852,297.724c0.189,0.735,0.416,1.479,1.192,1.744c0.484,0.165,0.997-0.191,1.138-0.646
							c0.238-0.768-0.346-1.429-0.804-1.986C151.771,296.099,150.64,296.9,150.852,297.724L150.852,297.724z"/>
					</g>
				</g>
				<g>
					<path style="fill:#B9D89A;" d="M167.499,263.094c-2.868-0.812-10.294-3.366-14.074-1.494
						c-4.501-4.216-10.34-5.487-16.372-4.401c-2.125,0.383-2.036,3.759,0,4.207c1.779,0.391,3.407,1.013,5.01,1.744
						c-3.626-0.04-7.058,1.846-9.811,4.42c-1.252,1.171,0.078,3.025,1.579,2.712c2.777-0.58,5.559-1.121,8.351-1.615
						c-0.195,1.778-0.389,3.556-0.594,5.333c-0.235,2.032,2.505,2.223,3.45,0.934c1.175-1.604,2.409-3.152,3.68-4.671
						c1.481,2.026,2.902,4.085,4.236,6.225c1.005,1.611,3.462,1.305,4.011-0.524c0.555-1.85,0.935-3.681,1.193-5.549
						c1.666,0.687,2.983,1.778,3.977,3.628c1.094,2.038,4.028,0.971,4.136-1.12c0.112-2.167-0.366-4.1-1.332-5.802
						c1.042,0.174,2.113,0.27,3.062-0.195C169.669,266.106,169.143,263.559,167.499,263.094z"/>
					<path style="fill:#7DA055;" d="M154.032,246.362c-1.667,1.984-2.284,4.161-2.536,6.42c-0.903,3.839-1.225,7.755-1.372,11.805
						c-0.024,0.655,0.377,1.186,0.912,1.492c0.362,0.718,0.975,1.319,1.964,1.755c0.864,0.381,1.992-0.447,1.401-1.401
						c-0.98-1.581,0.84-6.652,1.156-8.413c0.586-3.262,1.096-6.536,1.664-9.801C157.513,246.544,155.386,244.751,154.032,246.362z"
						/>
				</g>
			</g>
			<g>
				<path style="fill:#B9D89A;" d="M107.366,273.922c-4.631-7.275-12.936-15.194-21.87-16.624c0.188-5.166-1.624-10.558-4.947-14.32
					c-5.442-6.163-14.001-6.418-19.268-1.493c-4.129,3.639-6.214,9.824-4.863,15.575c0.157,0.667,0.359,1.338,0.595,2.006
					c0.162,1.035,0.424,2.055,0.778,3.056c-4.207,3.927-7.461,8.789-9.839,14.75c-4.539,11.38-4.665,24.765,3.546,34.473
					c14.688,17.367,47.613,17.755,57.999-4.268C114.525,296.415,113.722,283.906,107.366,273.922z"/>
				<path style="fill:#7DA055;" d="M73.437,245.957c-0.266-0.588-1.026-0.514-1.434-0.185c-0.223,0.18-0.462,0.385-0.708,0.587
					c-2.18-10.228-11.044-25.933-22.577-24.206c-3.642,0.545-5.763,3.967-3.93,7.375c1.111,2.066,3.25,3.173,5.484,3.541
					c4.19,0.691,7.921-0.574,12.133,0.453c2.884,4.212,4.488,9.171,7.044,13.854c-0.516,0.099-1.049,0.076-1.581,0.051
					c-1.082-0.05-1.841,1.537-0.938,2.265c1.407,1.134,3.23,1.09,4.797,0.286C73.268,249.188,74.199,247.642,73.437,245.957z"/>
			</g>
			<g>
				<path style="fill:#FF9750;" d="M86.543,127.885c-0.082-1.031-0.225-2.055-0.453-3.064c-1.776-7.865-8.763-14.463-16.705-17.849
					c-5.606-2.39-11.346-3.336-16.84-3.053c-2.582,0.069-5.155,0.422-7.65,1.112c-1.469,0.406-2.854,0.907-4.173,1.475
					c-13.236,4.157-22.726,16.025-21.534,29.689c0.661,7.571,4.058,15.288,9.407,21.41c0.163,0.214,0.32,0.433,0.489,0.642
					c11.845,14.554,36.105,15.511,48.166,1.561c5.397-4.088,9.378-9.536,10.703-15.821C89.129,138.402,88.524,132.91,86.543,127.885
					z"/>
				<path style="fill:#7DA055;" d="M53.116,85.128c-3.382-1.04-6.128,1.739-8.033,4.193c-1.213,1.562-2.283,4.227-3.944,5.704
					c-2.803-2.321-6.849-3.579-10.029-2.998c-1.932,0.353-3.7,1.547-3.402,3.701c0.362,2.62,4.358,4.068,6.58,4.822
					c2.552,0.866,5.396,1.072,7.926,0.137c0.099,0.067,0.203,0.127,0.303,0.192c0.015,1.481,0.339,2.999,0.556,4.504
					c0.505,3.493,1.031,7.097,2.339,10.391c-1.108,0.17-2.222,0.014-3.362-0.135c-0.844-0.11-1.184,1.076-0.663,1.6
					c1.6,1.611,4.17,1.624,6.172,0.855c1.797-0.691,4.043-2.529,3.753-4.694c-0.066-0.491-0.615-1.034-1.132-0.65
					c-0.799,0.594-1.447,1.299-2.207,1.887c-0.208-2.74-0.754-5.453-1.153-8.17c-0.241-1.641-0.279-3.612-0.622-5.429
					c0.566-0.162,1.064-0.61,1.197-1.177c0.376-1.608,3.755-3.455,4.871-4.413c1.43-1.227,2.798-2.384,3.48-4.193
					C56.685,88.772,55.832,85.963,53.116,85.128z"/>
			</g>
			<g>
				<g>
					<path style="fill:#C3E5F4;" d="M118.735,372.484c2.003-6.588,4.035-13.173,5.878-19.804c0.419-1.508-0.26-3.438-1.702-4.181
						c-3.669-1.893-7.954-4.19-12.098-3.504c-0.448-0.241-0.999-0.195-1.331,0.331c-0.224,0.075-0.448,0.149-0.67,0.244
						c-0.622,0.266-0.864,1.203-0.592,1.803c-0.725,1.021-1.418,1.842-2.045,3.335c-0.981,2.339-1.981,4.671-2.942,7.018
						c-1.418,3.464-2.724,6.974-4.027,10.485c-4.398-1.567-8.908-2.286-13.377,0.11c-5.24,2.81-8.94,8.282-11.79,13.341
						c-7.022,12.463-11.663,26.818-16.727,40.162c-1.364,3.595-2.568,7.248-3.909,10.851c-1.079,2.897-3.114,6.119-2.827,9.32
						c0.513,5.722,7.687,10.169,11.795,13.427c5.182,4.109,11.058,6.99,17.492,8.594c6.776,1.689,17.63,3.917,23.756-0.235
						c0.189-0.128,0.354-0.269,0.523-0.407c1.666,0.036,3.361-0.7,4.488-2.509c2.639-4.237,3.868-9.368,5.715-13.992
						c1.943-4.864,3.985-9.69,5.977-14.534c3.607-8.772,7.898-17.542,10.53-26.664C134.432,393.277,131.56,376.744,118.735,372.484z
						 M111.876,350.829c-0.258,0.085-0.51,0.188-0.753,0.318c0.041-0.274,0.068-0.537,0.087-0.793
						C111.432,350.512,111.645,350.679,111.876,350.829z"/>
					<g>
						<path style="fill:#668EE6;" d="M106.494,348.1c1.285,2.955,4.736,3.504,7.528,4.454c3.056,1.04,6.328,2.459,9.606,2.155
							c2.888-0.268,5.57-4.25,2.706-6.533c-2.757-2.198-6.01-2.988-9.387-3.862c-3.066-0.793-6.469-2.328-9.352-0.415
							C106.089,344.898,105.797,346.499,106.494,348.1L106.494,348.1z"/>
					</g>
					<path style="fill:#668EE6;" d="M122.802,383.753c-6.19-0.792-7.326,8.069-8.626,12.249c-1.271,4.089-2.626,8.534-5.879,11.522
						c-3.231,2.969-7.873,4.154-12.073,4.966c-7.012,1.354-14.682,1.42-21.142-1.789c-1.704-2.94-6.879-3.219-8.384,0.963
						c-2.724,7.572-7.065,15.869-8.014,23.891c-0.841,7.11,3.571,12.622,9.461,16.043c6.548,3.804,14.386,5.708,21.91,5.979
						c3.358,0.121,7.659,0.18,10.71-1.501c3.074-1.694,4.734-5.13,6.297-8.098c7.892-14.991,15.761-31.564,19.395-48.2
						C127.402,395.458,129.505,384.61,122.802,383.753z"/>
				</g>
				<g>
					<path style="fill:#FFFFFF;" d="M83.413,420.048c0.003,0.005,0.005,0.009,0.008,0.014c0.006-0.014,0.012-0.029,0.019-0.043
						c0.243-0.278,0.399-0.609,0.429-0.989c1.501-3.415,2.972-6.846,4.32-10.323c1.441-3.717,3.241-7.573,3.331-11.602
						c0.04-1.781-2.15-2.026-3.057-0.828c-1.885,2.49-2.874,5.61-3.986,8.546c-1.587-0.871-3.458-2.109-5.145-2.134
						c1.43-3.249,2.877-6.552,3.479-9.92c0.1-0.558-0.524-0.98-0.969-0.564c-3.659,3.414-5.745,8.523-7.735,13.033
						c-1.329,3.012-4.029,7.28-2.443,10.487c0.131,0.266,0.481,0.375,0.752,0.306c3.304-0.833,3.853-5.748,4.9-8.535
						c0.168-0.448,0.352-0.898,0.536-1.348c0.819,0.842,2.136,1.341,3.118,1.825c0.593,0.292,1.214,0.652,1.856,0.944
						c-1.186,2.9-2.392,5.79-3.664,8.654C77.474,421.368,81.927,421.679,83.413,420.048z"/>
					<path style="fill:#FFFFFF;" d="M86.034,418.031c-0.738,1.274,0.885,2.308,1.918,1.48c0.204-0.163,0.794,0.266,0.88,0.472
						c0.273,0.656-0.732,1.56-1.144,1.902c-1.356,1.125-3.172,1.59-4.869,1.865c-2.044,0.332-1.241,3.077,0.446,3.295
						c0.775,0.1,1.49,1.154,2.058,1.619c0.516,0.422,1.074,0.804,1.71,1.023c1.332,0.457,2.279,0.192,3.098-0.906
						c0.525-0.704-0.065-1.627-0.759-1.866c-0.512-0.177-1.121-0.197-1.599-0.461c-0.199-0.111-0.385-0.278-0.566-0.457
						c2.634-1.133,5.031-3.157,4.808-6.053C91.792,417.06,87.681,415.186,86.034,418.031z"/>
					<path style="fill:#FFFFFF;" d="M116.151,411.04c-0.485-3.012-3.534-6.451-6.568-7.182c-0.239-0.256-0.629-0.39-0.992-0.337
						c-6.805,0.996-11.346,11.615-12.207,17.533c-0.938,6.451,4.218,11.68,10.681,8.836
						C113.111,427.232,117.153,417.266,116.151,411.04z M110.316,417.598c-0.736,2.063-1.836,4.606-3.348,6.258
						c-2.31,2.524-5.51,2.196-5.718-1.809c-0.285-5.501,3.684-9.236,6.457-13.382C112.093,408.457,111.494,414.296,110.316,417.598z
						"/>
				</g>
			</g>
			<g>
				<g>
					<path style="fill:#F74646;" d="M477.429,239.364c-0.088-1.503-0.948-3.05-2.52-3.676c-2.016-0.803-4.012-1.693-6.001-2.612
						c-2.604-1.95-5.972-3.314-8.794-4.272c-0.601-0.302-1.204-0.603-1.804-0.905c-4.636-3.396-9.879-5.748-15.075-8.379
						c-6.638-3.362-13.243-6.769-19.819-10.25c-6.326-3.349-11.777,4.347-8.183,9.147c-1.364,17.726-3.052,35.505-5.081,53.165
						c-0.099,0.864,0.198,1.691,0.717,2.385c-1.366,4.286,6.415,7.159,9.495,5.07c0.128-0.087,0.249-0.18,0.364-0.278
						c3.119,0.167,6.482-0.471,9.064-0.964c6.505-1.244,12.845-3.967,18.689-7.04c5.743-3.02,11.333-6.467,16.34-10.606
						c3.729-3.083,8.721-7.227,9.82-12.158c0.694-0.807,1.353-1.621,1.97-2.415C478.166,243.571,478.559,241.247,477.429,239.364z"
						/>
					<g>
						<path style="fill:#7DA055;" d="M476.37,234.47c-1.723,1.624-1.554,3.682-2.094,5.91c-0.799,3.299-2.22,6.349-4.126,9.152
							c-3.977,5.85-9.609,10.694-15.325,14.778c-5.699,4.073-11.92,7.486-18.453,10.017c-2.862,1.109-5.789,2.053-8.756,2.838
							c-2.02,0.535-4.042,0.994-6.113,1.284c-1.142,0.209-2.294,0.325-3.456,0.347c-2.021-0.558-3.179,0.362-3.473,2.762
							c1.224-0.562,1.059-2.118,0.383-2.975c-0.078-0.099-0.156-0.198-0.235-0.297c-0.483-0.612-1.411-0.706-2.109-0.558
							c-1.04,0.221-1.639,0.712-2.134,1.631c-0.589,1.094-0.4,2.316,0.416,3.225c2.137,2.381,6.182,1.859,9.068,1.612
							c4.743-0.406,9.427-1.646,13.936-3.132c8.429-2.778,16.506-6.797,23.716-11.98c6.482-4.66,12.754-10.115,17.101-16.883
							c2.51-3.908,7.888-14.251,2.542-17.846C476.985,234.171,476.597,234.256,476.37,234.47L476.37,234.47z"/>
					</g>
				</g>
				<g>
					<path style="fill:#6F304B;" d="M429.251,239.671c1.665,1.173,4.224-0.789,3.522-2.708c-0.398-1.089-1.172-1.884-1.915-2.75
						c-0.668-0.778-1.317-1.371-2.205-1.904c-1.438-0.863-3.289,0.566-2.831,2.176c0.286,1.005,0.688,1.778,1.271,2.632
						C427.739,238.061,428.302,239.003,429.251,239.671z"/>
					<path style="fill:#6F304B;" d="M441.67,236.664c0.688,0.912,1.541,1.769,2.461,2.441c0.985,0.718,2.698,0.419,3.497-0.451
						c0.806-0.879,1.221-2.447,0.451-3.497c-0.71-0.968-1.727-1.934-2.825-2.459c-0.495-0.236-1.021-0.423-1.54-0.597
						c-0.512-0.171-1.061-0.211-1.47-0.348c-1.826-0.613-3.112,1.865-1.832,3.148c0.034,0.032,0.062,0.069,0.095,0.101
						C440.803,235.594,441.251,236.108,441.67,236.664z"/>
					<path style="fill:#6F304B;" d="M447.219,249.475c-0.383-1.12-0.995-2.271-1.704-3.222c-0.725-0.972-1.612-1.66-2.654-2.268
						c-1.08-0.631-2.196,0.201-2.306,1.324c-0.218,2.205,0.374,4.448,1.656,6.279c0.781,1.115,2.109,1.698,3.422,1.121
						C446.813,252.189,447.669,250.789,447.219,249.475z"/>
					<path style="fill:#6F304B;" d="M434.967,255.673c-1.847-1.035-3.752,1.008-2.816,2.816c0.35,0.677,0.598,1.394,0.859,1.997
						c-0.078-0.179,0.101,0.275,0.117,0.321c0.088,0.251,0.172,0.491,0.276,0.737c0.196,0.464,0.433,0.888,0.662,1.335
						c0.63,1.225,2.255,1.64,3.458,1.133c1.292-0.545,1.919-1.906,1.603-3.266C438.595,258.458,436.973,256.797,434.967,255.673z"/>
					<path style="fill:#6F304B;" d="M421.99,264.94c-0.302-0.812-0.78-1.433-1.399-2.034c-0.668-0.649-1.788-0.349-2.05,0.541
						c-0.25,0.851-0.358,1.623-0.205,2.5c0.138,0.793,0.339,1.581,0.508,2.368c0.539,2.514,4.642,1.416,3.867-1.066
						C422.472,266.485,422.27,265.692,421.99,264.94z"/>
					<path style="fill:#6F304B;" d="M421.581,244.215c-0.823-0.585-1.884-0.082-2.397,0.628c-1.436,1.987-0.735,5.341-0.526,7.6
						c0.173,1.875,1.559,3.359,3.562,3.088c1.9-0.257,3.056-2.073,2.614-3.924C424.243,249.131,423.8,245.792,421.581,244.215z"/>
					<path style="fill:#6F304B;" d="M429.404,245.656c-0.647,1.247-0.264,3.008,0.181,4.202c0.647,1.736,2.365,2.786,4.194,2.014
						c1.819-0.768,2.27-2.717,1.486-4.409c-0.534-1.151-1.517-2.659-2.856-3.069C431.279,243.802,429.767,244.428,429.404,245.656z"
						/>
					<path style="fill:#6F304B;" d="M419.101,220.909c0.143,1.224,0.221,2.454,1.234,3.315c0.838,0.712,1.865,0.997,2.918,0.552
						c0.917-0.387,1.718-1.39,1.642-2.441c-0.1-1.4-0.71-2.209-1.697-3.123c-0.572-0.53-0.964-1.02-1.395-1.672
						c-0.491-0.743-1.399-1.105-2.242-0.735c-0.758,0.333-1.355,1.266-1.04,2.118C418.774,219.604,419.018,220.197,419.101,220.909z
						"/>
					<path style="fill:#6F304B;" d="M426.435,223.04c0.706,1.541,1.315,3.396,2.853,4.332c2.042,1.242,4.562-1.245,3.296-3.296
						c-0.952-1.542-2.798-2.134-4.351-2.834C427.008,220.691,425.87,221.807,426.435,223.04z"/>
					<path style="fill:#6F304B;" d="M440.427,226.215c0.512,0.354,1.037,0.651,1.61,0.895c1.366,0.581,3.115,0.455,3.895-1.021
						c0.645-1.221,0.442-3.272-1.021-3.895c-0.766-0.326-1.497-0.624-2.312-0.796c-0.625-0.132-1.129-0.172-1.755-0.039
						c-0.119,0.031-0.238,0.063-0.357,0.094c-0.042,0.002-0.098,0.004-0.184,0.009c-1.635,0.053-2.372,1.953-1.301,3.14
						C439.357,224.998,439.768,225.76,440.427,226.215z"/>
					<path style="fill:#6F304B;" d="M457.167,236.461c0.556,0.366,1.082,0.706,1.729,0.9c1.075,0.322,2.228-0.3,2.65-1.301
						c0.415-0.984,0.076-2.283-0.919-2.805c-0.617-0.324-1.195-0.45-1.864-0.581c-1.023-0.2-2.024,0.205-2.444,1.2
						C455.908,234.85,456.296,235.887,457.167,236.461z"/>
					<path style="fill:#6F304B;" d="M462.041,244.581c-0.46-0.409-0.931-0.782-1.523-0.981c-0.43-0.144-0.901-0.155-1.351-0.182
						c-0.022-0.001-0.182-0.009-0.238-0.01c-0.063-0.013-0.244-0.044-0.275-0.051c-0.322-0.067-0.644-0.135-0.966-0.202
						c-0.979-0.205-1.644,0.734-1.236,1.608c0.248,0.532,0.448,0.935,0.596,1.436c0.117,0.398,0.237,0.802,0.447,1.163
						c0.337,0.579,0.84,0.943,1.377,1.323c1.063,0.752,2.638,0.278,3.373-0.673C462.999,247.039,463.019,245.449,462.041,244.581z"
						/>
					<path style="fill:#6F304B;" d="M418.849,236.392c0.307,0.15,0.707,0.145,0.955-0.123c1.068-1.157,0.29-2.962-0.166-4.241
						c-0.142-0.398-0.553-0.85-1.033-0.786c-0.078,0.01-0.155,0.021-0.233,0.031c-1.244,0.173-0.713,2.602-0.629,3.357
						C417.822,235.345,418.173,236.062,418.849,236.392z"/>
					<path style="fill:#6F304B;" d="M457.079,253.637c-0.124-0.074-0.242-0.154-0.362-0.234c-0.491-0.485-1.003-0.915-1.596-1.271
						c-1.262-0.757-3.301,0.193-3.143,1.804c0.059,0.597,0.135,1.179,0.422,1.715c0.228,0.424,0.585,0.823,0.912,1.177
						c0.639,0.694,1.479,1.443,2.434,1.576c1.026,0.143,2.157-0.085,2.691-1.095c0.523-0.99,0.345-2.05-0.373-2.887
						C457.783,254.094,457.448,253.856,457.079,253.637z"/>
					<path style="fill:#6F304B;" d="M448.682,259.96c-0.271-0.105-0.556-0.184-0.821-0.302c-0.348-0.155-0.666-0.417-0.98-0.632
						c-0.413-0.283-0.975,0.185-0.836,0.643c0.103,0.34,0.245,0.692,0.298,1.043c0.049,0.325,0.018,0.667,0.046,0.995
						c0.103,1.226,0.916,2.283,2.077,2.685c1.066,0.369,2.247-0.605,2.217-1.689C450.649,261.468,449.814,260.401,448.682,259.96z"
						/>
					<path style="fill:#6F304B;" d="M431.557,266.106c-0.806-0.622-2.363-1.053-3.157-0.112c-0.667,0.789-1.045,1.689-0.777,2.746
						c0.158,0.625,0.415,1.24,0.62,1.851c0.274,0.817,0.94,1.72,1.865,1.865c0.058,0.009,0.117,0.018,0.175,0.027
						c1.159,0.182,2.072-0.146,2.746-1.117c0.032-0.046,0.064-0.092,0.095-0.137c0.548-0.79,0.428-1.896,0-2.696
						C432.688,267.717,432.298,266.678,431.557,266.106z"/>
					<path style="fill:#6F304B;" d="M426.201,218.093c0.424,0.194,0.848,0.387,1.271,0.581c0.286,0.131,0.573,0.29,0.88,0.365
						c0.319,0.078,0.688,0.09,1.018,0.131c0.711,0.088,1.508-0.595,1.661-1.265c0.183-0.806-0.149-1.469-0.792-1.945
						c-0.788-0.585-1.735-0.832-2.655-1.149c-0.846-0.292-1.792,0.266-2.118,1.04C425.148,216.604,425.386,217.721,426.201,218.093z
						"/>
				</g>
			</g>
		</g>
		<g>
			<g>
				<g>
					<linearGradient id="SVGID_1_" gradientUnits="userSpaceOnUse" x1="257.6028" y1="365.9172" x2="269.6854" y2="329.6696">
						<stop  offset="0" style="stop-color:#B8626B"/>
						<stop  offset="1" style="stop-color:#934F56"/>
					</linearGradient>
					<path style="fill:url(#SVGID_1_);" d="M281.563,331.547c-4.597-6.041-30.266-11.533-30.613-9.886
						c-0.283,1.349,2.261,20.351,3.194,27.204l-19.689,86.89l18.162,9.337l27.173-93.777
						C279.791,351.312,286.159,337.588,281.563,331.547z"/>
					<g>
						<path style="fill:#668EE6;" d="M234.284,435.893l18.162,9.337c0,0,7.552,19.501,14.865,22.796
							c7.313,3.295,3.492,9.886-4.758,10.435c-8.25,0.549-34.98-27.46-34.98-27.46L234.284,435.893z"/>
						<path style="fill:#3064BF;" d="M241.884,449.368c-0.999-3.542-2.833-9.165-5.86-12.581l-1.74-0.895L227.574,451
							c0,0,7.005,7.337,14.949,14.428C243.613,460.16,243.301,454.39,241.884,449.368z"/>
						<polygon style="fill:#C3E5F4;" points="252.446,445.229 257.481,427.854 238.653,416.612 234.284,435.893 						"/>
						<polygon style="fill:#3064BF;" points="252.446,445.229 247.165,447.155 257.838,465.428 263.541,465.043 						"/>
						<path style="fill:#FF9750;" d="M228.217,448.254l26.155,22.792c0,0,10.192,7.492,12.029,6.631l-4.957,0.791
							c0,0-10.898-1.656-33.87-27.468L228.217,448.254z"/>
						<polygon style="fill:#C3E5F4;" points="253.645,447.371 245.792,449.597 247.985,451.781 254.935,449.339 						"/>
						<polygon style="fill:#C3E5F4;" points="256.191,451.781 248.338,454.008 250.531,456.191 257.35,453.986 						"/>
						<polygon style="fill:#C3E5F4;" points="258.92,456.724 251.067,458.95 253.26,461.134 260.078,458.929 						"/>
					</g>
				</g>
				<g>
					<path style="fill:#FF9750;" d="M185.883,288.11l-18.943,53.319l40.367,9.886l14.686-33.136c0,0,6.841-0.548,9.624-2.471
						l18.7,35.607l37.895-10.71l-18.948-52.495H185.883z"/>
					<g>
						<path style="fill:#E5772E;" d="M217.333,317.581c7.534,2.765,22.101,0.235,25.351-8.31c0.273-0.717-0.565-1.532-1.275-1.275
							c-3.632,1.319-6.493,4.209-10.168,5.679c-4.367,1.746-9.033,2.059-13.686,2.259
							C216.584,315.975,216.452,317.258,217.333,317.581L217.333,317.581z"/>
					</g>
					<g>
						<path style="fill:#E5772E;" d="M259.842,290.997c0.2,1.587-0.172,3.025-0.201,4.583c-0.021,1.147,0.314,2.247,0.611,3.356
							c0.594,2.221,1.357,4.45,2.845,6.244c2.251,2.714,6.827,3.929,8.862,0.37c0.262-0.458-0.17-0.989-0.669-0.87
							c-3.595,0.858-6.302-1.407-7.699-4.52c-0.639-1.423-0.915-2.992-1.537-4.407c-0.736-1.673-1.808-2.884-2.108-4.77
							C259.936,290.925,259.835,290.938,259.842,290.997L259.842,290.997z"/>
					</g>
					<g>
						<path style="fill:#E5772E;" d="M180.748,310.047c8.414,2.419,12.418-10.807,11.708-16.891
							c-0.092-0.788-1.211-1.317-1.655-0.448c-2.339,4.578-2.822,17.063-9.934,16.467
							C180.356,309.132,180.279,309.913,180.748,310.047L180.748,310.047z"/>
					</g>
				</g>
				<g>
					
						<linearGradient id="SVGID_00000005977508389436636930000003564260565551683466_" gradientUnits="userSpaceOnUse" x1="182.1249" y1="364.6464" x2="200.2487" y2="298.1923">
						<stop  offset="0" style="stop-color:#B8626B"/>
						<stop  offset="1" style="stop-color:#934F56"/>
					</linearGradient>
					<polygon style="fill:url(#SVGID_00000005977508389436636930000003564260565551683466_);" points="174.515,343.284 
						152.596,440.012 170.759,449.348 199.704,349.453 					"/>
					<g>
						<path style="fill:#668EE6;" d="M152.596,440.012l18.162,9.337c0,0,7.552,19.501,14.865,22.796
							c7.314,3.295,3.492,9.886-4.758,10.435c-8.25,0.549-34.98-27.46-34.98-27.46L152.596,440.012z"/>
						<path style="fill:#3064BF;" d="M160.197,453.487c-0.999-3.542-2.833-9.165-5.86-12.581l-1.74-0.895l-6.71,15.107
							c0,0,7.005,7.337,14.949,14.428C161.925,464.279,161.614,458.509,160.197,453.487z"/>
						<polygon style="fill:#C3E5F4;" points="170.759,449.348 175.793,431.973 156.965,420.731 152.596,440.012 						"/>
						<polygon style="fill:#3064BF;" points="170.759,449.348 165.477,451.274 176.15,469.547 181.853,469.162 						"/>
						<path style="fill:#FF9750;" d="M146.529,452.373l26.155,22.792c0,0,10.192,7.492,12.029,6.631l-4.957,0.791
							c0,0-10.897-1.656-33.87-27.468L146.529,452.373z"/>
						<path style="fill:#FFFFFF;" d="M170.694,436.72"/>
						<polygon style="fill:#C3E5F4;" points="171.958,451.49 164.104,453.716 166.297,455.9 173.247,453.458 						"/>
						<polygon style="fill:#C3E5F4;" points="174.503,455.9 166.65,458.127 168.843,460.31 175.662,458.105 						"/>
						<polygon style="fill:#C3E5F4;" points="177.232,460.843 169.379,463.069 171.572,465.253 178.391,463.048 						"/>
					</g>
				</g>
			</g>
			<g>
				<g>
					<g>
						<g>
							<path style="fill:#B8626B;" d="M332.861,195.359c-3.975-0.763-7.831,0.499-10.391,3.022
								c-2.357-2.322-5.354-3.618-8.864-3.662c-5.438-0.067-5.932,7.336-1.225,9.049c1.629,0.593,3.121,1.56,4.362,2.767
								c1.398,1.359,2.5,3.295,4.139,4.378c1.617,2.727,4.451,4.811,7.941,5.481c6.216,1.193,12.158-2.549,13.273-8.358
								S339.077,196.552,332.861,195.359z"/>
							<g>
								
									<rect x="299.993" y="188.676" transform="matrix(-0.9821 -0.1885 0.1885 -0.9821 620.1248 447.7073)" style="fill:#668EE6;" width="62.712" height="11.387"/>
								<path style="fill:#8CB1F4;" d="M308.293,167.017c-3.639-0.698-7.155,1.685-7.853,5.324l-0.718,3.74
									c-0.56-0.957-1.499-1.685-2.673-1.91c-2.16-0.414-4.246,1-4.661,3.16l-3.23,16.829c-0.414,2.16,1,4.246,3.16,4.661h0
									c1.174,0.225,2.316-0.103,3.19-0.785l-0.51,2.66c-0.698,3.639,1.685,7.154,5.324,7.853c3.639,0.698,7.155-1.685,7.853-5.324
									l5.442-28.354C314.316,171.231,311.932,167.715,308.293,167.017z"/>
								<path style="fill:#8CB1F4;" d="M372.846,188.349c-1.182-0.227-2.332,0.108-3.208,0.799l0.653-3.402
									c0.698-3.639-1.685-7.155-5.324-7.853c-3.639-0.698-7.155,1.685-7.853,5.324l-5.442,28.354
									c-0.698,3.639,1.685,7.155,5.324,7.853c3.639,0.698,7.155-1.685,7.853-5.324l0.582-3.032
									c0.558,0.967,1.502,1.703,2.684,1.93c2.16,0.414,4.246-1,4.661-3.16l3.23-16.829
									C376.421,190.85,375.006,188.763,372.846,188.349z"/>
								<path style="fill:#C4707D;" d="M335.827,203.583l0.384,0.074c2.093,0.402,4.116-0.97,4.518-3.063l2.155-11.23
									c0.402-2.093-0.97-4.116-3.063-4.518l-0.384-0.074c-2.093-0.402-4.116,0.97-4.518,3.063l-2.155,11.23
									C332.363,201.159,333.734,203.181,335.827,203.583z"/>
								<path style="fill:#C4707D;" d="M341.398,204.839l1.167,0.224c1.877,0.36,3.691-0.869,4.051-2.747l1.598-8.328
									c0.36-1.877-0.869-3.691-2.746-4.051l-1.167-0.224c-1.877-0.36-3.691,0.869-4.051,2.747l-1.598,8.328
									C338.291,202.665,339.521,204.478,341.398,204.839z"/>
								<path style="fill:#C4707D;" d="M328.14,202.108l0.384,0.074c2.093,0.402,4.116-0.97,4.518-3.063l2.155-11.23
									c0.402-2.093-0.97-4.116-3.063-4.518l-0.384-0.074c-2.093-0.402-4.116,0.97-4.518,3.063l-2.155,11.23
									C324.675,199.683,326.046,201.706,328.14,202.108z"/>
								<path style="fill:#C4707D;" d="M320.175,200.579l0.384,0.074c2.093,0.402,4.116-0.97,4.518-3.063l2.155-11.23
									c0.402-2.093-0.97-4.116-3.063-4.518l-0.384-0.074c-2.093-0.402-4.116,0.97-4.518,3.063l-2.155,11.23
									C316.71,198.155,318.082,200.177,320.175,200.579z"/>
							</g>
							
								<linearGradient id="SVGID_00000090255344053648109330000014623896336024685477_" gradientUnits="userSpaceOnUse" x1="304.9468" y1="235.4936" x2="293.9626" y2="230.0015">
								<stop  offset="0" style="stop-color:#B8626B"/>
								<stop  offset="1" style="stop-color:#934F56"/>
							</linearGradient>
							<path style="fill:url(#SVGID_00000090255344053648109330000014623896336024685477_);" d="M288.212,233.192l20.286,19.482
								l13.181-46.118l16.187,4.928c0,0-2.457,51.351-20.581,62.747c-18.124,11.396-42.014-26.281-42.014-26.281"/>
						</g>
						
							<linearGradient id="SVGID_00000164492884427676601890000000109505661178781883_" gradientUnits="userSpaceOnUse" x1="250.3204" y1="226.341" x2="286.5704" y2="226.591">
							<stop  offset="0" style="stop-color:#4F699B"/>
							<stop  offset="0.7325" style="stop-color:#668EE6"/>
						</linearGradient>
						<path style="fill:url(#SVGID_00000164492884427676601890000000109505661178781883_);" d="M243.77,201.598
							c0,0,10.911-1.193,20.395,5.816s28.278,24.306,28.278,24.306l-17.173,19.582l-30.069-24.356L243.77,201.598z"/>
					</g>
					<g>
						
							<linearGradient id="SVGID_00000085230931667318563580000014938381803703733917_" gradientUnits="userSpaceOnUse" x1="204.8738" y1="222.2711" x2="173.6238" y2="185.2711">
							<stop  offset="0" style="stop-color:#4F699B"/>
							<stop  offset="0.7325" style="stop-color:#668EE6"/>
						</linearGradient>
						<path style="fill:url(#SVGID_00000085230931667318563580000014938381803703733917_);" d="M210.001,202.289l-24.118-30.183
							l-21.827,24.138c0,0,17.3,30.668,26.087,33.414C198.931,232.404,210.001,202.289,210.001,202.289z"/>
						<g>
							<g>
								
									<linearGradient id="SVGID_00000069395423797658178280000010547902697538565781_" gradientUnits="userSpaceOnUse" x1="165.5777" y1="149.4086" x2="183.4269" y2="184.8325">
									<stop  offset="0" style="stop-color:#B8626B"/>
									<stop  offset="1" style="stop-color:#934F56"/>
								</linearGradient>
								<path style="fill:url(#SVGID_00000069395423797658178280000010547902697538565781_);" d="M144.01,89.343
									c0,0.824-5.489,63.239,21.995,105.027l18.717-20.699c0,0-24.785-35.998-26.433-84.328H144.01z"/>
								<path style="fill:#B8626B;" d="M171.983,79.519c-3.588-0.609-6.864-0.123-9.77,1.815c-2.042-2.945-5.583-4.897-9.617-4.897
									c-6.329,0-11.46,4.795-11.46,10.71s5.131,10.71,11.46,10.71c3.615,0,6.833-1.568,8.934-4.011
									c1.497-0.705,2.65-1.939,4.151-2.97c1.962-1.347,3.956-2.084,6.302-2.471C176.39,87.677,176.373,80.264,171.983,79.519z"/>
							</g>
							<g>
								<rect x="122.912" y="70.056" style="fill:#668EE6;" width="62.712" height="11.387"/>
								<path style="fill:#8CB1F4;" d="M191.756,61.827c-1.194,0-2.252,0.536-2.982,1.368v-3.254c0-3.705-3.004-6.709-6.709-6.709
									c-3.705,0-6.709,3.004-6.709,6.709v28.872c0,3.705,3.004,6.709,6.709,6.709c3.705,0,6.709-3.004,6.709-6.709v-3.254
									c0.73,0.832,1.788,1.368,2.982,1.368c2.199,0,3.982-1.783,3.982-3.982V65.809C195.737,63.61,193.955,61.827,191.756,61.827z
									"/>
								<path style="fill:#8CB1F4;" d="M124.357,53.232c-3.705,0-6.709,3.004-6.709,6.709v3.254
									c-0.73-0.832-1.788-1.368-2.982-1.368c-2.199,0-3.982,1.783-3.982,3.982v17.136c0,2.199,1.783,3.982,3.982,3.982
									c1.194,0,2.252-0.536,2.982-1.368v3.254c0,3.705,3.004,6.709,6.709,6.709c3.705,0,6.709-3.004,6.709-6.709V59.941
									C131.066,56.236,128.062,53.232,124.357,53.232z"/>
								<g>
									<path style="fill:#C4707D;" d="M148.133,83.954h-0.391c-2.132,0-3.86-1.728-3.86-3.86V68.659c0-2.132,1.728-3.86,3.86-3.86
										h0.391c2.132,0,3.86,1.728,3.86,3.86v11.435C151.992,82.226,150.264,83.954,148.133,83.954z"/>
									<path style="fill:#C4707D;" d="M142.425,84.137h-1.189c-1.911,0-3.461-1.549-3.461-3.461v-8.48
										c0-1.911,1.549-3.461,3.461-3.461h1.189c1.911,0,3.461,1.549,3.461,3.461v8.48
										C145.886,82.587,144.337,84.137,142.425,84.137z"/>
									<path style="fill:#C4707D;" d="M155.961,83.954h-0.391c-2.132,0-3.86-1.728-3.86-3.86V68.659c0-2.132,1.728-3.86,3.86-3.86
										h0.391c2.132,0,3.86,1.728,3.86,3.86v11.435C159.82,82.226,158.092,83.954,155.961,83.954z"/>
									<path style="fill:#C4707D;" d="M164.071,83.954h-0.391c-2.132,0-3.86-1.728-3.86-3.86V68.659c0-2.132,1.728-3.86,3.86-3.86
										h0.391c2.132,0,3.86,1.728,3.86,3.86v11.435C167.93,82.226,166.202,83.954,164.071,83.954z"/>
								</g>
							</g>
						</g>
					</g>
					<path style="fill:#668EE6;" d="M269.264,288.11h-83.381l3.207-63.123c0.8-13.114,11.668-23.339,24.806-23.339h26.301
						c12.948,0,23.727,9.941,24.771,22.847L269.264,288.11z"/>
				</g>
				<g>
					<path style="fill:#B8626B;" d="M229.572,200.969l-14.434,0.774c0,0-2.382,8.858,6.741,12.005s18.639-1.526,18.639-1.526
						s3.884-2.462,3.252-10.624L229.572,200.969z"/>
					<g>
						
							<linearGradient id="SVGID_00000088116836879157206900000003135309077633490051_" gradientUnits="userSpaceOnUse" x1="228.961" y1="201.5017" x2="228.7551" y2="193.4695">
							<stop  offset="0" style="stop-color:#B8626B"/>
							<stop  offset="1" style="stop-color:#934F56"/>
						</linearGradient>
						
							<rect x="218.803" y="186.495" style="fill:url(#SVGID_00000088116836879157206900000003135309077633490051_);" width="20.061" height="20.061"/>
						<g>
							<path style="fill:#B8626B;" d="M252.662,141.008c-0.002,0-0.004,0.001-0.006,0.001
								c-0.126-13.111-10.741-21.802-23.823-19.437h0c-13.16,2.379-23.829,15.042-23.829,28.284v4.592
								c-0.777-0.113-1.604,0.926-2.465,1.081c-4.409,0.797-7.982,5.039-7.982,9.475s3.574,7.386,7.982,6.589
								c0.861-0.156,1.688-0.446,2.465-0.84v2.407c0,13.242,10.669,22.049,23.829,19.67h0c15.006-0.836,23.751-6.692,23.829-28.284
								v-7.475c4.409-0.797,7.982-5.039,7.982-9.475S257.071,140.212,252.662,141.008z"/>
							<path style="fill:#6F304B;" d="M249.73,130.885c0.222-0.431,0.439-0.853,0.65-1.254c2.089-3.976,3.585-9.506-1.227-12.322
								c-2.76-1.615-5.327-0.944-7.482,0.633c0.923-3.223,0.927-6.4-1.451-8.699c-4.502-4.353-8.993-0.439-11.775,3.67
								c-0.388-6.276-4.934-12.662-12.036-9.523c-6.601,2.917-9.838,13.18-11.415,19.61c-0.275,1.121-0.525,2.255-0.747,3.396
								c-2.19-1.282-5.44-0.823-6.663,1.641c-2.862,5.765-1.077,14.593,2.199,19.932c3.244,5.286,10.695,3.75,12.673-0.961
								c1.375,0.15,2.768-0.055,3.969-0.702c0.346-0.187,0.691-0.373,1.037-0.559c1.357-0.732,2.26-1.698,2.8-2.768
								c0.475,0.17,0.988,0.304,1.568,0.367c4.559,0.498,8.114-3.153,10.855-7.38c-0.004,0.099-0.009,0.191-0.013,0.293
								c-0.036,0.798,0.441,1.472,1.092,1.836c0.612,3.261,4.125,5.151,7.511,3.545c0.947-0.449,1.81-1.091,2.608-1.85
								c0.129,0.032,0.258,0.056,0.384,0.06c0.39,0.013,0.771-0.023,1.148-0.081c1.168,1.454,3.16,1.73,4.94,0.91
								c1.985-0.915,3.444-2.764,3.495-5.003C253.905,133.268,252.088,131.175,249.73,130.885z"/>
							<path style="fill:#C3E5F4;" d="M199.782,147.968c0,0,25.218-14.963,54.069-16.617v9.48l-52.253,14.929L199.782,147.968z"/>
							<g>
								<g>
									<path style="fill:#6F304B;" d="M216.614,154.351c0.555-0.988,0.613-2.005,1.789-2.534c1.242-0.559,1.891,0.503,2.863,0.986
										c0.924,0.459,1.815-0.293,1.65-1.268c-0.38-2.244-3.748-2.784-5.47-1.987c-1.578,0.729-3.144,3.376-1.723,4.918
										C215.969,154.732,216.441,154.66,216.614,154.351L216.614,154.351z"/>
								</g>
								<g>
									<path style="fill:#6F304B;" d="M232.957,150.785c0.555-0.988,0.613-2.005,1.789-2.534c1.242-0.559,1.891,0.503,2.863,0.986
										c0.924,0.459,1.815-0.293,1.65-1.268c-0.38-2.244-3.748-2.784-5.47-1.987c-1.578,0.729-3.144,3.376-1.723,4.918
										C232.312,151.167,232.783,151.095,232.957,150.785L232.957,150.785z"/>
								</g>
								<g>
									<path style="fill:#6F304B;" d="M222.828,173.462c2.198,3.148,6.598,3.916,10.134,2.824c2.927-0.904,7.075-3.96,6.794-7.384
										c-0.038-0.462-0.569-0.725-0.927-0.384c-2.197,2.093-2.921,4.601-6.065,5.821c-3.44,1.336-6.553,0.187-9.797-1.059
										C222.869,173.243,222.768,173.377,222.828,173.462L222.828,173.462z"/>
								</g>
								<g>
									<path style="fill:#6F304B;" d="M236.692,167.249c0.961,0.898,2.22,1.301,3.11,2.311c0.953,1.081,1.2,2.392,1.934,3.564
										c0.121,0.194,0.466,0.239,0.575,0c1.221-2.674-2.589-7.378-5.478-6.411C236.614,166.786,236.507,167.075,236.692,167.249
										L236.692,167.249z"/>
								</g>
								<g>
									<path style="fill:#6F304B;" d="M224.778,170.805c-1.9,1.274-3.615,4.379-2.632,6.656c0.173,0.4,0.712,0.212,0.834-0.109
										c0.376-0.989,0.35-2.083,0.701-3.091c0.378-1.085,0.934-2.046,1.535-3.018C225.38,170.979,225.047,170.624,224.778,170.805
										L224.778,170.805z"/>
								</g>
								<g>
									<path style="fill:#6F304B;" d="M230.028,167.349c1.222-0.845,2.09-1.926,2.297-3.416c0.18-1.292-0.035-3.007-1.27-3.718
										c-0.252-0.145-0.604,0.037-0.594,0.341c0.033,1,0.432,1.917,0.382,2.934c-0.058,1.179-0.403,2.495-1.174,3.394
										C229.465,167.122,229.733,167.553,230.028,167.349L230.028,167.349z"/>
								</g>
								<g>
									<path style="fill:#6F304B;" d="M196.942,159.345c1.478,0.378,2.867,0.165,4.221,1.068c1.423,0.951,1.813,2.327,2.555,3.757
										c0.205,0.394,0.812,0.283,0.924-0.121c0.537-1.929-1.045-3.835-2.56-4.847c-1.4-0.936-3.897-1.782-5.287-0.414
										C196.618,158.962,196.699,159.283,196.942,159.345L196.942,159.345z"/>
								</g>
								<g>
									<path style="fill:#6F304B;" d="M201.865,159.382c-2.028-0.142-3.052,2.58-2.991,4.242c0.066,1.779,1.359,4.281,3.416,4.117
										c0.277-0.022,0.492-0.311,0.33-0.575c-0.785-1.284-2.057-2.089-2.075-3.758c-0.016-1.513,1.093-2.399,1.557-3.713
										C202.16,159.533,202.013,159.393,201.865,159.382L201.865,159.382z"/>
								</g>
								<g>
									<path style="fill:#6F304B;" d="M251.248,152.946c0.682-2.128,0.944-4.471,2.029-6.456c1.219-2.228,2.998-2.703,4.913-4.069
										c0.254-0.181,0.218-0.55-0.085-0.654c-2.119-0.724-4.257,1.307-5.375,2.924c-1.63,2.358-2.169,5.361-2.087,8.173
										C250.652,153.215,251.141,153.279,251.248,152.946L251.248,152.946z"/>
								</g>
								<g>
									<path style="fill:#6F304B;" d="M252.379,149.11c0.59,0.389,1.284,0.985,1.718,1.549c0.485,0.631,0.597,1.465,1.167,2.032
										c0.209,0.208,0.613,0.182,0.756-0.097c0.5-0.984-0.138-2.058-0.768-2.825c-0.334-0.408-0.747-0.81-1.206-1.078
										c-0.483-0.281-0.933-0.297-1.461-0.339C252.154,148.317,252.068,148.905,252.379,149.11L252.379,149.11z"/>
								</g>
								<ellipse style="fill:#6F304B;" cx="220.926" cy="158.605" rx="2.037" ry="3.345"/>
								<ellipse style="fill:#6F304B;" cx="236.798" cy="155.26" rx="2.037" ry="3.345"/>
							</g>
						</g>
					</g>
				</g>
			</g>
			<g>
				<g>
					<g>
						<path style="fill:#8CB1F4;" d="M246.286,97.986c1.031-2.508,1.659-5.001,2.394-7.607c0.656-2.325,1.658-4.99,1.416-7.415
							c-0.177-1.774-2.423-3.177-3.841-1.591c-3.43,3.835-4.247,11.142-3.836,16.089C242.609,99.758,245.444,100.034,246.286,97.986
							L246.286,97.986z"/>
					</g>
					<g>
						<path style="fill:#8CB1F4;" d="M258.704,108.846c3.852-2.186,7.603-4.531,11.22-7.09c3.02-2.136,7.355-4.61,8.111-8.499
							c0.306-1.572-0.742-3.715-2.667-3.501c-3.888,0.433-6.435,3.553-9.216,6.08c-3.249,2.953-6.653,5.716-10.192,8.314
							C253.2,106.177,255.588,110.614,258.704,108.846L258.704,108.846z"/>
					</g>
					<g>
						<path style="fill:#8CB1F4;" d="M266.295,122.733c3.592-0.036,7.178,0.013,10.767,0.174c3.342,0.149,6.834,0.544,10.073-0.397
							c3.124-0.908,2.833-5.03,0-6.057c-6.343-2.299-15.086-0.212-21.6,0.664C262.302,117.551,263.142,122.765,266.295,122.733
							L266.295,122.733z"/>
					</g>
					<g>
						<path style="fill:#8CB1F4;" d="M274.166,136.252c2.877,0.832,5.798,1.398,8.78,1.687c2.548,0.247,5.13,0.608,6.772-1.658
							c0.449-0.619,0.185-1.468-0.257-1.988c-1.52-1.791-3.898-1.347-6.03-1.443c-2.713-0.122-5.36-0.561-7.994-1.209
							C272.449,130.906,271.205,135.395,274.166,136.252L274.166,136.252z"/>
					</g>
				</g>
				<g>
					<g>
						<path style="fill:#668EE6;" d="M89.229,68.513c2.85,0.599,5.695,1.222,8.561,1.739c4.13,0.745,4.975-5.442,0.768-5.678
							c-2.916-0.163-5.837-0.217-8.757-0.297C87.41,64.213,86.821,68.007,89.229,68.513L89.229,68.513z"/>
					</g>
					<g>
						<path style="fill:#668EE6;" d="M100.309,29.115c3.02,5.208,5.679,12.295,10.594,15.961c2.436,1.817,6.141-1.206,5.164-3.97
							c-1.02-2.888-3.391-5.455-5.458-7.703c-2.196-2.388-4.492-4.686-6.693-7.071C102.13,24.395,99.013,26.88,100.309,29.115
							L100.309,29.115z"/>
					</g>
					<g>
						<path style="fill:#668EE6;" d="M143.768,22.428c-1.44,4.745-2.307,9.578-3.906,14.31c-1.497,4.432,5.73,7.608,7.664,3.231
							c2.34-5.295,3.739-11.858,2.054-17.541C148.728,19.552,144.634,19.575,143.768,22.428L143.768,22.428z"/>
					</g>
				</g>
			</g>
		</g>
	</g>
</g>
</svg>
