<?xml version="1.0" encoding="utf-8"?>
<!-- Generator: Adobe Illustrator 27.5.0, SVG Export Plug-In . SVG Version: 6.00 Build 0)  -->
<svg version="1.1" xmlns="http://www.w3.org/2000/svg" xmlns:xlink="http://www.w3.org/1999/xlink" x="0px" y="0px"
	 viewBox="0 0 500 500" style="enable-background:new 0 0 500 500;" xml:space="preserve">
<g id="Floor">
	<ellipse id="Floor_9_" style="fill:#F0F0F0;" cx="251.223" cy="365.224" rx="218.934" ry="106.703"/>
</g>
<g id="Shadows">
	<ellipse id="Shadow_16_" style="fill:#E0E0E0;" cx="144.072" cy="373.245" rx="82.256" ry="47.49"/>
	<ellipse id="Shadow_17_" style="fill:#E0E0E0;" cx="366.099" cy="373.245" rx="82.256" ry="47.49"/>
</g>
<g id="Plants">
	<g id="Plants_1_">
		<g id="XMLID_163_">
			<g id="XMLID_166_">
				<path id="XMLID_168_" style="fill:#27DEBF;" d="M407.232,367.359c-0.715-8.142,2-38.557,9.52-49.87
					c7.52-11.314,19.416-23.502,29.135-21.103c9.052,2.235,9.113,13.847-0.879,22.424c-9.992,8.576-25.176,19.581-28.705,33.2
					l-8.806,23.024L407.232,367.359z"/>
				<path id="XMLID_167_" style="opacity:0.1;" d="M407.232,367.359c-0.715-8.142,2-38.557,9.52-49.87
					c7.52-11.314,19.416-23.502,29.135-21.103c9.052,2.235,9.113,13.847-0.879,22.424c-9.992,8.576-25.176,19.581-28.705,33.2
					l-8.806,23.024L407.232,367.359z"/>
			</g>
			<g id="XMLID_164_">
				<path id="XMLID_165_" style="fill:#FFFFFF;" d="M407.091,363.689c0.258-0.044,0.465-0.254,0.494-0.526
					c3.011-28.271,23.51-52.836,36.529-59.009c0.297-0.141,0.425-0.498,0.284-0.796c-0.14-0.297-0.49-0.431-0.795-0.284
					c-13.266,6.29-34.148,31.262-37.204,59.962c-0.035,0.327,0.202,0.621,0.53,0.656C406.984,363.7,407.039,363.698,407.091,363.689
					z"/>
			</g>
		</g>
		<g id="XMLID_158_">
			<g id="XMLID_161_">
				<path id="XMLID_162_" style="fill:#27DEBF;" d="M410.916,379.652c0.906-4.691,4.68-12.662,12.626-20.308
					c9.73-9.363,25.263-13.929,27.709-19.557c2.938-6.76-2.595-11.807-12.663-9.231c-13.537,3.464-29.318,19.213-30.352,40.571
					L410.916,379.652z"/>
			</g>
			<g id="XMLID_159_">
				<path id="XMLID_160_" style="fill:#FFFFFF;" d="M408.506,375.024c0.224-0.038,0.416-0.203,0.478-0.438
					c6.432-24.558,27.256-36.791,35.574-38.622c0.322-0.07,0.525-0.39,0.455-0.712c-0.071-0.323-0.377-0.528-0.712-0.455
					c-9.198,2.025-29.907,14.419-36.473,39.486c-0.083,0.318,0.108,0.646,0.427,0.729
					C408.339,375.035,408.425,375.037,408.506,375.024z"/>
			</g>
		</g>
	</g>
	<g id="Plants_3_">
		<g id="XMLID_142_">
			<g id="XMLID_145_">
				<path id="XMLID_146_" style="fill:#37474F;" d="M105.42,349.027c0.715-8.142-4.133-25.847-11.653-37.16
					c-7.52-11.313-18.12-23.761-27.84-21.362c-9.052,2.235-9.113,13.847,0.879,22.424c9.992,8.576,25.176,19.581,28.705,33.2
					l8.806,23.024L105.42,349.027z"/>
			</g>
			<g id="XMLID_143_">
				<path id="XMLID_144_" style="fill:#FFFFFF;" d="M104.723,357.809c-0.258-0.044-0.465-0.254-0.494-0.525
					c-3.011-28.271-23.51-52.836-36.529-59.009c-0.298-0.141-0.425-0.498-0.284-0.795c0.14-0.297,0.49-0.431,0.796-0.284
					c13.266,6.29,34.148,31.262,37.204,59.962c0.036,0.327-0.202,0.621-0.53,0.656C104.83,357.82,104.776,357.818,104.723,357.809z"
					/>
			</g>
		</g>
		<g id="XMLID_137_">
			<g id="XMLID_140_">
				<path id="XMLID_141_" style="fill:#455A64;" d="M100.899,373.772c-0.906-4.691-4.68-12.661-12.626-20.307
					c-9.73-9.363-25.263-13.929-27.709-19.557c-2.938-6.76,2.595-11.807,12.663-9.231c13.537,3.464,29.318,19.213,30.352,40.571
					L100.899,373.772z"/>
			</g>
			<g id="XMLID_138_">
				<path id="XMLID_139_" style="fill:#FFFFFF;" d="M103.309,369.144c-0.224-0.038-0.416-0.203-0.478-0.438
					c-6.432-24.558-27.256-36.791-35.574-38.622c-0.322-0.07-0.525-0.39-0.455-0.712c0.071-0.323,0.377-0.528,0.712-0.455
					c9.198,2.025,29.907,14.42,36.473,39.486c0.084,0.318-0.108,0.646-0.427,0.729C103.475,369.155,103.39,369.158,103.309,369.144z
					"/>
			</g>
		</g>
	</g>
</g>
<g id="Gears">
	<g id="Gears_4_">
		<g id="XMLID_17_">
			<path id="XMLID_28_" style="fill:#27DEBF;" d="M105.329,75.131v0.004c-0.113-0.069-0.266-0.065-0.424,0.036l-0.876,0.577
				l-0.194,0.524c-0.117,0.315,0.008,0.73,0.238,0.972c0.141,0.149,0.274,0.311,0.399,0.488c0.194,0.27,0.541,0.367,0.819,0.182
				l2.042-1.344c0.153-0.097,0.303-0.109,0.416-0.044L105.329,75.131z M102.186,82.627c-0.286-1.654-1.339-2.481-2.707-2.368
				c0.121,0.274,0.218,0.597,0.282,0.968c0.452,2.622-1.21,6.342-3.708,8.307c-0.92,0.722-1.824,1.105-2.618,1.17
				c0.819,1.759,2.893,1.924,5.047,0.23C100.98,88.969,102.638,85.249,102.186,82.627z M102.231,71.419v0.004
				c-0.048-0.028-0.101-0.052-0.161-0.065l-1.537-0.347c-0.327-0.073-0.718,0.109-0.872,0.403l-1.448,2.76
				c-0.069,0.133-0.186,0.254-0.323,0.367h-0.004c-0.077,0.065-0.157,0.121-0.246,0.165l0.452,1.505
				c0.097,0.319,0.42,0.456,0.726,0.331c0.323-0.129,0.641-0.234,0.948-0.311c0.182-0.048,0.379-0.153,0.549-0.286
				c0.137-0.109,0.258-0.238,0.327-0.371l1.444-2.76c0.157-0.295,0.549-0.476,0.872-0.403l1.541,0.347
				c0.056,0.012,0.109,0.032,0.153,0.056L102.231,71.419z M97.897,98.116c-0.065-0.052-0.117-0.129-0.145-0.234l-0.52-1.727
				c-0.093-0.319-0.416-0.46-0.726-0.331c-0.319,0.129-0.637,0.234-0.948,0.311c-0.097,0.024-0.198,0.069-0.299,0.125l0.069,0.222
				c0.04,0.129,0.109,0.218,0.198,0.266v0.004L97.897,98.116z M94.948,72.815c-0.052-0.028-0.109-0.044-0.169-0.044
				c-0.093,0-0.19,0.032-0.282,0.109l-2.308,1.812c-0.032,0.024-0.061,0.052-0.089,0.085c-0.024,0.02-0.04,0.044-0.061,0.069
				c-0.081,0.105-0.149,0.23-0.202,0.363c-0.008,0.028-0.02,0.061-0.028,0.089h0.004c-0.04,0.129-0.069,0.258-0.061,0.371
				l0.137,2.195c0.02,0.335-0.145,0.807-0.359,1.061c-0.379,0.452-0.734,0.928-1.069,1.416c-0.113,0.165-0.303,0.307-0.508,0.391
				c-0.069,0.028-0.133,0.048-0.202,0.061c-0.032,0.008-0.065,0.016-0.097,0.016c-0.044,0.008-0.089,0.012-0.133,0.008l-1.481-0.073
				h-0.036c-0.04,0-0.081,0.004-0.121,0.012c-0.036,0.004-0.073,0.012-0.109,0.024c-0.004,0-0.008,0-0.012,0.004
				c-0.04,0.012-0.081,0.028-0.121,0.048c-0.077,0.036-0.149,0.081-0.214,0.133c-0.101,0.085-0.186,0.19-0.238,0.303l-1.392,3.123
				c-0.125,0.278-0.02,0.593,0.234,0.751l1.646,0.948c0.052,0.137,0.069,0.286,0.036,0.428c-0.113,0.5-0.202,1.001-0.258,1.489
				c-0.036,0.331-0.25,0.787-0.496,1.013l-0.024,0.02l-2.021,1.856c-0.036,0.032-0.069,0.069-0.097,0.109
				c-0.004,0.008-0.008,0.012-0.012,0.02c-0.032,0.04-0.061,0.085-0.081,0.133c-0.129,0.226-0.194,0.516-0.153,0.746l0.387,2.227
				c0.024,0.141,0.089,0.242,0.178,0.303l2.417,1.392c-0.085-0.057-0.145-0.157-0.169-0.295L87,93.302
				c-0.024-0.129-0.012-0.282,0.024-0.428c0.057-0.226,0.169-0.444,0.319-0.581l2.017-1.856l0.024-0.02
				c0.246-0.226,0.46-0.682,0.5-1.013c0.056-0.488,0.141-0.989,0.258-1.489c0.073-0.327-0.105-0.694-0.412-0.827l-1.198-0.508
				c-0.307-0.133-0.448-0.488-0.311-0.791l1.392-3.123c0.052-0.113,0.133-0.218,0.238-0.303c0.173-0.141,0.403-0.234,0.613-0.222
				l1.485,0.073c0.137,0.008,0.286-0.024,0.428-0.085c0.206-0.085,0.395-0.226,0.508-0.391c0.335-0.488,0.694-0.964,1.069-1.416
				c0.218-0.254,0.379-0.726,0.359-1.061l-0.137-2.191c-0.008-0.117,0.012-0.25,0.056-0.379c0.073-0.238,0.214-0.468,0.383-0.601
				l2.304-1.812c0.157-0.125,0.327-0.141,0.456-0.065L94.948,72.815z M91.491,96.094c0.113-0.315-0.012-0.73-0.242-0.972
				c-0.141-0.149-0.274-0.311-0.395-0.488c-0.194-0.274-0.541-0.367-0.819-0.186l-1.166,0.767l-0.847,2.292
				c-0.093,0.25,0,0.5,0.206,0.625l-0.004,0.004l2.433,1.404c-0.21-0.129-0.299-0.379-0.206-0.629L91.491,96.094z"/>
			<path id="XMLID_27_" style="opacity:0.7;fill:#FFFFFF;" d="M105.329,75.131v0.004c-0.113-0.069-0.266-0.065-0.424,0.036
				l-0.876,0.577l-0.194,0.524c-0.117,0.315,0.008,0.73,0.238,0.972c0.141,0.149,0.274,0.311,0.399,0.488
				c0.194,0.27,0.541,0.367,0.819,0.182l2.042-1.344c0.153-0.097,0.303-0.109,0.416-0.044L105.329,75.131z M102.186,82.627
				c-0.286-1.654-1.339-2.481-2.707-2.368c0.121,0.274,0.218,0.597,0.282,0.968c0.452,2.622-1.21,6.342-3.708,8.307
				c-0.92,0.722-1.824,1.105-2.618,1.17c0.819,1.759,2.893,1.924,5.047,0.23C100.98,88.969,102.638,85.249,102.186,82.627z
				 M102.231,71.419v0.004c-0.048-0.028-0.101-0.052-0.161-0.065l-1.537-0.347c-0.327-0.073-0.718,0.109-0.872,0.403l-1.448,2.76
				c-0.069,0.133-0.186,0.254-0.323,0.367h-0.004c-0.077,0.065-0.157,0.121-0.246,0.165l0.452,1.505
				c0.097,0.319,0.42,0.456,0.726,0.331c0.323-0.129,0.641-0.234,0.948-0.311c0.182-0.048,0.379-0.153,0.549-0.286
				c0.137-0.109,0.258-0.238,0.327-0.371l1.444-2.76c0.157-0.295,0.549-0.476,0.872-0.403l1.541,0.347
				c0.056,0.012,0.109,0.032,0.153,0.056L102.231,71.419z M97.897,98.116c-0.065-0.052-0.117-0.129-0.145-0.234l-0.52-1.727
				c-0.093-0.319-0.416-0.46-0.726-0.331c-0.319,0.129-0.637,0.234-0.948,0.311c-0.097,0.024-0.198,0.069-0.299,0.125l0.069,0.222
				c0.04,0.129,0.109,0.218,0.198,0.266v0.004L97.897,98.116z M94.948,72.815c-0.052-0.028-0.109-0.044-0.169-0.044
				c-0.093,0-0.19,0.032-0.282,0.109l-2.308,1.812c-0.032,0.024-0.061,0.052-0.089,0.085c-0.024,0.02-0.04,0.044-0.061,0.069
				c-0.081,0.105-0.149,0.23-0.202,0.363c-0.008,0.028-0.02,0.061-0.028,0.089h0.004c-0.04,0.129-0.069,0.258-0.061,0.371
				l0.137,2.195c0.02,0.335-0.145,0.807-0.359,1.061c-0.379,0.452-0.734,0.928-1.069,1.416c-0.113,0.165-0.303,0.307-0.508,0.391
				c-0.069,0.028-0.133,0.048-0.202,0.061c-0.032,0.008-0.065,0.016-0.097,0.016c-0.044,0.008-0.089,0.012-0.133,0.008l-1.481-0.073
				h-0.036c-0.04,0-0.081,0.004-0.121,0.012c-0.036,0.004-0.073,0.012-0.109,0.024c-0.004,0-0.008,0-0.012,0.004
				c-0.04,0.012-0.081,0.028-0.121,0.048c-0.077,0.036-0.149,0.081-0.214,0.133c-0.101,0.085-0.186,0.19-0.238,0.303l-1.392,3.123
				c-0.125,0.278-0.02,0.593,0.234,0.751l1.646,0.948c0.052,0.137,0.069,0.286,0.036,0.428c-0.113,0.5-0.202,1.001-0.258,1.489
				c-0.036,0.331-0.25,0.787-0.496,1.013l-0.024,0.02l-2.021,1.856c-0.036,0.032-0.069,0.069-0.097,0.109
				c-0.004,0.008-0.008,0.012-0.012,0.02c-0.032,0.04-0.061,0.085-0.081,0.133c-0.129,0.226-0.194,0.516-0.153,0.746l0.387,2.227
				c0.024,0.141,0.089,0.242,0.178,0.303l2.417,1.392c-0.085-0.057-0.145-0.157-0.169-0.295L87,93.302
				c-0.024-0.129-0.012-0.282,0.024-0.428c0.057-0.226,0.169-0.444,0.319-0.581l2.017-1.856l0.024-0.02
				c0.246-0.226,0.46-0.682,0.5-1.013c0.056-0.488,0.141-0.989,0.258-1.489c0.073-0.327-0.105-0.694-0.412-0.827l-1.198-0.508
				c-0.307-0.133-0.448-0.488-0.311-0.791l1.392-3.123c0.052-0.113,0.133-0.218,0.238-0.303c0.173-0.141,0.403-0.234,0.613-0.222
				l1.485,0.073c0.137,0.008,0.286-0.024,0.428-0.085c0.206-0.085,0.395-0.226,0.508-0.391c0.335-0.488,0.694-0.964,1.069-1.416
				c0.218-0.254,0.379-0.726,0.359-1.061l-0.137-2.191c-0.008-0.117,0.012-0.25,0.056-0.379c0.073-0.238,0.214-0.468,0.383-0.601
				l2.304-1.812c0.157-0.125,0.327-0.141,0.456-0.065L94.948,72.815z M91.491,96.094c0.113-0.315-0.012-0.73-0.242-0.972
				c-0.141-0.149-0.274-0.311-0.395-0.488c-0.194-0.274-0.541-0.367-0.819-0.186l-1.166,0.767l-0.847,2.292
				c-0.093,0.25,0,0.5,0.206,0.625l-0.004,0.004l2.433,1.404c-0.21-0.129-0.299-0.379-0.206-0.629L91.491,96.094z"/>
			<path id="XMLID_26_" style="opacity:0.05;" d="M105.329,75.131v0.004c-0.113-0.069-0.266-0.065-0.424,0.036l-0.876,0.577
				l-0.194,0.524c-0.117,0.315,0.008,0.73,0.238,0.972c0.141,0.149,0.274,0.311,0.399,0.488c0.194,0.27,0.541,0.367,0.819,0.182
				l2.042-1.344c0.153-0.097,0.303-0.109,0.416-0.044L105.329,75.131z M102.186,82.627c-0.286-1.654-1.339-2.481-2.707-2.368
				c0.121,0.274,0.218,0.597,0.282,0.968c0.452,2.622-1.21,6.342-3.708,8.307c-0.92,0.722-1.824,1.105-2.618,1.17
				c0.819,1.759,2.893,1.924,5.047,0.23C100.98,88.969,102.638,85.249,102.186,82.627z M102.231,71.419v0.004
				c-0.048-0.028-0.101-0.052-0.161-0.065l-1.537-0.347c-0.327-0.073-0.718,0.109-0.872,0.403l-1.448,2.76
				c-0.069,0.133-0.186,0.254-0.323,0.367h-0.004c-0.077,0.065-0.157,0.121-0.246,0.165l0.452,1.505
				c0.097,0.319,0.42,0.456,0.726,0.331c0.323-0.129,0.641-0.234,0.948-0.311c0.182-0.048,0.379-0.153,0.549-0.286
				c0.137-0.109,0.258-0.238,0.327-0.371l1.444-2.76c0.157-0.295,0.549-0.476,0.872-0.403l1.541,0.347
				c0.056,0.012,0.109,0.032,0.153,0.056L102.231,71.419z M97.897,98.116c-0.065-0.052-0.117-0.129-0.145-0.234l-0.52-1.727
				c-0.093-0.319-0.416-0.46-0.726-0.331c-0.319,0.129-0.637,0.234-0.948,0.311c-0.097,0.024-0.198,0.069-0.299,0.125l0.069,0.222
				c0.04,0.129,0.109,0.218,0.198,0.266v0.004L97.897,98.116z M94.948,72.815c-0.052-0.028-0.109-0.044-0.169-0.044
				c-0.093,0-0.19,0.032-0.282,0.109l-2.308,1.812c-0.032,0.024-0.061,0.052-0.089,0.085c-0.024,0.02-0.04,0.044-0.061,0.069
				c-0.081,0.105-0.149,0.23-0.202,0.363c-0.008,0.028-0.02,0.061-0.028,0.089h0.004c-0.04,0.129-0.069,0.258-0.061,0.371
				l0.137,2.195c0.02,0.335-0.145,0.807-0.359,1.061c-0.379,0.452-0.734,0.928-1.069,1.416c-0.113,0.165-0.303,0.307-0.508,0.391
				c-0.069,0.028-0.133,0.048-0.202,0.061c-0.032,0.008-0.065,0.016-0.097,0.016c-0.044,0.008-0.089,0.012-0.133,0.008l-1.481-0.073
				h-0.036c-0.04,0-0.081,0.004-0.121,0.012c-0.036,0.004-0.073,0.012-0.109,0.024c-0.004,0-0.008,0-0.012,0.004
				c-0.04,0.012-0.081,0.028-0.121,0.048c-0.077,0.036-0.149,0.081-0.214,0.133c-0.101,0.085-0.186,0.19-0.238,0.303l-1.392,3.123
				c-0.125,0.278-0.02,0.593,0.234,0.751l1.646,0.948c0.052,0.137,0.069,0.286,0.036,0.428c-0.113,0.5-0.202,1.001-0.258,1.489
				c-0.036,0.331-0.25,0.787-0.496,1.013l-0.024,0.02l-2.021,1.856c-0.036,0.032-0.069,0.069-0.097,0.109
				c-0.004,0.008-0.008,0.012-0.012,0.02c-0.032,0.04-0.061,0.085-0.081,0.133c-0.129,0.226-0.194,0.516-0.153,0.746l0.387,2.227
				c0.024,0.141,0.089,0.242,0.178,0.303l2.417,1.392c-0.085-0.057-0.145-0.157-0.169-0.295L87,93.302
				c-0.024-0.129-0.012-0.282,0.024-0.428c0.057-0.226,0.169-0.444,0.319-0.581l2.017-1.856l0.024-0.02
				c0.246-0.226,0.46-0.682,0.5-1.013c0.056-0.488,0.141-0.989,0.258-1.489c0.073-0.327-0.105-0.694-0.412-0.827l-1.198-0.508
				c-0.307-0.133-0.448-0.488-0.311-0.791l1.392-3.123c0.052-0.113,0.133-0.218,0.238-0.303c0.173-0.141,0.403-0.234,0.613-0.222
				l1.485,0.073c0.137,0.008,0.286-0.024,0.428-0.085c0.206-0.085,0.395-0.226,0.508-0.391c0.335-0.488,0.694-0.964,1.069-1.416
				c0.218-0.254,0.379-0.726,0.359-1.061l-0.137-2.191c-0.008-0.117,0.012-0.25,0.056-0.379c0.073-0.238,0.214-0.468,0.383-0.601
				l2.304-1.812c0.157-0.125,0.327-0.141,0.456-0.065L94.948,72.815z M91.491,96.094c0.113-0.315-0.012-0.73-0.242-0.972
				c-0.141-0.149-0.274-0.311-0.395-0.488c-0.194-0.274-0.541-0.367-0.819-0.186l-1.166,0.767l-0.847,2.292
				c-0.093,0.25,0,0.5,0.206,0.625l-0.004,0.004l2.433,1.404c-0.21-0.129-0.299-0.379-0.206-0.629L91.491,96.094z"/>
			<path style="fill:#27DEBF;" d="M89.36,90.438l-2.017,1.856c-0.149,0.137-0.262,0.355-0.319,0.581l-2.421-1.396
				c0.028-0.113,0.069-0.222,0.121-0.323c0.02-0.048,0.048-0.093,0.081-0.133c0.004-0.008,0.008-0.012,0.012-0.02
				c0.028-0.04,0.061-0.077,0.097-0.109l2.021-1.856L89.36,90.438z"/>
			<path style="fill:#27DEBF;" d="M92.378,82.131c-0.141,0.061-0.291,0.093-0.428,0.085l-1.485-0.073
				c-0.21-0.012-0.44,0.081-0.613,0.222l-2.425-1.4c0.065-0.052,0.137-0.097,0.214-0.133c0.04-0.02,0.081-0.036,0.121-0.048
				c0.004-0.004,0.008-0.004,0.012-0.004c0.036-0.012,0.073-0.02,0.109-0.024c0.04-0.008,0.081-0.012,0.121-0.012h0.036l1.481,0.073
				c0.044,0.004,0.089,0,0.133-0.008c0.032-0.004,0.065-0.008,0.097-0.016c0.065-0.016,0.129-0.04,0.194-0.065l0.008,0.004
				L92.378,82.131z"/>
			<path id="XMLID_25_" style="fill:#27DEBF;" d="M107.75,76.524c-0.113-0.065-0.262-0.052-0.416,0.048l-2.042,1.343
				c-0.278,0.181-0.625,0.089-0.819-0.186c-0.125-0.178-0.254-0.339-0.399-0.488c-0.23-0.242-0.355-0.658-0.238-0.972l0.194-0.52
				l0.875-0.577c0.157-0.101,0.311-0.109,0.424-0.04v-0.004L107.75,76.524z"/>
			<path style="fill:#27DEBF;" d="M104.651,72.815c-0.044-0.024-0.097-0.044-0.153-0.056l-1.541-0.347
				c-0.323-0.073-0.714,0.109-0.872,0.403l-1.444,2.76c-0.069,0.133-0.19,0.262-0.327,0.371l-2.425-1.404
				c0.137-0.113,0.254-0.234,0.323-0.367l1.448-2.76c0.153-0.294,0.545-0.476,0.872-0.403l1.537,0.347
				c0.06,0.012,0.113,0.036,0.161,0.065v-0.004L104.651,72.815z"/>
			<path style="fill:#27DEBF;" d="M97.377,74.215c-0.129-0.077-0.299-0.061-0.456,0.065l-2.304,1.812
				c-0.169,0.133-0.311,0.363-0.383,0.601l-2.425-1.396c0.008-0.028,0.02-0.061,0.028-0.089c0.052-0.133,0.121-0.258,0.202-0.363
				c0.02-0.024,0.036-0.048,0.061-0.069c0.028-0.032,0.056-0.061,0.089-0.085l2.308-1.812c0.093-0.077,0.19-0.109,0.282-0.109
				c0.06,0,0.117,0.016,0.169,0.044L97.377,74.215z"/>
			<path style="opacity:0.9;fill:#FFFFFF;" d="M89.36,90.438l-2.017,1.856c-0.149,0.137-0.262,0.355-0.319,0.581l-2.421-1.396
				c0.028-0.113,0.069-0.222,0.121-0.323c0.02-0.048,0.048-0.093,0.081-0.133c0.004-0.008,0.008-0.012,0.012-0.02
				c0.028-0.04,0.061-0.077,0.097-0.109l2.021-1.856L89.36,90.438z"/>
			<path style="opacity:0.9;fill:#FFFFFF;" d="M92.378,82.131c-0.141,0.061-0.291,0.093-0.428,0.085l-1.485-0.073
				c-0.21-0.012-0.44,0.081-0.613,0.222l-2.425-1.4c0.065-0.052,0.137-0.097,0.214-0.133c0.04-0.02,0.081-0.036,0.121-0.048
				c0.004-0.004,0.008-0.004,0.012-0.004c0.036-0.012,0.073-0.02,0.109-0.024c0.04-0.008,0.081-0.012,0.121-0.012h0.036l1.481,0.073
				c0.044,0.004,0.089,0,0.133-0.008c0.032-0.004,0.065-0.008,0.097-0.016c0.065-0.016,0.129-0.04,0.194-0.065l0.008,0.004
				L92.378,82.131z"/>
			<path id="XMLID_24_" style="opacity:0.9;fill:#FFFFFF;" d="M107.75,76.524c-0.113-0.065-0.262-0.052-0.416,0.048l-2.042,1.343
				c-0.278,0.181-0.625,0.089-0.819-0.186c-0.125-0.178-0.254-0.339-0.399-0.488c-0.23-0.242-0.355-0.658-0.238-0.972l0.194-0.52
				l0.875-0.577c0.157-0.101,0.311-0.109,0.424-0.04v-0.004L107.75,76.524z"/>
			<path style="opacity:0.9;fill:#FFFFFF;" d="M104.651,72.815c-0.044-0.024-0.097-0.044-0.153-0.056l-1.541-0.347
				c-0.323-0.073-0.714,0.109-0.872,0.403l-1.444,2.76c-0.069,0.133-0.19,0.262-0.327,0.371l-2.425-1.404
				c0.137-0.113,0.254-0.234,0.323-0.367l1.448-2.76c0.153-0.294,0.545-0.476,0.872-0.403l1.537,0.347
				c0.06,0.012,0.113,0.036,0.161,0.065v-0.004L104.651,72.815z"/>
			<path style="opacity:0.9;fill:#FFFFFF;" d="M97.377,74.215c-0.129-0.077-0.299-0.061-0.456,0.065l-2.304,1.812
				c-0.169,0.133-0.311,0.363-0.383,0.601l-2.425-1.396c0.008-0.028,0.02-0.061,0.028-0.089c0.052-0.133,0.121-0.258,0.202-0.363
				c0.02-0.024,0.036-0.048,0.061-0.069c0.028-0.032,0.056-0.061,0.089-0.085l2.308-1.812c0.093-0.077,0.19-0.109,0.282-0.109
				c0.06,0,0.117,0.016,0.169,0.044L97.377,74.215z"/>
			<path id="XMLID_21_" style="fill:#27DEBF;" d="M108.326,79.064l-0.384-2.228c-0.057-0.329-0.329-0.447-0.608-0.264l-2.041,1.343
				c-0.279,0.184-0.628,0.089-0.819-0.185c-0.123-0.176-0.256-0.338-0.398-0.487c-0.23-0.242-0.355-0.658-0.239-0.972l1.041-2.815
				c0.116-0.313-0.055-0.627-0.381-0.7l-1.538-0.344c-0.326-0.073-0.717,0.108-0.872,0.404l-1.446,2.756
				c-0.155,0.296-0.55,0.575-0.874,0.657c-0.31,0.079-0.626,0.183-0.947,0.313c-0.31,0.125-0.631-0.012-0.727-0.332l-0.52-1.726
				c-0.096-0.32-0.388-0.412-0.65-0.205l-2.305,1.812c-0.263,0.207-0.459,0.644-0.438,0.978l0.137,2.193
				c0.021,0.334-0.144,0.805-0.359,1.061c-0.378,0.452-0.735,0.926-1.071,1.417c-0.188,0.276-0.604,0.492-0.938,0.476l-1.482-0.073
				c-0.334-0.016-0.715,0.218-0.851,0.523l-1.393,3.123c-0.136,0.305,0.003,0.659,0.31,0.79l1.197,0.511
				c0.307,0.131,0.485,0.499,0.411,0.825c-0.114,0.502-0.201,1-0.257,1.49c-0.038,0.332-0.253,0.786-0.499,1.012l-2.042,1.878
				c-0.246,0.226-0.4,0.677-0.343,1.006l0.384,2.228c0.057,0.329,0.329,0.447,0.608,0.264l2.041-1.343
				c0.279-0.184,0.628-0.089,0.819,0.185c0.123,0.176,0.256,0.338,0.398,0.487c0.23,0.242,0.355,0.659,0.239,0.972l-1.041,2.815
				c-0.116,0.313,0.055,0.627,0.381,0.7l1.538,0.344c0.326,0.073,0.717-0.108,0.872-0.404l1.447-2.756
				c0.155-0.296,0.55-0.575,0.874-0.657c0.31-0.079,0.626-0.183,0.947-0.313c0.31-0.125,0.631,0.012,0.727,0.332l0.52,1.726
				c0.096,0.32,0.388,0.412,0.65,0.205l2.305-1.812c0.263-0.207,0.459-0.644,0.438-0.978l-0.137-2.193
				c-0.021-0.334,0.144-0.805,0.359-1.061c0.378-0.452,0.735-0.926,1.071-1.417c0.188-0.276,0.604-0.492,0.938-0.476l1.482,0.073
				c0.334,0.016,0.715-0.218,0.851-0.523l1.393-3.123c0.136-0.305-0.003-0.659-0.31-0.79l-1.197-0.511
				c-0.307-0.131-0.485-0.499-0.411-0.825c0.114-0.502,0.201-1,0.256-1.49c0.038-0.332,0.253-0.786,0.499-1.012l2.042-1.878
				C108.229,79.844,108.382,79.393,108.326,79.064z M98.481,90.934c-2.498,1.964-4.89,1.429-5.342-1.195
				c-0.452-2.624,1.207-6.344,3.706-8.308c2.498-1.964,4.89-1.43,5.342,1.194C102.638,85.25,100.979,88.97,98.481,90.934z"/>
			<path id="XMLID_18_" style="opacity:0.75;fill:#FFFFFF;" d="M108.326,79.064l-0.384-2.228c-0.057-0.329-0.329-0.447-0.608-0.264
				l-2.041,1.343c-0.279,0.184-0.628,0.089-0.819-0.185c-0.123-0.176-0.256-0.338-0.398-0.487c-0.23-0.242-0.355-0.658-0.239-0.972
				l1.041-2.815c0.116-0.313-0.055-0.627-0.381-0.7l-1.538-0.344c-0.326-0.073-0.717,0.108-0.872,0.404l-1.446,2.756
				c-0.155,0.296-0.55,0.575-0.874,0.657c-0.31,0.079-0.626,0.183-0.947,0.313c-0.31,0.125-0.631-0.012-0.727-0.332l-0.52-1.726
				c-0.096-0.32-0.388-0.412-0.65-0.205l-2.305,1.812c-0.263,0.207-0.459,0.644-0.438,0.978l0.137,2.193
				c0.021,0.334-0.144,0.805-0.359,1.061c-0.378,0.452-0.735,0.926-1.071,1.417c-0.188,0.276-0.604,0.492-0.938,0.476l-1.482-0.073
				c-0.334-0.016-0.715,0.218-0.851,0.523l-1.393,3.123c-0.136,0.305,0.003,0.659,0.31,0.79l1.197,0.511
				c0.307,0.131,0.485,0.499,0.411,0.825c-0.114,0.502-0.201,1-0.257,1.49c-0.038,0.332-0.253,0.786-0.499,1.012l-2.042,1.878
				c-0.246,0.226-0.4,0.677-0.343,1.006l0.384,2.228c0.057,0.329,0.329,0.447,0.608,0.264l2.041-1.343
				c0.279-0.184,0.628-0.089,0.819,0.185c0.123,0.176,0.256,0.338,0.398,0.487c0.23,0.242,0.355,0.659,0.239,0.972l-1.041,2.815
				c-0.116,0.313,0.055,0.627,0.381,0.7l1.538,0.344c0.326,0.073,0.717-0.108,0.872-0.404l1.447-2.756
				c0.155-0.296,0.55-0.575,0.874-0.657c0.31-0.079,0.626-0.183,0.947-0.313c0.31-0.125,0.631,0.012,0.727,0.332l0.52,1.726
				c0.096,0.32,0.388,0.412,0.65,0.205l2.305-1.812c0.263-0.207,0.459-0.644,0.438-0.978l-0.137-2.193
				c-0.021-0.334,0.144-0.805,0.359-1.061c0.378-0.452,0.735-0.926,1.071-1.417c0.188-0.276,0.604-0.492,0.938-0.476l1.482,0.073
				c0.334,0.016,0.715-0.218,0.851-0.523l1.393-3.123c0.136-0.305-0.003-0.659-0.31-0.79l-1.197-0.511
				c-0.307-0.131-0.485-0.499-0.411-0.825c0.114-0.502,0.201-1,0.256-1.49c0.038-0.332,0.253-0.786,0.499-1.012l2.042-1.878
				C108.229,79.844,108.382,79.393,108.326,79.064z M98.481,90.934c-2.498,1.964-4.89,1.429-5.342-1.195
				c-0.452-2.624,1.207-6.344,3.706-8.308c2.498-1.964,4.89-1.43,5.342,1.194C102.638,85.25,100.979,88.97,98.481,90.934z"/>
		</g>
		<g id="XMLID_1_">
			<path id="XMLID_16_" style="fill:#27DEBF;" d="M85.895,52.719v0.006c-0.17-0.103-0.4-0.097-0.637,0.055l-1.317,0.868
				l-0.291,0.789c-0.176,0.473,0.012,1.098,0.358,1.462c0.212,0.224,0.413,0.467,0.601,0.734c0.291,0.407,0.813,0.552,1.232,0.273
				l3.07-2.02c0.231-0.146,0.455-0.164,0.625-0.067L85.895,52.719z M81.169,63.991c-0.431-2.487-2.014-3.731-4.071-3.561
				c0.182,0.413,0.328,0.898,0.425,1.456c0.679,3.944-1.82,9.537-5.576,12.492c-1.383,1.086-2.742,1.662-3.937,1.759
				c1.232,2.645,4.35,2.894,7.59,0.346C79.355,73.528,81.848,67.935,81.169,63.991z M81.235,47.137v0.006
				c-0.073-0.042-0.152-0.079-0.243-0.097l-2.311-0.522c-0.491-0.109-1.08,0.164-1.311,0.607l-2.178,4.15
				c-0.103,0.2-0.279,0.382-0.485,0.552h-0.006c-0.115,0.097-0.237,0.182-0.37,0.249l0.68,2.263
				c0.146,0.479,0.631,0.686,1.092,0.497c0.485-0.194,0.965-0.352,1.426-0.467c0.273-0.073,0.57-0.23,0.825-0.431
				c0.206-0.164,0.388-0.358,0.491-0.558l2.172-4.15c0.237-0.443,0.825-0.716,1.31-0.607l2.318,0.522
				c0.085,0.018,0.164,0.049,0.231,0.085L81.235,47.137z M74.719,87.282c-0.097-0.079-0.176-0.194-0.218-0.352l-0.783-2.597
				c-0.14-0.479-0.625-0.692-1.092-0.497c-0.479,0.194-0.958,0.352-1.426,0.467c-0.146,0.036-0.297,0.103-0.449,0.188l0.103,0.334
				c0.061,0.194,0.164,0.328,0.297,0.4v0.006L74.719,87.282z M70.284,49.236c-0.079-0.043-0.164-0.067-0.255-0.067
				c-0.139,0-0.285,0.049-0.425,0.164l-3.47,2.724c-0.049,0.036-0.091,0.079-0.133,0.127c-0.036,0.03-0.061,0.067-0.091,0.103
				c-0.121,0.158-0.224,0.346-0.303,0.546c-0.012,0.042-0.03,0.091-0.042,0.133h0.006c-0.061,0.194-0.103,0.388-0.091,0.558
				l0.206,3.3c0.03,0.504-0.218,1.214-0.54,1.596c-0.57,0.68-1.104,1.395-1.608,2.129c-0.17,0.249-0.455,0.461-0.764,0.589
				c-0.103,0.042-0.2,0.073-0.303,0.091c-0.049,0.012-0.097,0.024-0.146,0.024c-0.067,0.012-0.133,0.018-0.2,0.012l-2.227-0.109
				h-0.055c-0.061,0-0.121,0.006-0.182,0.018c-0.055,0.006-0.109,0.018-0.164,0.036c-0.006,0-0.012,0-0.018,0.006
				c-0.061,0.018-0.121,0.042-0.182,0.073c-0.115,0.055-0.224,0.121-0.322,0.2c-0.152,0.127-0.279,0.285-0.358,0.455l-2.093,4.696
				c-0.188,0.419-0.03,0.892,0.352,1.129l2.475,1.426c0.079,0.206,0.103,0.431,0.055,0.643c-0.17,0.752-0.303,1.505-0.388,2.239
				c-0.055,0.498-0.376,1.183-0.746,1.523l-0.036,0.03l-3.04,2.791c-0.055,0.049-0.103,0.103-0.146,0.164
				c-0.006,0.012-0.012,0.018-0.018,0.03c-0.049,0.061-0.091,0.127-0.121,0.2c-0.194,0.34-0.291,0.777-0.231,1.122l0.582,3.349
				c0.036,0.212,0.133,0.364,0.267,0.455l3.634,2.093c-0.127-0.085-0.218-0.237-0.255-0.443l-0.576-3.349
				c-0.036-0.194-0.018-0.425,0.036-0.643c0.085-0.34,0.255-0.667,0.479-0.874l3.034-2.791l0.036-0.03
				c0.37-0.34,0.692-1.025,0.752-1.523c0.085-0.734,0.212-1.486,0.388-2.239c0.109-0.491-0.158-1.043-0.619-1.244l-1.802-0.764
				c-0.461-0.2-0.673-0.734-0.467-1.189l2.093-4.696c0.079-0.17,0.2-0.328,0.358-0.455c0.261-0.212,0.607-0.352,0.922-0.334
				l2.233,0.109c0.206,0.012,0.431-0.036,0.643-0.127c0.309-0.127,0.595-0.34,0.764-0.589c0.504-0.734,1.044-1.45,1.608-2.129
				c0.328-0.382,0.57-1.092,0.54-1.596l-0.206-3.294c-0.012-0.176,0.018-0.376,0.085-0.57c0.109-0.358,0.322-0.704,0.576-0.904
				l3.464-2.724c0.237-0.188,0.491-0.212,0.686-0.097L70.284,49.236z M65.085,84.243c0.17-0.473-0.018-1.098-0.364-1.462
				c-0.212-0.224-0.413-0.467-0.595-0.734c-0.291-0.413-0.813-0.552-1.232-0.279l-1.753,1.153l-1.274,3.446
				c-0.139,0.376,0,0.752,0.309,0.94l-0.006,0.006l3.658,2.111c-0.315-0.194-0.449-0.57-0.309-0.946L65.085,84.243z"/>
			<path id="XMLID_15_" style="opacity:0.7;fill:#FFFFFF;" d="M85.895,52.719v0.006c-0.17-0.103-0.4-0.097-0.637,0.055l-1.317,0.868
				l-0.291,0.789c-0.176,0.473,0.012,1.098,0.358,1.462c0.212,0.224,0.413,0.467,0.601,0.734c0.291,0.407,0.813,0.552,1.232,0.273
				l3.07-2.02c0.231-0.146,0.455-0.164,0.625-0.067L85.895,52.719z M81.169,63.991c-0.431-2.487-2.014-3.731-4.071-3.561
				c0.182,0.413,0.328,0.898,0.425,1.456c0.679,3.944-1.82,9.537-5.576,12.492c-1.383,1.086-2.742,1.662-3.937,1.759
				c1.232,2.645,4.35,2.894,7.59,0.346C79.355,73.528,81.848,67.935,81.169,63.991z M81.235,47.137v0.006
				c-0.073-0.042-0.152-0.079-0.243-0.097l-2.311-0.522c-0.491-0.109-1.08,0.164-1.311,0.607l-2.178,4.15
				c-0.103,0.2-0.279,0.382-0.485,0.552h-0.006c-0.115,0.097-0.237,0.182-0.37,0.249l0.68,2.263
				c0.146,0.479,0.631,0.686,1.092,0.497c0.485-0.194,0.965-0.352,1.426-0.467c0.273-0.073,0.57-0.23,0.825-0.431
				c0.206-0.164,0.388-0.358,0.491-0.558l2.172-4.15c0.237-0.443,0.825-0.716,1.31-0.607l2.318,0.522
				c0.085,0.018,0.164,0.049,0.231,0.085L81.235,47.137z M74.719,87.282c-0.097-0.079-0.176-0.194-0.218-0.352l-0.783-2.597
				c-0.14-0.479-0.625-0.692-1.092-0.497c-0.479,0.194-0.958,0.352-1.426,0.467c-0.146,0.036-0.297,0.103-0.449,0.188l0.103,0.334
				c0.061,0.194,0.164,0.328,0.297,0.4v0.006L74.719,87.282z M70.284,49.236c-0.079-0.043-0.164-0.067-0.255-0.067
				c-0.139,0-0.285,0.049-0.425,0.164l-3.47,2.724c-0.049,0.036-0.091,0.079-0.133,0.127c-0.036,0.03-0.061,0.067-0.091,0.103
				c-0.121,0.158-0.224,0.346-0.303,0.546c-0.012,0.042-0.03,0.091-0.042,0.133h0.006c-0.061,0.194-0.103,0.388-0.091,0.558
				l0.206,3.3c0.03,0.504-0.218,1.214-0.54,1.596c-0.57,0.68-1.104,1.395-1.608,2.129c-0.17,0.249-0.455,0.461-0.764,0.589
				c-0.103,0.042-0.2,0.073-0.303,0.091c-0.049,0.012-0.097,0.024-0.146,0.024c-0.067,0.012-0.133,0.018-0.2,0.012l-2.227-0.109
				h-0.055c-0.061,0-0.121,0.006-0.182,0.018c-0.055,0.006-0.109,0.018-0.164,0.036c-0.006,0-0.012,0-0.018,0.006
				c-0.061,0.018-0.121,0.042-0.182,0.073c-0.115,0.055-0.224,0.121-0.322,0.2c-0.152,0.127-0.279,0.285-0.358,0.455l-2.093,4.696
				c-0.188,0.419-0.03,0.892,0.352,1.129l2.475,1.426c0.079,0.206,0.103,0.431,0.055,0.643c-0.17,0.752-0.303,1.505-0.388,2.239
				c-0.055,0.498-0.376,1.183-0.746,1.523l-0.036,0.03l-3.04,2.791c-0.055,0.049-0.103,0.103-0.146,0.164
				c-0.006,0.012-0.012,0.018-0.018,0.03c-0.049,0.061-0.091,0.127-0.121,0.2c-0.194,0.34-0.291,0.777-0.231,1.122l0.582,3.349
				c0.036,0.212,0.133,0.364,0.267,0.455l3.634,2.093c-0.127-0.085-0.218-0.237-0.255-0.443l-0.576-3.349
				c-0.036-0.194-0.018-0.425,0.036-0.643c0.085-0.34,0.255-0.667,0.479-0.874l3.034-2.791l0.036-0.03
				c0.37-0.34,0.692-1.025,0.752-1.523c0.085-0.734,0.212-1.486,0.388-2.239c0.109-0.491-0.158-1.043-0.619-1.244l-1.802-0.764
				c-0.461-0.2-0.673-0.734-0.467-1.189l2.093-4.696c0.079-0.17,0.2-0.328,0.358-0.455c0.261-0.212,0.607-0.352,0.922-0.334
				l2.233,0.109c0.206,0.012,0.431-0.036,0.643-0.127c0.309-0.127,0.595-0.34,0.764-0.589c0.504-0.734,1.044-1.45,1.608-2.129
				c0.328-0.382,0.57-1.092,0.54-1.596l-0.206-3.294c-0.012-0.176,0.018-0.376,0.085-0.57c0.109-0.358,0.322-0.704,0.576-0.904
				l3.464-2.724c0.237-0.188,0.491-0.212,0.686-0.097L70.284,49.236z M65.085,84.243c0.17-0.473-0.018-1.098-0.364-1.462
				c-0.212-0.224-0.413-0.467-0.595-0.734c-0.291-0.413-0.813-0.552-1.232-0.279l-1.753,1.153l-1.274,3.446
				c-0.139,0.376,0,0.752,0.309,0.94l-0.006,0.006l3.658,2.111c-0.315-0.194-0.449-0.57-0.309-0.946L65.085,84.243z"/>
			<path id="XMLID_14_" style="opacity:0.05;" d="M85.895,52.719v0.006c-0.17-0.103-0.4-0.097-0.637,0.055l-1.317,0.868
				l-0.291,0.789c-0.176,0.473,0.012,1.098,0.358,1.462c0.212,0.224,0.413,0.467,0.601,0.734c0.291,0.407,0.813,0.552,1.232,0.273
				l3.07-2.02c0.231-0.146,0.455-0.164,0.625-0.067L85.895,52.719z M81.169,63.991c-0.431-2.487-2.014-3.731-4.071-3.561
				c0.182,0.413,0.328,0.898,0.425,1.456c0.679,3.944-1.82,9.537-5.576,12.492c-1.383,1.086-2.742,1.662-3.937,1.759
				c1.232,2.645,4.35,2.894,7.59,0.346C79.355,73.528,81.848,67.935,81.169,63.991z M81.235,47.137v0.006
				c-0.073-0.042-0.152-0.079-0.243-0.097l-2.311-0.522c-0.491-0.109-1.08,0.164-1.311,0.607l-2.178,4.15
				c-0.103,0.2-0.279,0.382-0.485,0.552h-0.006c-0.115,0.097-0.237,0.182-0.37,0.249l0.68,2.263
				c0.146,0.479,0.631,0.686,1.092,0.497c0.485-0.194,0.965-0.352,1.426-0.467c0.273-0.073,0.57-0.23,0.825-0.431
				c0.206-0.164,0.388-0.358,0.491-0.558l2.172-4.15c0.237-0.443,0.825-0.716,1.31-0.607l2.318,0.522
				c0.085,0.018,0.164,0.049,0.231,0.085L81.235,47.137z M74.719,87.282c-0.097-0.079-0.176-0.194-0.218-0.352l-0.783-2.597
				c-0.14-0.479-0.625-0.692-1.092-0.497c-0.479,0.194-0.958,0.352-1.426,0.467c-0.146,0.036-0.297,0.103-0.449,0.188l0.103,0.334
				c0.061,0.194,0.164,0.328,0.297,0.4v0.006L74.719,87.282z M70.284,49.236c-0.079-0.043-0.164-0.067-0.255-0.067
				c-0.139,0-0.285,0.049-0.425,0.164l-3.47,2.724c-0.049,0.036-0.091,0.079-0.133,0.127c-0.036,0.03-0.061,0.067-0.091,0.103
				c-0.121,0.158-0.224,0.346-0.303,0.546c-0.012,0.042-0.03,0.091-0.042,0.133h0.006c-0.061,0.194-0.103,0.388-0.091,0.558
				l0.206,3.3c0.03,0.504-0.218,1.214-0.54,1.596c-0.57,0.68-1.104,1.395-1.608,2.129c-0.17,0.249-0.455,0.461-0.764,0.589
				c-0.103,0.042-0.2,0.073-0.303,0.091c-0.049,0.012-0.097,0.024-0.146,0.024c-0.067,0.012-0.133,0.018-0.2,0.012l-2.227-0.109
				h-0.055c-0.061,0-0.121,0.006-0.182,0.018c-0.055,0.006-0.109,0.018-0.164,0.036c-0.006,0-0.012,0-0.018,0.006
				c-0.061,0.018-0.121,0.042-0.182,0.073c-0.115,0.055-0.224,0.121-0.322,0.2c-0.152,0.127-0.279,0.285-0.358,0.455l-2.093,4.696
				c-0.188,0.419-0.03,0.892,0.352,1.129l2.475,1.426c0.079,0.206,0.103,0.431,0.055,0.643c-0.17,0.752-0.303,1.505-0.388,2.239
				c-0.055,0.498-0.376,1.183-0.746,1.523l-0.036,0.03l-3.04,2.791c-0.055,0.049-0.103,0.103-0.146,0.164
				c-0.006,0.012-0.012,0.018-0.018,0.03c-0.049,0.061-0.091,0.127-0.121,0.2c-0.194,0.34-0.291,0.777-0.231,1.122l0.582,3.349
				c0.036,0.212,0.133,0.364,0.267,0.455l3.634,2.093c-0.127-0.085-0.218-0.237-0.255-0.443l-0.576-3.349
				c-0.036-0.194-0.018-0.425,0.036-0.643c0.085-0.34,0.255-0.667,0.479-0.874l3.034-2.791l0.036-0.03
				c0.37-0.34,0.692-1.025,0.752-1.523c0.085-0.734,0.212-1.486,0.388-2.239c0.109-0.491-0.158-1.043-0.619-1.244l-1.802-0.764
				c-0.461-0.2-0.673-0.734-0.467-1.189l2.093-4.696c0.079-0.17,0.2-0.328,0.358-0.455c0.261-0.212,0.607-0.352,0.922-0.334
				l2.233,0.109c0.206,0.012,0.431-0.036,0.643-0.127c0.309-0.127,0.595-0.34,0.764-0.589c0.504-0.734,1.044-1.45,1.608-2.129
				c0.328-0.382,0.57-1.092,0.54-1.596l-0.206-3.294c-0.012-0.176,0.018-0.376,0.085-0.57c0.109-0.358,0.322-0.704,0.576-0.904
				l3.464-2.724c0.237-0.188,0.491-0.212,0.686-0.097L70.284,49.236z M65.085,84.243c0.17-0.473-0.018-1.098-0.364-1.462
				c-0.212-0.224-0.413-0.467-0.595-0.734c-0.291-0.413-0.813-0.552-1.232-0.279l-1.753,1.153l-1.274,3.446
				c-0.139,0.376,0,0.752,0.309,0.94l-0.006,0.006l3.658,2.111c-0.315-0.194-0.449-0.57-0.309-0.946L65.085,84.243z"/>
			<path style="fill:#27DEBF;" d="M61.882,75.737l-3.034,2.791c-0.224,0.206-0.394,0.534-0.479,0.874l-3.64-2.099
				c0.042-0.17,0.103-0.334,0.182-0.485c0.03-0.073,0.073-0.14,0.121-0.2c0.006-0.012,0.012-0.018,0.018-0.03
				c0.042-0.061,0.091-0.115,0.146-0.164l3.04-2.791L61.882,75.737z"/>
			<path style="fill:#27DEBF;" d="M66.42,63.245c-0.212,0.091-0.437,0.139-0.643,0.127l-2.233-0.109
				c-0.316-0.018-0.661,0.121-0.922,0.334l-3.646-2.105c0.097-0.079,0.206-0.146,0.322-0.2c0.061-0.03,0.121-0.055,0.182-0.073
				c0.006-0.006,0.012-0.006,0.018-0.006c0.055-0.018,0.109-0.03,0.164-0.036c0.061-0.012,0.121-0.018,0.182-0.018h0.055
				l2.227,0.109c0.067,0.006,0.133,0,0.2-0.012c0.049-0.006,0.097-0.012,0.146-0.024c0.097-0.024,0.194-0.061,0.291-0.097
				l0.012,0.006L66.42,63.245z"/>
			<path id="XMLID_13_" style="fill:#27DEBF;" d="M89.535,54.814c-0.17-0.097-0.394-0.079-0.625,0.073l-3.07,2.02
				c-0.419,0.273-0.941,0.133-1.232-0.279c-0.188-0.267-0.382-0.51-0.601-0.734c-0.346-0.364-0.534-0.989-0.358-1.462l0.291-0.783
				l1.317-0.868c0.237-0.152,0.467-0.164,0.637-0.061v-0.006L89.535,54.814z"/>
			<path style="fill:#27DEBF;" d="M84.876,49.236c-0.067-0.036-0.146-0.067-0.231-0.085l-2.318-0.522
				c-0.485-0.109-1.074,0.164-1.31,0.607l-2.172,4.15c-0.103,0.2-0.285,0.394-0.491,0.558l-3.646-2.111
				c0.206-0.17,0.382-0.352,0.485-0.552l2.178-4.15c0.23-0.443,0.819-0.716,1.311-0.607l2.311,0.522
				c0.091,0.018,0.17,0.055,0.243,0.097v-0.006L84.876,49.236z"/>
			<path style="fill:#27DEBF;" d="M73.937,51.341c-0.194-0.115-0.449-0.091-0.686,0.097l-3.464,2.724
				c-0.255,0.2-0.467,0.546-0.576,0.904l-3.646-2.099c0.012-0.042,0.03-0.091,0.042-0.133c0.079-0.2,0.182-0.388,0.303-0.546
				c0.03-0.036,0.055-0.073,0.091-0.103c0.042-0.049,0.085-0.091,0.133-0.127l3.47-2.724c0.139-0.115,0.285-0.164,0.425-0.164
				c0.091,0,0.176,0.024,0.255,0.067L73.937,51.341z"/>
			<path style="opacity:0.9;fill:#FFFFFF;" d="M61.882,75.737l-3.034,2.791c-0.224,0.206-0.394,0.534-0.479,0.874l-3.64-2.099
				c0.042-0.17,0.103-0.334,0.182-0.485c0.03-0.073,0.073-0.14,0.121-0.2c0.006-0.012,0.012-0.018,0.018-0.03
				c0.042-0.061,0.091-0.115,0.146-0.164l3.04-2.791L61.882,75.737z"/>
			<path style="opacity:0.9;fill:#FFFFFF;" d="M66.42,63.245c-0.212,0.091-0.437,0.139-0.643,0.127l-2.233-0.109
				c-0.316-0.018-0.661,0.121-0.922,0.334l-3.646-2.105c0.097-0.079,0.206-0.146,0.322-0.2c0.061-0.03,0.121-0.055,0.182-0.073
				c0.006-0.006,0.012-0.006,0.018-0.006c0.055-0.018,0.109-0.03,0.164-0.036c0.061-0.012,0.121-0.018,0.182-0.018h0.055
				l2.227,0.109c0.067,0.006,0.133,0,0.2-0.012c0.049-0.006,0.097-0.012,0.146-0.024c0.097-0.024,0.194-0.061,0.291-0.097
				l0.012,0.006L66.42,63.245z"/>
			<path id="XMLID_12_" style="opacity:0.9;fill:#FFFFFF;" d="M89.535,54.814c-0.17-0.097-0.394-0.079-0.625,0.073l-3.07,2.02
				c-0.419,0.273-0.941,0.133-1.232-0.279c-0.188-0.267-0.382-0.51-0.601-0.734c-0.346-0.364-0.534-0.989-0.358-1.462l0.291-0.783
				l1.317-0.868c0.237-0.152,0.467-0.164,0.637-0.061v-0.006L89.535,54.814z"/>
			<path style="opacity:0.9;fill:#FFFFFF;" d="M84.876,49.236c-0.067-0.036-0.146-0.067-0.231-0.085l-2.318-0.522
				c-0.485-0.109-1.074,0.164-1.31,0.607l-2.172,4.15c-0.103,0.2-0.285,0.394-0.491,0.558l-3.646-2.111
				c0.206-0.17,0.382-0.352,0.485-0.552l2.178-4.15c0.23-0.443,0.819-0.716,1.311-0.607l2.311,0.522
				c0.091,0.018,0.17,0.055,0.243,0.097v-0.006L84.876,49.236z"/>
			<path style="opacity:0.9;fill:#FFFFFF;" d="M73.937,51.341c-0.194-0.115-0.449-0.091-0.686,0.097l-3.464,2.724
				c-0.255,0.2-0.467,0.546-0.576,0.904l-3.646-2.099c0.012-0.042,0.03-0.091,0.042-0.133c0.079-0.2,0.182-0.388,0.303-0.546
				c0.03-0.036,0.055-0.073,0.091-0.103c0.042-0.049,0.085-0.091,0.133-0.127l3.47-2.724c0.139-0.115,0.285-0.164,0.425-0.164
				c0.091,0,0.176,0.024,0.255,0.067L73.937,51.341z"/>
			<path id="XMLID_9_" style="fill:#27DEBF;" d="M90.401,58.633l-0.577-3.35c-0.085-0.495-0.495-0.673-0.915-0.397l-3.069,2.02
				c-0.42,0.276-0.943,0.134-1.232-0.278c-0.185-0.265-0.385-0.509-0.598-0.733c-0.347-0.364-0.534-0.99-0.36-1.462l1.565-4.233
				c0.174-0.471-0.082-0.942-0.573-1.052l-2.313-0.517c-0.491-0.11-1.077,0.162-1.311,0.607l-2.175,4.145
				c-0.233,0.445-0.827,0.864-1.314,0.988c-0.466,0.119-0.941,0.275-1.425,0.471c-0.466,0.189-0.949-0.019-1.094-0.5l-0.782-2.596
				c-0.145-0.481-0.583-0.62-0.978-0.309l-3.466,2.725c-0.395,0.311-0.69,0.969-0.659,1.471l0.207,3.298
				c0.031,0.502-0.217,1.21-0.539,1.596c-0.568,0.679-1.106,1.392-1.61,2.13c-0.283,0.415-0.908,0.74-1.411,0.715l-2.228-0.11
				c-0.502-0.025-1.075,0.327-1.28,0.786l-2.095,4.697c-0.205,0.459,0.004,0.991,0.466,1.188l1.8,0.768
				c0.462,0.197,0.729,0.751,0.618,1.241c-0.172,0.755-0.301,1.504-0.386,2.241c-0.057,0.499-0.381,1.182-0.751,1.522l-3.071,2.824
				c-0.37,0.34-0.601,1.018-0.516,1.513l0.577,3.35c0.085,0.495,0.495,0.673,0.915,0.397l3.069-2.019
				c0.42-0.276,0.944-0.134,1.232,0.278c0.185,0.265,0.385,0.509,0.598,0.733c0.346,0.364,0.534,0.99,0.36,1.462l-1.565,4.233
				c-0.174,0.471,0.082,0.943,0.573,1.052l2.313,0.517c0.491,0.11,1.077-0.162,1.311-0.607l2.175-4.145
				c0.234-0.445,0.827-0.864,1.314-0.988c0.466-0.118,0.941-0.275,1.424-0.471c0.466-0.189,0.949,0.018,1.094,0.5l0.782,2.596
				c0.145,0.481,0.583,0.62,0.978,0.309l3.466-2.725c0.395-0.311,0.69-0.969,0.658-1.471l-0.207-3.298
				c-0.031-0.502,0.217-1.21,0.539-1.596c0.568-0.679,1.106-1.392,1.61-2.13c0.283-0.415,0.908-0.74,1.41-0.715l2.228,0.11
				c0.502,0.025,1.075-0.327,1.28-0.786l2.095-4.697c0.205-0.459-0.004-0.991-0.466-1.188l-1.8-0.768
				c-0.462-0.197-0.729-0.751-0.618-1.241c0.172-0.755,0.301-1.504,0.386-2.24c0.057-0.499,0.381-1.182,0.751-1.522l3.071-2.824
				C90.255,59.806,90.486,59.129,90.401,58.633z M75.597,76.483c-3.757,2.954-7.354,2.149-8.033-1.796
				c-0.68-3.946,1.815-9.539,5.572-12.493c3.757-2.954,7.353-2.15,8.033,1.796C81.849,67.936,79.354,73.529,75.597,76.483z"/>
			<path id="XMLID_2_" style="opacity:0.75;fill:#FFFFFF;" d="M90.401,58.633l-0.577-3.35c-0.085-0.495-0.495-0.673-0.915-0.397
				l-3.069,2.02c-0.42,0.276-0.943,0.134-1.232-0.278c-0.185-0.265-0.385-0.509-0.598-0.733c-0.347-0.364-0.534-0.99-0.36-1.462
				l1.565-4.233c0.174-0.471-0.082-0.942-0.573-1.052l-2.313-0.517c-0.491-0.11-1.077,0.162-1.311,0.607l-2.175,4.145
				c-0.233,0.445-0.827,0.864-1.314,0.988c-0.466,0.119-0.941,0.275-1.425,0.471c-0.466,0.189-0.949-0.019-1.094-0.5l-0.782-2.596
				c-0.145-0.481-0.583-0.62-0.978-0.309l-3.466,2.725c-0.395,0.311-0.69,0.969-0.659,1.471l0.207,3.298
				c0.031,0.502-0.217,1.21-0.539,1.596c-0.568,0.679-1.106,1.392-1.61,2.13c-0.283,0.415-0.908,0.74-1.411,0.715l-2.228-0.11
				c-0.502-0.025-1.075,0.327-1.28,0.786l-2.095,4.697c-0.205,0.459,0.004,0.991,0.466,1.188l1.8,0.768
				c0.462,0.197,0.729,0.751,0.618,1.241c-0.172,0.755-0.301,1.504-0.386,2.241c-0.057,0.499-0.381,1.182-0.751,1.522l-3.071,2.824
				c-0.37,0.34-0.601,1.018-0.516,1.513l0.577,3.35c0.085,0.495,0.495,0.673,0.915,0.397l3.069-2.019
				c0.42-0.276,0.944-0.134,1.232,0.278c0.185,0.265,0.385,0.509,0.598,0.733c0.346,0.364,0.534,0.99,0.36,1.462l-1.565,4.233
				c-0.174,0.471,0.082,0.943,0.573,1.052l2.313,0.517c0.491,0.11,1.077-0.162,1.311-0.607l2.175-4.145
				c0.234-0.445,0.827-0.864,1.314-0.988c0.466-0.118,0.941-0.275,1.424-0.471c0.466-0.189,0.949,0.018,1.094,0.5l0.782,2.596
				c0.145,0.481,0.583,0.62,0.978,0.309l3.466-2.725c0.395-0.311,0.69-0.969,0.658-1.471l-0.207-3.298
				c-0.031-0.502,0.217-1.21,0.539-1.596c0.568-0.679,1.106-1.392,1.61-2.13c0.283-0.415,0.908-0.74,1.41-0.715l2.228,0.11
				c0.502,0.025,1.075-0.327,1.28-0.786l2.095-4.697c0.205-0.459-0.004-0.991-0.466-1.188l-1.8-0.768
				c-0.462-0.197-0.729-0.751-0.618-1.241c0.172-0.755,0.301-1.504,0.386-2.24c0.057-0.499,0.381-1.182,0.751-1.522l3.071-2.824
				C90.255,59.806,90.486,59.129,90.401,58.633z M75.597,76.483c-3.757,2.954-7.354,2.149-8.033-1.796
				c-0.68-3.946,1.815-9.539,5.572-12.493c3.757-2.954,7.353-2.15,8.033,1.796C81.849,67.936,79.354,73.529,75.597,76.483z"/>
		</g>
	</g>
</g>
<g id="Robot_1_">
	<g id="Robot_3_">
		<g>
			<path style="fill:#455A64;" d="M171.111,203.843c1.89,13.908,2.407,58.804,1.82,71.511c-0.587,12.707-0.065,22.619-7.008,23.771
				c-2.561,0.425-8.503,0.406-9.741-2.335c-1.49-3.296-3.833-18.502-5.508-27.416c-3.115-16.569-7.3-44.058-7.3-44.058
				S152.49,206.519,171.111,203.843z"/>
			<g>
				<g>
					<path id="XMLID_101_" style="fill:#263238;" d="M198.587,373.855c0.417,0.944,0.236,2.686-0.325,3.776
						c-0.561,1.091-6.439,4.178-14.221,3.421c-7.782-0.758-13.043-4.059-15.957-6.116c-2.914-2.057-5.998-2.517-9.853-2.852
						c-3.855-0.336-8.867-2.412-9.661-4.243c-0.793-1.831,0.274-4.912,0.274-4.912L198.587,373.855z"/>
					<path id="XMLID_100_" style="fill:#455A64;" d="M169.306,352.572c0.676-0.25,1.371-0.441,2.096-0.546
						c0.846-0.123,1.725-0.12,2.537,0.148c2.169,0.715,2.448,3.222,4,4.616c1.844,1.656,2.499,2.055,4.639,3.289
						c2.507,1.445,3.336,1.966,5.931,3.227c2.647,1.287,6.186,2.13,8.243,3.607c2.999,2.153,3.24,7.347-0.307,9.289
						c-3.06,1.676-11.03,3.353-19.259,0.755c-4.483-1.415-9.358-6.395-15.278-7.036c-3.765-0.408-10.869-1.68-13.213-4.618
						c-0.767-1.157-0.052-3.253,0.258-4.445c0.136-0.524,0.285-1.045,0.44-1.565c0.109-0.366,0.167-0.938,0.427-1.213
						c0.529-0.559,1.663-0.326,2.312-0.207c2.23,0.409,4.551,0.599,6.749,0.044C162.672,356.961,165.701,353.909,169.306,352.572z"
						/>
				</g>
				<path style="fill:#27DEBF;" d="M184.057,378.228c5.504,0.361,10.203-0.828,12.389-2.025c2.956-1.619,3.274-5.491,1.564-7.984
					c-2.62,3.454-6.683,3.188-8.831,3.957c-0.882,0.316-0.522,2.003-0.7,3.784C188.331,377.432,186.587,378.002,184.057,378.228z"/>
			</g>
			<g>
				<path style="fill:#27DEBF;" d="M161.991,291.544c-5.13-0.718-6.207,2.275-6.874,6.361s-5.966,57.569-6.188,60.382
					c-0.222,2.813,4.736,5.944,9.711,6.962c5.101,1.043,7.79-10.327,12.595-11.768c3.857-1.157,4.071,1.238,6.705,3.309
					l-7.121-63.495L161.991,291.544z"/>
				<path style="fill:#27DEBF;" d="M167.144,283.677c-6.412-0.116-8.607,6.552-8.389,10.54c0.218,3.987,2.506,9.552,8.589,9.067
					C175.545,302.631,174.553,284.08,167.144,283.677z"/>
				<path style="opacity:0.3;" d="M167.144,283.677c-6.412-0.116-8.607,6.552-8.389,10.54c0.218,3.987,2.506,9.552,8.589,9.067
					C175.545,302.631,174.553,284.08,167.144,283.677z"/>
			</g>
			<path style="fill:#455A64;" d="M161.335,309.106l-0.137-0.042c-3.443-1.049-5.593-2.291-6.908-4.057
				c-0.047,0.432-0.095,0.879-0.144,1.339c1.773,1.888,4.246,2.901,6.763,3.668l0.138,0.042c1.648,0.498,1.859,0.563,1.492,7.791
				c-0.645,12.664-2.322,26.164-3.227,31.699c-0.146,0.894-0.47,1.508-0.964,1.822c-0.498,0.317-1.205,0.351-2.097,0.101
				c-2.274-0.638-5.155-1.722-6.454-2.224c-0.034,0.35-0.068,0.691-0.1,1.025c1.41,0.541,4.113,1.546,6.287,2.156
				c0.481,0.135,0.929,0.203,1.341,0.203c0.596,0,1.116-0.141,1.558-0.423c0.742-0.473,1.216-1.314,1.409-2.5
				c0.909-5.556,2.592-19.104,3.239-31.808C163.907,310.493,163.743,309.835,161.335,309.106z"/>
		</g>
		<g>
			<path style="fill:#27DEBF;" d="M123.506,212.413c4.538,0,11.803,2.756,16.129,8.35c4.325,5.594,3.993,13.715,3.993,13.715
				c3.823,1.357,10.84-1.432,14.64-4.918c4.743-4.352,8.569-8.75,11.058-14.197c1.262-2.761,2.315-5.636,2.833-8.627
				c0.502-2.892,0.181-6.748-0.265-9.277c-1.995-11.299-18.562-11.948-27.12-11.97c-26.295-0.065-26.532,6.113-28.787,13.234
				c-1.898,5.993-3.143,17.547-0.346,18.01C116.686,214.248,119.367,212.413,123.506,212.413z"/>
			<path style="opacity:0.15;" d="M119.273,194.465c-1.04,3.224,3.62,13.231,24.947,13.256c20.486,0.024,26.098-7.098,24.967-11.749
				c-1.133-4.662-6.192-9.757-24.415-9.757C129.752,186.215,121.275,188.257,119.273,194.465z"/>
		</g>
		<g>
			<path style="fill:#455A64;" d="M200.268,176.628c-4.144,0-7.876-0.637-10.772-2.072c-10.533-5.221-14.135-13.635-20.672-28.91
				c-1.177-2.75-2.469-5.772-3.939-9.096c-2.293-4.652-3.602-6.144-4.082-6.584c-0.11,0.014-0.257,0.036-0.454,0.073
				c-3.51,0.656-6.879-1.652-7.534-5.156c-0.657-3.504,1.652-6.878,5.156-7.534c9.056-1.695,13.813,3.955,18.561,13.624
				c0.038,0.078,0.075,0.156,0.11,0.236c1.513,3.424,2.844,6.532,4.053,9.358c6.279,14.672,8.551,19.455,14.535,22.421
				c5.725,2.839,25.87-2.012,33.797-9.35c2.618-2.422,6.701-2.265,9.123,0.351c2.422,2.616,2.265,6.701-0.351,9.123
				C229.764,170.55,213.061,176.627,200.268,176.628z"/>
		</g>
		<g>
			<g>
				<path style="fill:#455A64;" d="M242.979,145.185c-0.08,0-0.159-0.004-0.24-0.014c-1.089-0.131-1.866-1.12-1.735-2.209
					c0.338-2.819,0.603-4.678,1.735-7.271c1.47-3.369,4.388-5.487,5.574-6.241c0.927-0.589,2.153-0.316,2.742,0.61
					c0.589,0.926,0.315,2.153-0.61,2.742c-1.412,0.898-3.221,2.547-4.065,4.479c-0.869,1.992-1.093,3.338-1.433,6.157
					C244.826,144.444,243.969,145.185,242.979,145.185z"/>
			</g>
			<g>
				<path style="fill:#455A64;" d="M245.542,150.366c-0.306,0-0.618-0.071-0.91-0.222c-0.975-0.503-1.357-1.702-0.854-2.676
					c1.304-2.522,2.202-4.172,4.169-6.205c2.556-2.642,6.03-3.606,7.405-3.898c1.072-0.228,2.128,0.458,2.355,1.531
					c0.228,1.073-0.457,2.128-1.531,2.356c-1.637,0.347-3.909,1.258-5.374,2.774c-1.51,1.562-2.191,2.744-3.494,5.266
					C246.956,149.973,246.262,150.366,245.542,150.366z"/>
			</g>
			<circle style="fill:#27DEBF;" cx="238.954" cy="153.016" r="11.076"/>
			<g>
				<path style="fill:#455A64;" d="M232.121,151.796c-0.261,0-0.526-0.051-0.781-0.161c-3.469-1.484-4.899-4.924-4.249-10.223
					c0.135-1.09,1.142-1.852,2.213-1.73c1.089,0.134,1.864,1.125,1.73,2.214c-0.547,4.452,0.712,5.591,1.869,6.086
					c1.008,0.432,1.476,1.599,1.045,2.608C233.625,151.345,232.892,151.796,232.121,151.796z"/>
			</g>
			<g>
				<path style="fill:#455A64;" d="M237.566,145.376c-0.857,0-1.647-0.559-1.903-1.422c-0.856-2.887-1.003-4.678-0.992-7.374
					c0.016-3.798,2.03-7.022,2.648-7.919c0.622-0.903,1.858-1.132,2.762-0.511c0.903,0.622,1.132,1.858,0.51,2.762
					c-0.936,1.361-1.939,3.569-1.948,5.684c-0.01,2.393,0.104,3.788,0.827,6.228c0.312,1.052-0.287,2.157-1.339,2.469
					C237.943,145.35,237.753,145.376,237.566,145.376z"/>
			</g>
		</g>
		<g>
			<path style="fill:#455A64;" d="M143.627,234.478c-1.761,16.579-11.462,59.032-15.755,63.11
				c-4.293,4.079-11.246,4.079-13.244-4.293c-1.998-8.372-0.434-67.96,1.011-76.562c1.445-8.602,10.032-9.934,18.189-6.478
				C141.985,213.712,147.201,219.824,143.627,234.478z"/>
			<g>
				<path style="fill:#37474F;" d="M100.712,378.133c-0.13,1.68-0.04,3.548,0.667,4.701c0.707,1.153,2.716,2.284,3.361,4.127
					c0.61,1.744,0.17,4.169,0.61,6.254c0.388,1.838,1.401,5.567,6.589,8.741c5.188,3.173,13.473,2.741,18.661,2.093
					c5.188-0.648,8.861-2.882,9.222-5.692c0.361-2.81-0.889-5.908-0.889-5.908L100.712,378.133z"/>
				<path style="fill:#455A64;" d="M101.422,369.05c-0.55,4.863-1.161,7.14-0.645,9.439c0.516,2.299,2.895,3.359,4.573,5.859
					c1.678,2.5-1.09,8.434,4.842,13.077c5.933,4.643,11.928,4.88,19.441,4.309c4.284-0.325,6.977-1.59,8.244-2.753
					c2.65-2.432,2.478-7.405,0.162-9.722c-1.199-1.199-3.114-3.033-4.181-4.4c-1.312-1.68-2.607-3.258-4.224-5.702
					c-2.933-4.432-3.449-14.879-5.383-17.071C122.316,359.894,104.389,356.023,101.422,369.05z"/>
				<path style="fill:#27DEBF;" d="M138.932,397.646c-0.026-0.806-0.151-1.659-0.249-2.285c-0.443-2.818-1.982-3.538-4.74-3.538
					c-2.758,0-11.805,0.385-11.805,3.658c0,4.997-4.374,5.69-7.238,4.746c4.475,1.903,9.19,1.928,14.733,1.507
					c4.284-0.325,6.977-1.589,8.244-2.752C138.352,398.546,138.694,398.157,138.932,397.646z"/>
			</g>
			<g>
				<path style="fill:#27DEBF;" d="M114.629,293.295c-2.75,0.506-3.32,4.873-4.518,11.932c-1.197,7.06-10.199,62.824-9.999,65.817
					c0.2,2.994,2.941,7.226,5.238,9.254c2.298,2.028,5.517,0.281,7.244-6.075c2.277-8.38,10.493-9.464,12.756-4.036
					c3.126,7.499,4.283,8.971,4.283,8.971s1.47-17.745,1.314-37.152c-0.107-13.311-0.14-30.68-0.14-40.063
					c0-5.984-0.894-7.037-2.171-7.432C125.052,293.402,114.629,293.295,114.629,293.295z"/>
				<path style="fill:#27DEBF;" d="M122.532,287.512c-8.499-1.407-13.576,17.83-2.764,19.388
					C129.953,308.368,132.669,289.19,122.532,287.512z"/>
				<path style="opacity:0.3;" d="M122.532,287.512c-8.499-1.407-13.576,17.83-2.764,19.388
					C129.953,308.368,132.669,289.19,122.532,287.512z"/>
			</g>
			<g>
				<path style="fill:#455A64;" d="M130.398,366.871c-1.424-0.954-2.755-2.286-2.989-4.009c-0.558-4.109-0.763-22.008,0.004-33.808
					c0.673-10.343,0.932-12.861,3.411-13.938c-0.001-0.355-0.001-0.699-0.002-1.049c-3.502,1.303-3.711,4.338-4.4,14.924
					c-0.796,12.241-0.561,29.853,0.004,34.006c0.312,2.294,2.141,3.943,3.916,5.026C130.36,367.646,130.379,367.261,130.398,366.871
					z"/>
				<path style="fill:#455A64;" d="M109.235,310.539c-0.056,0.34-0.113,0.69-0.172,1.053c5.51,3.334,5.247,6.278,4.476,14.269
					c-0.093,0.966-0.193,2.002-0.29,3.117c-1.024,11.779-4.069,29.708-5.264,34.558c-0.143,0.579-0.471,0.974-1.003,1.207
					c-1.33,0.582-3.686,0.104-6.066-0.705c-0.048,0.346-0.094,0.681-0.139,1.006c1.639,0.543,3.316,0.942,4.723,0.942
					c0.708,0,1.348-0.1,1.879-0.333c0.822-0.36,1.351-0.992,1.569-1.88c1.354-5.495,4.324-23.61,5.289-34.709
					c0.097-1.112,0.196-2.145,0.289-3.108C115.32,317.75,115.639,314.303,109.235,310.539z"/>
			</g>
		</g>
		<g>
			<path style="fill:#27DEBF;" d="M159.579,179.301c-7.264-2.37-14.654-11.21-14.654-11.21s10.481-17.92,19.541-11.249
				C173.527,163.513,172.827,183.624,159.579,179.301z"/>
			<path style="opacity:0.15;" d="M159.579,179.301c-7.264-2.37-14.654-11.21-14.654-11.21s10.481-17.92,19.541-11.249
				C173.527,163.513,172.827,183.624,159.579,179.301z"/>
			<path style="fill:#455A64;" d="M164.3,166.319c1.777,11.603-0.419,24.051-2.695,31.119c-0.959,3.373-8.934,5.576-18.223,5.576
				c-9.289,0-16.229-3.354-17.371-6.585c-1.142-3.231,3.532-10.213-3.705-32.78c0,0,10.931-16.963,26.097-13.328
				C163.569,153.955,164.3,166.319,164.3,166.319z"/>
			<path style="fill:#27DEBF;" d="M139.485,113.712c-15.343,0.661-28.054,5.864-31.51,12.597
				c-3.456,6.733-1.281,20.463,3.176,30.834c3.065,7.131,9.054,20.195,14.283,23.669c5.23,3.475,13.399,3.889,17.526-2.937
				c4.126-6.826,10.84-22.115,18.387-15.019c6.836,6.427,6.16,13.391,4.73,15.067c-0.374,0.438-0.764,0.783-1.178,1.048
				l-0.064,1.563c1.322-0.223,2.709-0.881,4.135-2.403c4.561-4.872,6.138-20.924,4.183-37.647
				C171.197,123.76,164.678,112.626,139.485,113.712z"/>
			<path style="fill:#455A64;" d="M110.864,126.509c3.666-3.907,9.458-1.261,12.422,3.714c3.669,6.158,4.781,15.932,1.458,21.015
				c-3.41,5.215-9.97,3.006-13.391-2.786C107.284,141.563,107.761,129.816,110.864,126.509z"/>
			<path style="fill:#455A64;" d="M173.816,148.334c-1.558-1.061-3.53-1.881-5.934-2.432c-2.85-0.654-6.098-0.892-9.488-0.803
				c-1.247-11.832-4.797-20.671-8.086-23.549l-0.654,0.748c2.686,2.351,6.485,10.678,7.782,22.837
				c-10.007,0.442-21.033,3.639-26.677,7.47c-3.022,2.051-5.521,4.347-7.474,6.809c-1.336-4.861-1.982-8.694-2.137-9.682
				l-0.982,0.154c0.165,1.049,0.875,5.255,2.369,10.518c-2.569,3.564-4.005,7.448-4.208,11.437c0.331,0.571,0.664,1.13,1.001,1.675
				c-0.154-4.117,1.067-8.16,3.566-11.876c2.169,7.26,5.786,16.133,11.446,21.578c0.436-0.033,0.869-0.087,1.299-0.168
				c-6.062-5.399-9.841-14.906-12.016-22.435c1.949-2.605,4.52-5.035,7.694-7.19c5.542-3.762,16.394-6.901,26.219-7.313
				c0.423,4.506,0.495,9.518,0.051,14.925c0.324,0.018,0.649,0.058,0.977,0.147c0.43-5.358,0.357-10.451-0.078-15.106
				c3.276-0.078,6.414,0.157,9.171,0.79c2.616,0.6,4.691,1.515,6.215,2.727C173.858,149.177,173.838,148.756,173.816,148.334z"/>
		</g>
		<g>
			<path style="fill:#455A64;" d="M89.194,193.367c-0.941,0-1.906-0.083-2.89-0.25c-10.89-1.845-22.108-13.457-28.405-22.84
				c-1.986-2.961-1.197-6.971,1.763-8.958c2.96-1.987,6.971-1.197,8.958,1.763c6.857,10.219,15.34,16.543,19.84,17.305
				c0.509,0.087,1.133,0.115,1.368-0.062c2.103-1.59,6.97-12.037,11.762-34.299c2.971-13.799,4.327-20.096,12.747-21.293
				c3.537-0.503,6.799,1.954,7.301,5.483c0.461,3.241-1.571,6.262-4.639,7.123c-0.747,1.934-1.781,6.739-2.786,11.405
				c-7.555,35.091-14.387,40.221-16.631,41.906C95.187,192.447,92.327,193.367,89.194,193.367z"/>
		</g>
		<g>
			<g>
				<path style="fill:#455A64;" d="M58.372,150.606c-0.788,0-1.532-0.471-1.844-1.246l-0.178-0.443
					c-0.893-2.219-1.484-3.685-2.017-6.146c-0.695-3.201-0.481-6.338,0.588-8.607c0.468-0.993,1.655-1.417,2.644-0.95
					c0.992,0.467,1.418,1.651,0.951,2.644c-0.26,0.551-1.049,2.619-0.301,6.071c0.464,2.133,0.946,3.331,1.82,5.505l0.179,0.446
					c0.409,1.018-0.084,2.175-1.102,2.584C58.869,150.56,58.619,150.606,58.372,150.606z"/>
			</g>
			<g>
				<path style="fill:#455A64;" d="M66.005,153.661c-0.387,0-0.778-0.113-1.122-0.348c-0.904-0.621-1.135-1.857-0.514-2.762
					c0.763-1.113,1.59-3.012-0.044-6.639c-0.451-1-0.005-2.177,0.995-2.627c1-0.451,2.177-0.005,2.627,0.996
					c1.819,4.036,1.717,7.575-0.302,10.517C67.26,153.359,66.637,153.661,66.005,153.661z"/>
			</g>
			<path style="fill:#27DEBF;" d="M48.368,162.002c1.813,5.843,8.018,9.109,13.861,7.297c5.842-1.813,9.109-8.018,7.296-13.861
				c-1.813-5.842-8.018-9.109-13.861-7.296C49.822,149.953,46.556,156.159,48.368,162.002z"/>
			<g>
				<path style="fill:#455A64;" d="M52.451,152.442c-0.422,0-0.846-0.133-1.206-0.409c-1.671-1.278-3.146-3.077-4.644-5.66
					c-1.619-2.792-2.269-5.687-1.876-8.37c0.157-1.086,1.178-1.835,2.252-1.678c1.085,0.159,1.837,1.167,1.678,2.253
					c-0.261,1.787,0.217,3.794,1.383,5.803c1.227,2.118,2.377,3.547,3.62,4.498c0.872,0.666,1.038,1.913,0.371,2.785
					C53.638,152.174,53.048,152.442,52.451,152.442z"/>
			</g>
			<g>
				<path style="fill:#455A64;" d="M51.135,159.731c-0.204,0-0.41-0.032-0.615-0.098c-3.039-0.989-4.645-1.825-6.611-3.44
					c-2.448-2.01-3.762-4.552-4.633-6.542c-0.44-1.005,0.017-2.176,1.023-2.616c1.004-0.441,2.176,0.018,2.616,1.023
					c0.737,1.682,1.73,3.6,3.516,5.065c1.565,1.286,2.758,1.899,5.319,2.732c1.043,0.34,1.613,1.46,1.273,2.503
					C52.751,159.198,51.972,159.731,51.135,159.731z"/>
			</g>
		</g>
		<g>
			<path style="fill:#455A64;" d="M122.745,81.886c0.314,4.233,1.724,9.222,4.629,13.584c2.512,3.772,4.782,6.999,4.782,10.919
				s0,9.95,0,9.95s6.961,9.922,17.043,8.236c10.41-1.74,0.126-8.942,0.126-8.942v-8.639c0,0,1.254-10.819-5.566-17.718
				C136.939,82.377,122.745,81.886,122.745,81.886z"/>
			<g id="XMLID_97_">
				<g id="XMLID_98_">
					<path style="fill:#27DEBF;" d="M122.702,85.072c-1.47-8.095,0.953-16.596,10.637-22.744
						c9.684-6.138,30.739-1.659,33.143,13.438c2.096,13.1,0.775,20.013-1.212,27.184c-1.232,4.469-3.768,8.17-7.936,8.383
						c-3.95,0.201-10.402-0.227-15.131-2.238c-1.915-0.814-3.529-2.308-5.112-7.638C135.113,94.79,132.795,85.596,122.702,85.072z"
						/>
				</g>
			</g>
			<path style="fill:#455A64;" d="M143.056,82.687c-6.094-0.755-5.131,1.893-4.011,5.736c1.165,3.995,4.596,7.577,14.105,7.87
				c6.319,0.194,10.899-0.913,14.116-3.153c0.385-3.589,0.409-7.672-0.159-12.792c-1.633,1.102-4.466,2.079-7.154,2.442
				C154.065,83.584,149.291,83.459,143.056,82.687z"/>
			<path style="fill:#455A64;" d="M166.686,77.139c-0.066-0.456-0.128-0.902-0.204-1.373c-0.006-0.034-0.015-0.066-0.02-0.1
				c-0.847,1.591-2.331,2.358-3.897,2.828c-1.414-6.663-4.154-11.8-8.192-15.326c-1.297-1.132-2.645-2.016-4.001-2.722
				c-1.836-0.438-3.705-0.696-5.541-0.762c-3.778,0.915-6.999,2.618-9.614,5.131c-0.484,0.465-0.935,0.948-1.36,1.444
				c-2.291,0.035-4.406,0.42-6.382,0.983c-0.403,0.455-0.782,0.916-1.133,1.384c2.094-0.714,4.311-1.244,6.734-1.366
				c-4.812,6.364-5.441,14.588-5.376,18.998c0.35,0.163,0.68,0.346,1.003,0.537c-0.128-4.253,0.346-13.099,5.646-19.561
				c2.072,0.019,4.289,0.335,6.7,1.081c7.151,2.212,8.666,5.097,10.269,8.152l0.38,0.718c1.21,2.261,3.902,2.946,6.483,2.946
				c1.305,0,2.567-0.179,3.609-0.414c0.495,2.642,0.795,5.514,0.882,8.63c0.389,13.885-2.533,19.601-5.054,21.95
				c-0.516,0.481-1.018,0.824-1.484,1.074c0.418-0.007,0.824-0.018,1.2-0.037c0.232-0.012,0.457-0.038,0.679-0.071
				c0.081-0.069,0.159-0.125,0.24-0.199c2.691-2.477,5.813-8.433,5.412-22.744c-0.089-3.19-0.399-6.134-0.911-8.846
				C164.191,79.052,165.643,78.388,166.686,77.139z M152.574,76.715l-0.375-0.71c-1.702-3.242-3.31-6.305-10.856-8.639
				c-2.178-0.674-4.217-1.003-6.141-1.087c0.233-0.25,0.453-0.507,0.703-0.748c2.988-2.869,6.809-4.651,11.416-5.333
				c2.143,0.754,4.34,1.921,6.399,3.719c3.883,3.39,6.52,8.359,7.885,14.829C158.935,79.344,154.122,79.603,152.574,76.715z"/>
			<path style="fill:#27DEBF;" d="M150.198,90.933c0.901-0.067,1.555-2.089,3.384-2.43c1.829-0.341,2.812,2.083,3.692,2.013
				c0.88-0.07-0.291-4.221-3.728-4.034C150.589,86.642,149.465,90.987,150.198,90.933z"/>
			<path style="fill:#27DEBF;" d="M164.006,88.968c0.793-0.111,1.256-1.937,2.855-2.343c1.599-0.406,2.606,1.682,3.381,1.57
				c0.774-0.112-0.498-3.717-3.528-3.355C164.108,85.15,163.362,89.058,164.006,88.968z"/>
		</g>
	</g>
	<g id="Screen_4_">
		<path id="XMLID_8_" style="opacity:0.35;fill:#455A64;" d="M239.911,113.484c7.47-4.881,13.666-10.254,18.556-16.006
			c9.211-10.746,13.934-22.703,14.135-34.66v69.244v1.741c-0.301,18.351-11.22,36.665-32.691,50.665
			c-13.23,8.627-28.973,14.644-45.687,18.011v-70.985C210.939,128.127,226.681,122.111,239.911,113.484z"/>
		<path id="XMLID_7_" style="fill:none;stroke:#FFFFFF;stroke-width:1.0239;stroke-miterlimit:10;" d="M239.911,113.484
			c7.47-4.881,13.666-10.254,18.556-16.006c9.211-10.746,13.934-22.703,14.135-34.66v69.244v1.741
			c-0.301,18.351-11.22,36.665-32.691,50.665c-13.23,8.627-28.973,14.644-45.687,18.011v-70.985
			C210.939,128.127,226.681,122.111,239.911,113.484z"/>
	</g>
	<g id="Screen_1_">
		<g style="opacity:0.35;">
			<path id="XMLID_6_" style="fill:#455A64;" d="M27.238,98.454v91.469c35.027,16.169,86.607,17.293,119.864,10.627
				c20.565-4.122,37.609-11.682,53.014-20.565c3.961-2.281,7.602-4.682,10.923-7.203V81.354c-3.321,2.481-6.962,4.882-10.923,7.162
				c-15.405,8.923-33.73,15.085-53.177,18.566C120.97,111.763,62.841,111.391,27.238,98.454z"/>
		</g>
		<g>
			<path id="XMLID_5_" style="opacity:0.4;fill:none;stroke:#FFFFFF;stroke-width:1.0239;stroke-miterlimit:10;" d="M27.238,98.454
				v91.469c35.027,16.169,86.607,17.293,119.864,10.627c20.565-4.122,37.609-11.682,53.014-20.565
				c3.961-2.281,7.602-4.682,10.923-7.203V81.354c-3.321,2.481-6.962,4.882-10.923,7.162c-15.405,8.923-33.73,15.085-53.177,18.566
				C120.97,111.763,62.841,111.391,27.238,98.454z"/>
		</g>
	</g>
</g>
<g id="Character">
	<g id="Character_1_">
		<path style="fill:#37474F;" d="M365.213,115.826c-11.256,0-14.639,3.945-19.128,10.355c-4.489,6.41-19.743,30.683-19.743,30.683
			l-21.617,8.301l2.846,12.613c0,0,18.294-3.647,27.649-5.565c3.063-0.628,4.437-1.79,5.88-3.993
			c1.198-1.829,13.217-20.735,13.217-20.735L365.213,115.826z"/>
		<g id="XMLID_73_">
			<polygon style="fill:#27DEBF;" points="291.61,145.39 332.066,159.664 343.202,207.804 342.299,208.766 303.836,194.4 
				290.707,146.352 			"/>
			<polygon style="opacity:0.35;" points="331.163,160.625 342.299,208.766 343.202,207.804 332.066,159.664 			"/>
			<polygon id="XMLID_86_" style="opacity:0.25;" points="290.707,146.352 331.163,160.625 342.299,208.766 303.836,194.4 			"/>
			<g id="XMLID_84_" style="opacity:0.2;">
				<path id="XMLID_85_" d="M309.851,184.615c-0.375,0.946-3.474,3.028-7.963,2.654l-0.76-2.779L309.851,184.615z"/>
			</g>
			<g id="XMLID_82_" style="opacity:0.1;">
				<path id="XMLID_83_" d="M302.894,156.212c0,0-0.149-0.723-0.334-1.614c-0.184-0.891,2.19-0.423,5.303,1.046l7.302,2.211
					c3.113,1.469,6.055,2.563,6.239,3.454l0.334,1.614L302.894,156.212z"/>
			</g>
			<g id="XMLID_80_">
				<path id="XMLID_81_" style="fill:#37474F;" d="M300.49,148.912c-0.117-0.558,0.806-0.443,2.098-0.101l2.33,0.793
					c0,0-0.949-2.34,4.565-0.847c6.067,1.643,6.197,4.672,6.197,4.672s0.692,0.341,2.915,1.063c2.014,0.654,2.237,1.049,2.402,1.614
					l0.298,1.024l-20.621-7.263C300.673,149.868,300.607,149.469,300.49,148.912z"/>
			</g>
			<g id="XMLID_78_">
				<path id="XMLID_79_" style="fill:#37474F;" d="M302.657,152.008c1.91,0.867,2.703,1.289,2.988,2.663
					c0.326,1.57,0.394,2.224,0.394,2.224l10.739,4.237c0,0-0.582-2.311-0.724-3.081c-0.143-0.771,1.277-0.777,3.138,0.083
					l-0.443-1.927l-16.699-6.21L302.657,152.008z"/>
			</g>
			<g id="XMLID_76_">
				<path id="XMLID_77_" style="fill:#37474F;" d="M302.34,156.24c0,0-0.149-0.722-0.334-1.614c-0.184-0.892,2.19-0.423,5.303,1.046
					l7.302,2.211c3.113,1.469,6.055,2.563,6.239,3.455l0.334,1.614L302.34,156.24z"/>
			</g>
			<g id="XMLID_74_">
				<path id="XMLID_75_" style="fill:#FFA8A7;" d="M295.207,162.821c0,0,1.433,5.279,1.808,6.616
					c0.375,1.337,7.003,4.392,10.32,4.806c6.343,0.791,7.064,2.166,5.538,6.673c-1.407,4.156-5.538,5.72-11.265,5.045
					c-2.684-0.316-6.398-2.699-7.854-6.859c-1.858-5.307-0.857-10.976-1.595-14.076
					C291.422,161.927,293.592,160.972,295.207,162.821z"/>
			</g>
		</g>
		<g id="XMLID_66_">
			<polygon id="XMLID_72_" style="fill:#FFA8A7;" points="408.145,377.639 395.995,377.639 393.574,356.133 408.145,356.133 			"/>
			<polygon id="XMLID_71_" style="fill:#FFA8A7;" points="367.375,356.839 354.433,357.348 354.523,335.077 369.162,334.705 			"/>
			<path id="XMLID_70_" style="fill:#37474F;" d="M407.568,203.515c0.236,11.794,2.733,89.827,2.733,89.827
				c0.253,2.984,1.325,8.477,1.548,19.226c0.324,15.588-2.942,52.596-2.942,52.596c-0.723,3.366-13.29,4.731-14.954,1.694
				c0,0-6.865-53.681-8.812-69.11c-1.698-13.466-7.303-57.497-7.303-57.497l-4.34,43.232c0,0,0.317,5.924-0.339,15.153
				c-0.508,7.137-4.09,49.245-4.09,49.245c-0.062,2.622-13.122,4.794-15.328,0.924c0,0-4.131-61.469-4.256-68.017
				c-0.143-7.465,0.899-78.116,0.899-78.116L407.568,203.515z"/>
			<path id="XMLID_69_" style="fill:#263238;" d="M395.3,371.464c0,0-0.205-1.836-0.207-1.836c-0.673-0.014-0.964,0.757-1.238,2.371
				c-0.734,4.312-2.009,7.41-3.221,9.898c-2.067,4.247-3.267,6.006-7.334,11.122c-0.965,1.214-3.142,3.142-3.902,4.494
				c-0.759,1.352-1.026,5.113,0.264,5.973c4.743,3.162,11.946,3.25,17.041,1.757c3.919-1.149,6.567-3.67,7.398-8.312
				c0.831-4.641,1.261-7.507,3.625-11.018c0.867-1.287,2.269-2.321,2.856-3.758c1.055-2.582,0.209-5.487-0.465-8.059
				c-0.582-2.221-1.214-4.663-1.972-4.455c-0.002,0.271,0,1.37,0,1.37c-0.912,1.011-4.106,2.014-6.952,2.123
				C399.355,373.204,395.285,372.866,395.3,371.464z"/>
			<path id="XMLID_68_" style="fill:#263238;" d="M354.447,353.836c-0.318,0.216-1.048,1.066-2.341,2.279
				c-1.139,1.068-2.257,1.84-4.171,3.265c-3.024,2.253-5.723,3.928-9.285,5.91c-3.84,2.136-7.303,3.449-11.894,5.556
				c-0.47,0.216-0.939,0.472-1.281,0.861c-0.284,0.322-0.459,0.73-0.554,1.149c-0.387,1.713,0.574,3.508,1.956,4.591
				c1.382,1.082,3.12,1.588,4.822,2.017c3.864,0.974,8.145,1.282,12.003,0.284c3.406-0.881,6.654-2.614,9.612-4.517
				c2.523-1.623,5.22-3.133,8.226-3.591c2.579-0.393,5.763-0.287,7.994-1.845c2.48-1.732,1.461-5.394,0.737-8.54
				c-0.79-3.434-0.997-8.681-2.562-8.559l-0.111,1.375c-0.129,1.487-3.72,2.191-6.505,2.212c-2.306,0.017-6.671-0.56-6.662-1.645
				C354.432,354.638,354.447,353.847,354.447,353.836z"/>
			<path id="XMLID_67_" style="fill:#263238;" d="M376.503,223.735c0,0-6.815-2.294-13.258-8.52c0,0,2.114,6.18,10.792,11.265
				l-0.571,53.844l4.373-40.072L376.503,223.735z"/>
		</g>
		<g id="XMLID_64_">
			<path id="XMLID_65_" style="fill:#27DEBF;" d="M388.14,115.165c2.201,0.53,9.047,1.454,14.724,3.455
				c3.845,1.355,6.427,4.403,7.166,5.482c4.121,6.021,0.404,19.388-2.63,44.584c0.233,16.271,0.699,36.495,0.699,36.495
				c-7.48,5.448-42.374,9.151-58.116-2.344c0,0,0.787-47.385,2.528-59.315c2.213-15.165,9.703-27.727,18.272-28.659L388.14,115.165z
				"/>
		</g>
		<g id="XMLID_48_">
			<g id="XMLID_56_">
				<path id="XMLID_63_" style="fill:#455A64;" d="M384.31,79.136c-0.21,8.779-7.497,15.726-16.276,15.516
					c-8.78-0.21-15.727-7.497-15.517-16.276c0.21-8.78,7.497-15.727,16.276-15.517C377.572,63.07,384.519,70.357,384.31,79.136z"/>
				<path id="XMLID_62_" style="fill:#455A64;" d="M395.622,90.715c0,0-2.865,12.041-3.946,14.005
					c-1.08,1.964-3.229,2.478-3.229,2.478l0.384-8.509L395.622,90.715z"/>
				<path id="XMLID_61_" style="fill:#455A64;" d="M392.803,73.301c0,0,2.786-0.409,4.896,1.854
					c2.068,2.219,0.722,8.977-2.077,15.561l-4.866,0.441L392.803,73.301z"/>
				<path id="XMLID_60_" style="fill:#FFA8A7;" d="M389.301,91.126c0.959,0.604,2.392-1.231,3.622-2.458
					c1.23-1.227,5.188-2.849,7.044,1.315c1.89,4.243-1.958,9.699-5.065,10.593c-5.354,1.541-6.07-1.887-6.07-1.887l-0.911,21.701
					l0,0c-3.787,4.623-12.711,4.884-17.136,3.987c-3.532-0.716-3.589-3.219-0.103-7.066l0.163-6.217c0,0-4.833,0.616-7.173,0.197
					c-3.894-0.697-6.293-3.836-7.364-8.099c-1.634-6.508-2.036-13.772-0.399-25.669c2.011-14.62,19.161-14.35,28.222-8.34
					C393.192,75.194,389.301,91.126,389.301,91.126z"/>
				<path id="XMLID_59_" style="fill:#455A64;" d="M389.262,92.763c0.489,0.021,2.424-3.022,3.661-4.095
					c1.715-1.487-0.12-15.367-0.12-15.367s2.169-3.859-0.977-7.493c-2.239-2.585-5.371-5.751-15.833-4.767
					c-7.457,0.701-15.607,2.828-22.069-0.541c-1.076,4.046-0.394,8.603,3.594,11.915c0,0,2.331,1.582,8.538,2.489
					c6.208,0.906,15.925,0.235,17.255,0.085c1.811-0.204,2.155,1.555,3.014,6.358C387.079,85.563,387.618,92.692,389.262,92.763z"/>
				<path id="XMLID_58_" style="fill:#455A64;" d="M392.768,74.376l5.958-3.017c-0.795-1.705-2.773-2.413-4.418-1.579
					C392.663,70.613,391.973,72.67,392.768,74.376z"/>
				<path id="XMLID_57_" style="fill:#F28F8F;" d="M370.843,111.095c0,0,8.766-1.549,11.855-3.098
					c2.067-1.036,3.794-2.877,4.316-4.071c0,0-0.633,2.575-2.513,4.863c-2.299,2.798-13.718,4.803-13.718,4.803L370.843,111.095z"/>
			</g>
			<g id="XMLID_49_">
				<path id="XMLID_55_" style="fill:#263238;" d="M373.784,88.993c0.051,1.002,0.875,1.773,1.839,1.721
					c0.965-0.052,1.704-0.906,1.653-1.909c-0.051-1.002-0.874-1.772-1.839-1.72C374.473,87.136,373.733,87.991,373.784,88.993z"/>
				<path id="XMLID_54_" style="fill:#263238;" d="M374.913,82.411l3.842,1.871c0.496-1.102,0.038-2.414-1.023-2.93
					C376.671,80.835,375.408,81.309,374.913,82.411z"/>
				<path id="XMLID_53_" style="fill:#B16668;" d="M373.663,100.171l-6.341,1.735c0.445,1.812,2.225,2.894,3.976,2.415
					C373.05,103.842,374.108,101.984,373.663,100.171z"/>
				<path style="fill:#F28F8F;" d="M373.66,101.795c-0.359-0.204-0.767-0.33-1.209-0.33c-1.359,0-2.462,1.102-2.462,2.462
					c0,0.163,0.018,0.322,0.048,0.476c0.409,0.056,0.836,0.035,1.261-0.081C372.516,103.988,373.385,102.983,373.66,101.795z"/>
				<path id="XMLID_52_" style="fill:#263238;" d="M356.815,84.034l4.074-1.396c-0.346-1.149-1.539-1.767-2.663-1.381
					C357.1,81.642,356.468,82.885,356.815,84.034z"/>
				<path id="XMLID_51_" style="fill:#263238;" d="M358.384,88.283c-0.092,0.999,0.613,1.879,1.575,1.965
					c0.962,0.086,1.816-0.655,1.908-1.654c0.092-0.999-0.613-1.879-1.575-1.965C359.33,86.543,358.476,87.284,358.384,88.283z"/>
				<polygon id="XMLID_50_" style="fill:#F28F8F;" points="368.269,87.506 367.638,98.02 362.157,96.119 				"/>
			</g>
		</g>
		<path style="fill:#455A64;" d="M388.169,114.459l-0.17,4.058c0,0-3.951,17.194-5.099,26.202
			c-1.601,12.558-1.295,47.998-0.441,70.496c0.622,16.386,3.07,46.676,3.07,46.676s4.043,0.816,13.808-0.796
			c8.313-1.372,12.521-3.839,14.305-4.904c0,0-1.543-46.055-2.708-62.132c-1.075-14.83-1.039-22.985-1.039-22.985l3.497-33.846
			c0,0-0.44-18.356-8.678-20.278C396.367,115.001,388.169,114.459,388.169,114.459z"/>
		<g>
			<path style="fill:#FFA8A7;" d="M408.8,226.514c1.692-2.878,1.779-5.015,4.322-7.581c0.947-0.957,1.602-1.779,2.301-3.834
				c0.782-2.297,0.738-4.701,0.922-7.212l14.762,0.681c-0.106,4.618-0.704,11.463-1.814,16.341
				c-2.807,12.334-5.513,17.518-10.813,18.715c-8.457,1.91-10.542-1.732-7.568-7.839c2.195-4.506,2.711-8.051,2.711-8.051
				c-1.484,1.526-2.15,2.232-3.155,2.817c-1.999,1.164-3.541,0.241-4.015-0.442C406.086,229.578,407.475,228.767,408.8,226.514z"/>
			<path style="fill:#37474F;" d="M404.714,116.948c0,0,7.999,0.377,12.397,4.344c4.398,3.967,6.74,14.572,9.599,25.202
				c2.859,10.63,5.375,20.96,6.129,28.354c0.63,6.179-1.433,38.683-1.433,38.683s-8.984,1.891-15.889-1.892l-0.292-36.128
				l-11.409-36.2C403.817,139.31,400.096,128.491,404.714,116.948z"/>
		</g>
		<g>
			<path style="fill:#455A64;" d="M370.784,114.459c-1.348,0.116-5.571,0.613-8.148,1.443c-2.842,0.915-4.509,3.258-6.372,7.269
				c-2.732,5.881-5.306,11.903-6.792,39.206c-1.431,26.279-2.347,94.236-2.347,94.236s4.293,2.074,8.871,1.797
				c0,0,0.653-81.589,1.66-100.16c1.148-21.192,4.635-31.798,8.66-37.924c1.953-3.209,3.714-4.44,4.468-4.711V114.459z"/>
		</g>
		<g id="XMLID_43_">
			<path id="XMLID_45_" style="fill:#27DEBF;" d="M352.677,94.489c1.235,1.345,2.989,2.112,4.812,2.112l0.667-0.01
				c2.889,0,4.274-1.744,5.44-4.453c0.329-0.777,1.026-2.082,1.903-2.082c0.887,0,1.574,1.305,1.913,2.082
				c1.176,2.7,3.796,4.443,6.675,4.434h3.836c1.793,0,3.507-0.757,4.712-2.082c1.206-1.315,1.813-3.098,1.654-4.882v-0.07
				c-0.179-1.973-0.398-4.424-0.668-5.858c-1.006-5.161-7.143-6.127-18.132-6.117c-10.989,0.02-12.882,1.006-13.868,6.157
				c-0.259,1.395-0.468,3.766-0.638,5.669v0.12C350.824,91.33,351.442,93.144,352.677,94.489z M352.936,89.677
				c0.159-1.833,0.369-4.274,0.618-5.589c0.608-3.188,0.159-4.543,11.936-4.553c11.776-0.02,15.582,1.325,16.2,4.513
				c0.259,1.355,0.478,3.856,0.648,5.729c0.229,2.59-1.813,4.822-4.414,4.832h-3.836c-2.142,0-4.025-1.295-4.872-3.258
				c-0.707-1.624-1.873-3.258-3.716-3.258c-1.843,0.01-2.999,1.634-3.706,3.268c-0.847,1.963-1.504,3.268-3.637,3.268l-0.667,0.01
				C354.809,94.638,352.707,92.347,352.936,89.677z"/>
			<path id="XMLID_44_" style="opacity:0.71;fill:#37474F;" d="M352.936,89.677c-0.229,2.67,1.873,4.961,4.553,4.961l0.667-0.01
				c2.132,0,2.79-1.305,3.637-3.268c0.707-1.634,1.863-3.258,3.706-3.268c1.843,0,3.009,1.634,3.716,3.258
				c0.847,1.963,2.73,3.258,4.872,3.258h3.836c2.6-0.01,4.643-2.242,4.414-4.832c-0.169-1.873-0.388-4.374-0.648-5.729
				c-0.618-3.188-4.424-4.533-16.2-4.513c-11.776,0.01-11.328,1.365-11.936,4.553C353.305,85.403,353.095,87.844,352.936,89.677z"/>
		</g>
	</g>
</g>
<g id="Speech_Bubble">
	<g id="Speech_Bubble_1_">
		<g>
			<g id="XMLID_39_">
				<path id="XMLID_42_" style="fill:#27DEBF;" d="M423.528,91.921L411.1,80.25c-0.532-0.576-0.076-1.506,0.706-1.437l11.722,1.022
					V91.921z"/>
				<path id="XMLID_41_" style="fill:#27DEBF;" d="M433.539,74.081l-10.011,5.758l-11.725-1.026c-0.148-0.01-0.286,0.01-0.405,0.059
					c0.937-0.553,9.508-5.482,9.932-5.709c0.138-0.079,0.306-0.118,0.493-0.099L433.539,74.081z"/>
				<path id="XMLID_40_" style="opacity:0.5;fill:#FFFFFF;" d="M433.539,74.081l-10.011,5.758l-11.725-1.026
					c-0.148-0.01-0.286,0.01-0.405,0.059c0.937-0.553,9.508-5.482,9.932-5.709c0.138-0.079,0.306-0.118,0.493-0.099L433.539,74.081z
					"/>
			</g>
			<g>
				<path id="XMLID_38_" style="fill:#27DEBF;" d="M432.563,54.494l34.867,20.088c0.769,0.444,1.393,1.524,1.393,2.412v44.775
					c0,0.888-0.627,1.962-1.4,2.399l-4.99,2.797c-0.774,0.437-2.024,0.43-2.793-0.014l-34.867-20.087
					c-0.769-0.444-1.393-1.524-1.393-2.412V59.676c0-0.888,0.627-1.962,1.401-2.399l4.99-2.797
					C430.543,54.044,431.794,54.05,432.563,54.494z"/>
				<path id="XMLID_37_" style="fill:#27DEBF;" d="M461.032,126.147V81.372c0-0.888-0.624-1.968-1.393-2.412l-34.867-20.088
					c-0.769-0.444-1.393-0.084-1.393,0.804v44.775c0,0.888,0.624,1.968,1.393,2.412l34.867,20.087
					C460.408,127.395,461.032,127.035,461.032,126.147z"/>
				<path id="XMLID_36_" style="opacity:0.2;" d="M459.639,126.951c0.741,0.43,2.096,0.445,2.796,0.016l4.987-2.802
					c0.772-0.431,1.402-1.505,1.402-2.393V76.993c0-0.463-0.174-0.971-0.444-1.422l-7.759,4.43c0.257,0.431,0.411,0.926,0.411,1.37
					v44.772C461.032,126.957,460.459,127.426,459.639,126.951z"/>
				<path id="XMLID_35_" style="opacity:0.4;fill:#FFFFFF;" d="M423.398,59.424c0.109-0.701,0.682-0.952,1.377-0.553l34.862,20.089
					c0.386,0.225,0.733,0.605,0.984,1.042l7.766-4.43c-0.251-0.418-0.586-0.778-0.959-0.991L432.56,54.492
					c-0.766-0.444-2.014-0.45-2.792-0.013l-4.987,2.796C424.08,57.674,423.495,58.594,423.398,59.424z"/>
			</g>
		</g>
		<g id="XMLID_29_">
			<g id="XMLID_30_">
				<path id="XMLID_31_" style="fill:#FFFFFF;" d="M428.272,90.091l1.457,4.893c0.067,0.231,0.359,0.474,0.654,0.544l2.886,0.696
					c0.295,0.07,0.62,0.313,0.736,0.544c0.456,0.918,0.973,1.824,1.551,2.697c0.149,0.225,0.231,0.569,0.173,0.766l-0.94,3.181
					c-0.058,0.195,0.058,0.529,0.259,0.739l3.378,3.567c0.164,0.173,0.362,0.228,0.49,0.149c0.03-0.015,0.055-0.039,0.076-0.07
					l1.575-2.405c0.11-0.17,0.402-0.158,0.657,0.018c0.31,0.21,0.62,0.408,0.927,0.587c0.325,0.189,0.654,0.362,0.976,0.514
					c0.283,0.137,0.587,0.42,0.672,0.651l1.669,4.47c0.085,0.228,0.386,0.438,0.672,0.468l3.074,0.304
					c0.115,0.012,0.216-0.009,0.289-0.052c0.003-0.003,0.006-0.003,0.009-0.006c0.103-0.064,0.155-0.17,0.128-0.301l-0.97-4.403
					c-0.052-0.225,0.097-0.465,0.316-0.55c0.484-0.189,0.934-0.447,1.344-0.782c0.164-0.134,0.465-0.085,0.687,0.116l3.141,2.873
					c0.119,0.107,0.24,0.161,0.344,0.161h0.003c0.04,0,0.076-0.009,0.113-0.027c0,0,0.003,0,0.009-0.003c0,0,0,0,0-0.003
					c0.037-0.021,0.067-0.052,0.085-0.097l1.399-3.089c0.082-0.185,0.003-0.514-0.179-0.733l-2.944-3.567
					c-0.182-0.219-0.307-0.565-0.286-0.778c0.076-0.806,0.073-1.66-0.006-2.542c-0.018-0.222,0.176-0.414,0.444-0.429l2.64-0.149
					c0.264-0.015,0.429-0.213,0.359-0.441l-1.453-4.896c-0.07-0.228-0.362-0.471-0.654-0.541l-2.889-0.696
					c-0.292-0.07-0.617-0.316-0.733-0.547c-0.459-0.918-0.976-1.821-1.554-2.694c-0.149-0.228-0.228-0.572-0.17-0.766l0.939-3.184
					c0.058-0.195-0.058-0.526-0.262-0.739l-3.375-3.567c-0.204-0.21-0.456-0.246-0.569-0.076l-1.572,2.402
					c-0.112,0.17-0.401,0.158-0.66-0.015c-0.638-0.438-1.274-0.806-1.903-1.104c-0.283-0.134-0.587-0.417-0.672-0.648l-1.667-4.47
					c-0.085-0.231-0.386-0.441-0.672-0.468l-3.074-0.307c-0.116-0.009-0.216,0.009-0.292,0.052c-0.11,0.064-0.164,0.176-0.134,0.31
					l0.97,4.4c0.049,0.228-0.1,0.465-0.316,0.55c-0.486,0.188-0.937,0.447-1.344,0.781c-0.164,0.134-0.465,0.088-0.687-0.115
					l-3.144-2.871c-0.161-0.149-0.334-0.198-0.45-0.14c-0.006,0.003-0.012,0.006-0.018,0.009c-0.037,0.021-0.067,0.055-0.085,0.097
					l-1.399,3.093c-0.082,0.182-0.003,0.511,0.179,0.733l2.944,3.564c0.182,0.222,0.307,0.569,0.289,0.778
					c-0.043,0.426-0.061,0.864-0.058,1.311c0.003,0.401,0.024,0.815,0.061,1.231c0.021,0.222-0.176,0.414-0.444,0.429l-2.636,0.149
					c-0.073,0.003-0.14,0.021-0.192,0.049c-0.006,0.003-0.012,0.006-0.015,0.009C428.291,89.784,428.227,89.93,428.272,90.091z
					 M439.842,99.067c-3.15-3.324-4.646-8.359-3.342-11.245c0.511-1.125,1.368-1.757,2.417-1.909
					c0.04-0.009,0.079-0.012,0.119-0.015c0.037-0.006,0.073-0.009,0.113-0.012c0.036-0.003,0.073-0.006,0.109-0.006
					c0.009-0.003,0.015-0.003,0.024-0.003c0.675-0.03,1.414,0.125,2.18,0.462c0.255,0.109,0.517,0.243,0.776,0.395
					c0.778,0.453,1.566,1.083,2.329,1.888c2.363,2.496,3.795,5.951,3.813,8.739c0.003,0.307-0.012,0.605-0.049,0.894
					c-0.064,0.584-0.204,1.128-0.423,1.612c-0.584,1.294-1.634,1.933-2.896,1.948c-0.031,0-0.061,0-0.092,0
					c-0.065-0.001-0.131-0.003-0.197-0.007c-0.105-0.007-0.21-0.015-0.317-0.031c-0.091-0.012-0.182-0.027-0.274-0.046
					c-0.04-0.009-0.079-0.015-0.122-0.027c-0.058-0.012-0.113-0.027-0.17-0.043C442.564,101.332,441.162,100.46,439.842,99.067z"/>
			</g>
		</g>
	</g>
</g>
</svg>
