<?xml version="1.0" encoding="utf-8"?>
<!-- Generator: Adobe Illustrator 27.5.0, SVG Export Plug-In . SVG Version: 6.00 Build 0)  -->
<svg version="1.1" xmlns="http://www.w3.org/2000/svg" xmlns:xlink="http://www.w3.org/1999/xlink" x="0px" y="0px"
	 viewBox="0 0 500 500" style="enable-background:new 0 0 500 500;" xml:space="preserve">
<g id="Floor">
	<ellipse id="Floor_4_" style="fill:#F5F5F5;" cx="250" cy="356.607" rx="229.29" ry="132.38"/>
</g>
<g id="Plants">
	<g id="Plants_3_">
		<g id="XMLID_688_">
			<g id="XMLID_696_">
				<path style="fill:#BA68C8;" d="M465.919,242.932c-2.098,3.678-5.238,8.749-8.192,14.233c-4.421,8.205-8.411,17.333-7.807,24.077
					l-0.033,0.684c0,0,0,0,0,0.007l-0.518,10.356l-0.066,1.407l-2.45-1.414l-6.021-3.478c-1.693-9.626-2.702-19.145-0.146-33.822
					c2.363-13.542,11.843-28.419,19.835-29.229C467.97,224.989,471.156,233.751,465.919,242.932z"/>
				<path style="opacity:0.25;fill:#FFFFFF;" d="M465.919,242.932c-2.098,3.678-5.238,8.749-8.192,14.233
					c-4.421,8.205-8.411,17.333-7.807,24.077l-0.033,0.684c0,0,0,0,0,0.007l-0.518,10.356l-0.066,1.407l-2.45-1.414l-6.021-3.478
					c-1.693-9.626-2.702-19.145-0.146-33.822c2.363-13.542,11.843-28.419,19.835-29.229
					C467.97,224.989,471.156,233.751,465.919,242.932z"/>
			</g>
			<g id="XMLID_689_">
				<path id="XMLID_695_" style="fill:#FFFFFF;" d="M444.154,288.416c0.193-0.081,0.317-0.284,0.29-0.501
					c-3.128-25.077,7.197-48.196,17.692-56.562c0.207-0.165,0.241-0.467,0.076-0.674c-0.164-0.206-0.462-0.247-0.674-0.076
					c-10.668,8.503-21.217,32.01-18.046,57.43c0.032,0.263,0.272,0.448,0.534,0.416
					C444.071,288.444,444.114,288.433,444.154,288.416z"/>
			</g>
		</g>
		<g id="XMLID_661_">
			<g id="XMLID_686_">
				<path style="fill:#BA68C8;" d="M475.106,258.805c-0.83,4.859-9.652,10.575-15.487,18.441c-5.264,7.11-7.561,14.319-7.369,18.149
					l-0.013-0.007l-2.934-1.693l-2.45-1.414c-1.341-17.784,3.983-29.355,10.874-35.117c1.686-1.407,3.459-2.469,5.258-3.193
					C470.732,250.872,476.095,252.976,475.106,258.805z"/>
				<path style="opacity:0.6;fill:#FFFFFF;" d="M475.106,258.805c-0.83,4.859-9.652,10.575-15.487,18.441
					c-5.264,7.11-7.561,14.319-7.369,18.149l-0.013-0.007l-2.934-1.693l-2.45-1.414c-1.341-17.784,3.983-29.355,10.874-35.117
					c1.686-1.407,3.459-2.469,5.258-3.193C470.732,250.872,476.095,252.976,475.106,258.805z"/>
			</g>
			<g id="XMLID_675_">
				<path id="XMLID_682_" style="fill:#FFFFFF;" d="M449.483,292.253c0.168-0.073,0.285-0.238,0.289-0.433
					c0.301-20.374,11.977-31.475,18.109-34.499c0.237-0.117,0.335-0.405,0.218-0.642c-0.117-0.238-0.395-0.339-0.642-0.218
					c-6.78,3.343-18.336,14.549-18.643,35.345c-0.004,0.264,0.208,0.482,0.472,0.486
					C449.356,292.294,449.423,292.279,449.483,292.253z"/>
			</g>
		</g>
	</g>
	<g id="Plants_12_">
		<g id="XMLID_653_">
			<g id="XMLID_660_">
				<path style="fill:#BA68C8;" d="M64.873,287.985l-9.124,5.267c-0.517-26.753-17.88-46.349-26.251-56.712
					c-8.513-10.551,3.261-16.868,13.177-12.236c9.924,4.641,17.966,16.5,21.289,31.926
					C66.801,269.416,65.351,284.027,64.873,287.985z"/>
				<path style="opacity:0.25;fill:#FFFFFF;" d="M64.873,287.985l-9.124,5.267c-0.517-26.753-17.88-46.349-26.251-56.712
					c-8.513-10.551,3.261-16.868,13.177-12.236c9.924,4.641,17.966,16.5,21.289,31.926
					C66.801,269.416,65.351,284.027,64.873,287.985z"/>
			</g>
			<g id="XMLID_657_">
				<path id="XMLID_659_" style="fill:#FFFFFF;" d="M60.998,287.17c0.039,0.007,0.079,0.011,0.12,0.009
					c0.322-0.008,0.576-0.276,0.566-0.599c-0.927-33.685-12.146-50.55-25.109-59.126c-0.266-0.18-0.629-0.103-0.808,0.164
					c-0.178,0.269-0.104,0.63,0.165,0.808c12.788,8.461,23.672,24.982,24.587,58.186C60.527,286.894,60.733,287.122,60.998,287.17z"
					/>
			</g>
		</g>
		<g id="XMLID_314_">
			<g id="XMLID_329_">
				<path id="XMLID_652_" style="fill:#BA68C8;" d="M15.89,257.47c0.192,1.864,1.694,3.29,3.132,4.496
					c1.43,1.196,2.999,2.504,3.392,4.335c0.789,3.696-3.591,7.108-2.644,10.766c0.398,1.534,1.689,2.694,3.086,3.443
					c1.157,0.632,2.413,1.039,3.629,1.55c0.605,0.183,1.215,0.333,1.822,0.44c1.796,0.309,3.683,0.834,4.968,2.223
					c2.02,2.194,1.764,5.563,2.482,8.458c0.862,3.468,2.922,5.5,7.642,7.149l16.155-9.159c4.03-4.104,5.448-11.122,1.74-15.892
					c-2.225-2.863-6.394-3.225-8.495-6.088c-1.885-2.569-0.793-6.279-1.951-9.247c-1.173-3.005-4.229-3.991-7.129-4.494
					c-2.987-0.518-5.977,0.692-8.809-0.341c-2.831-1.033-5.457-2.704-8.392-3.439c-2.854-0.714-6.087-0.458-8.458,1.42
					C16.727,254.145,15.717,255.779,15.89,257.47z"/>
				<path id="XMLID_651_" style="opacity:0.6;fill:#FFFFFF;" d="M15.89,257.47c0.192,1.864,1.694,3.29,3.132,4.496
					c1.43,1.196,2.999,2.504,3.392,4.335c0.789,3.696-3.591,7.108-2.644,10.766c0.398,1.534,1.689,2.694,3.086,3.443
					c1.157,0.632,2.413,1.039,3.629,1.55c0.605,0.183,1.215,0.333,1.822,0.44c1.796,0.309,3.683,0.834,4.968,2.223
					c2.02,2.194,1.764,5.563,2.482,8.458c0.862,3.468,2.922,5.5,7.642,7.149l16.155-9.159c4.03-4.104,5.448-11.122,1.74-15.892
					c-2.225-2.863-6.394-3.225-8.495-6.088c-1.885-2.569-0.793-6.279-1.951-9.247c-1.173-3.005-4.229-3.991-7.129-4.494
					c-2.987-0.518-5.977,0.692-8.809-0.341c-2.831-1.033-5.457-2.704-8.392-3.439c-2.854-0.714-6.087-0.458-8.458,1.42
					C16.727,254.145,15.717,255.779,15.89,257.47z"/>
			</g>
			<path style="fill:#FFFFFF;" d="M46.009,272.053c-0.026-0.068-0.069-0.126-0.127-0.173c-7.593-10.765-19.496-15.878-23.519-16.777
				c-0.224-0.048-0.452,0.092-0.504,0.32c-0.051,0.227,0.092,0.453,0.319,0.503c3.814,0.852,14.866,5.577,22.306,15.454
				c-10.563-3.394-18.447,1.553-18.529,1.606c-0.196,0.126-0.251,0.387-0.125,0.583c0.078,0.12,0.207,0.188,0.34,0.193
				c0.083,0.003,0.168-0.019,0.243-0.067c0.081-0.052,8.202-5.151,18.928-1.141c3.901,5.616,6.597,12.786,6.316,21.721
				c-0.007,0.221,0.158,0.408,0.374,0.432c0.012,0.001,0.023,0.002,0.034,0.002c0.232,0.007,0.427-0.175,0.434-0.408
				C52.788,285.143,50.015,277.801,46.009,272.053z"/>
		</g>
	</g>
</g>
<g id="Shadows">
	<path id="Shadow_12_" style="fill:#E0E0E0;" d="M367.162,435.523l-124.316-71.774c-7.174-4.142-7.174-10.858,0-15l30.888-17.833
		c7.174-4.142,18.806-4.142,25.981,0L424.03,402.69c7.174,4.142,7.174,10.858,0,15l-30.888,17.833
		C385.968,439.666,374.336,439.666,367.162,435.523z"/>
	<path id="Shadow_11_" style="fill:#E0E0E0;" d="M92.934,394.803c10.298,3.636,20.157,8.514,29.294,14.496
		c10.27,6.723,19.665,14.851,30.599,20.428c14.21,7.248,30.507,9.847,46.439,9.062c9.025-0.444,18.833-2.396,24.582-9.367
		c1.472-1.785,2.642-3.949,2.664-6.263c0.032-3.397-2.356-6.305-4.825-8.638c-13.171-12.449-31.507-17.542-49.188-21.518
		c-17.682-3.976-28.293-8.969-45.67-17.968c-7.437-3.852-14.767-7.992-22.26-11.623c-0.061-0.029-0.121-0.059-0.182-0.088
		c-3.804-1.833-7.377-3.862-11.386-5.29c-6.395-2.278-12.942-4.27-19.688-5.024s-13.741-0.222-20.003,2.398
		c-1.612,0.674-3.238,1.544-4.199,3.004c-0.813,1.235-1.058,2.769-1.008,4.246c0.103,3.01,1.353,5.902,3.129,8.335
		c1.776,2.433,4.06,4.449,6.431,6.306C68.007,385.396,80.638,390.461,92.934,394.803z"/>
</g>
<g id="Character">
	<g id="Character_7_">
		<g id="Bottom">
			<g>
				<path style="fill:#874C4C;" d="M179.454,197.442L136.86,199.9c0,0-3.232,13.842-4.453,24.349
					c-1.221,10.508,4.801,20.852,4.801,20.852l2.646,17.935c-20.099,5.625-27.817,17.265-37.534,28.229
					c-7.068,7.976-11.607,13.106-17.65,16.459c-6.044,3.353-8.422,5.027,0.767,12.879c4.97,4.246,9.66,3.013,9.66,3.013
					s35.545-19.808,54.523-30.09l0,0c14.367-6.829,16.638-7.159,21.337-20.842C180.666,244.413,180.909,208.096,179.454,197.442z"/>
				<path style="fill:#263238;" d="M179.454,197.442l-43.835,2.424c0,0-4.23,19.773-4.452,28.175
					c-0.221,8.402,5.173,16.515,5.173,16.515l1.272,5.502c8.265,3.154,36.236,0.27,40.676-5.689
					C180.235,232.123,181.017,207.343,179.454,197.442z"/>
				<g>
					<g>
						<path style="fill:#BA68C8;" d="M87.045,343.946c0.773-5.575,4.807-12.268,6.798-14.934c3.584-4.798,6.892-6.172,5.152-7.566
							l-0.774,0.431c-4.548,0.476-9.114-3.345-10.993-3.966c-1.8-0.595-5.49,6.701-7.569,12.497
							c-2.721,7.585-2.205,14.572-2.205,14.572L87.045,343.946z"/>
					</g>
					<g style="opacity:0.2;">
						<path d="M87.045,343.946c0.773-5.575,4.807-12.268,6.798-14.934c3.584-4.798,6.892-6.172,5.152-7.566l-0.774,0.431
							c-4.548,0.476-9.114-3.345-10.993-3.966c-1.8-0.595-5.49,6.701-7.569,12.497c-2.721,7.585-2.205,14.572-2.205,14.572
							L87.045,343.946z"/>
					</g>
					<path style="fill:#EBEBEB;" d="M80.029,366.633c-1.003,0.892-2.342,1.062-7.219-2.024c-4.319-2.732-7.118-9.1-9.091-14.978
						c-1.972-5.878-0.216-13.254,1.628-17.456c1.843-4.203,2.535-10.486,2.285-14.362c-0.202-3.141-0.374-3.524,0.854-4.387
						c1.065-0.748,2.345-1.555,2.345-1.555L80.029,366.633z"/>
					<path style="fill:#BA68C8;" d="M86.81,306.424c-2.029,1.576-2.515,2.566-2.854,5.509c-0.211,1.829,0.182,3.707,1.167,5.268
						c0.985,1.561-2.621,6.5-4.785,12.875c-1.505,4.434-2.896,12.487-2.305,13.423c1.75-0.995,6.46-0.818,9.055,0
						c0,0-0.693,7.097-0.301,12.621c0.338,4.77,1.242,5.708-0.35,7.45c-0.898,0.983-4.567,3.18-6.864,2.834
						c-1.668-0.251-7.835-3.743-11.858-12.493c-3.75-8.155-1.54-13.755,0.389-20.776c1.611-5.86,1.976-9.708,1.844-12.365
						c-0.196-3.938-0.476-6.684,0.884-8.9c0,0,1.778-2.207,5.391-3.56c3.613-1.354,6.559-1.999,9.328-3.343
						c1.772-0.86,3.332-0.029,3.332-0.029C88.595,305.237,87.523,306.069,86.81,306.424z"/>
					<path style="fill:#455A64;" d="M84.259,361.971c-2.1,0.781-3.622,1.676-4.185,2.93c-0.272,0.605-0.328,2.218-2.402,1.744
						c-2.915-0.665-6.859-4.31-7.841-5.607c-0.982-1.297-4.696-7.185-5.803-11.322c-1.107-4.137-1.509-8.53,0.285-13.765
						c1.92-5.602,2.866-7.537,3.342-13.251c0.477-5.723-0.337-7.266,0.029-8.461c0,0-0.668,0.498-1.064,0.939
						c-0.424,2.111,0.724,3.615-0.46,11.27c-0.425,2.75-1.877,6.512-2.935,9.573c-1.057,3.062-1.853,8.216-0.171,14.415
						c1.439,5.304,4.753,11.822,10.793,15.85c6.15,4.101,11.02,0.022,11.622-0.349c1.147-0.707,1.733-2.926,1.786-3.755
						C87.326,361.079,85.983,361.331,84.259,361.971z"/>
					<g>
						<path style="fill:#455A64;" d="M77.353,344.608c3.624-1.763,9.461-0.535,9.587,0.633l-0.037,0.594c0,0,0.45,0.079,0.622-1.528
							c-0.118-1.126-0.775-1.921-3.95-2.319c-3.616-0.453-6.278,0.576-6.278,0.576S76.697,344.188,77.353,344.608z"/>
						<path style="fill:#455A64;" d="M78.178,338.259c5.351-1.281,9.711,0.749,9.912,1.549l-0.121,0.361
							c0,0,0.621,0.094,0.793-1.513c-0.092-0.61-0.989-1.854-3.889-2.404c-3.581-0.68-6.518,0.222-6.518,0.222
							S77.615,337.655,78.178,338.259z"/>
						<path style="fill:#455A64;" d="M79.256,333.021c6.523-1.986,10.755,1.249,10.882,2.065l-0.178,0.356
							c0,0,0.634,0.145,0.952-1.44c-0.036-0.616-0.823-1.913-3.652-2.766c-3.974-1.198-7.635,0.076-7.635,0.076
							S78.751,332.366,79.256,333.021z"/>
						<path style="fill:#455A64;" d="M81.074,326.881c5.958-1.044,11.784,2.53,11.912,3.346l-0.197,0.299
							c0,0,0.653,0.202,0.971-1.382c-0.036-0.616-1.002-1.44-3.652-2.766c-4.215-2.109-8.385-1.248-8.385-1.248
							S80.568,326.226,81.074,326.881z"/>
					</g>
				</g>
			</g>
			<g>
				<g>
					<path style="fill:#263238;" d="M210.259,415.743c-1.296-0.335-2.566-0.707-3.799-1.128
						c-11.747-3.967-24.887-11.455-28.618-23.525c-1.012-3.26-0.101-6.829,2.35-9.17c2.152-2.062,3.098-5.118,2.517-8.08
						c-2.036-10.239-7.66-34.253-6.116-51.718l-3.599-2.258l-4.494,2.497l-0.186,1.991c-1.584,18.039,2.882,43.432,4.885,53.52
						c0.326,1.658-0.177,3.341-1.36,4.526c-3.302,3.309-4.912,8.03-3.572,12.556c4.054,13.688,14.179,24.475,26.991,28.786
						c1.317,0.448,2.684,0.86,4.065,1.21c0.593,0.154,1.262,0.234,1.957,0.254c2.315,0.064,5.009-0.634,7.567-1.917
						c1.598-0.801,2.62-2.46,2.667-4.28l0.056-2.13l0.001-0.025C211.572,416.366,211.143,415.967,210.259,415.743z"/>
					<path style="fill:#455A64;" d="M211.572,416.853l-0.001,0.025c-0.018,0.698-0.871,1.598-2.468,2.49
						c-2.784,1.533-6.784,2.496-8.903,1.951c-1.284-0.335-2.554-0.707-3.799-1.128c-11.747-3.967-20.745-13.749-24.476-25.819
						c-1.012-3.26-0.101-6.829,2.338-9.17c2.151-2.062,3.11-5.118,2.517-8.08c-2.023-10.239-6.36-34.967-4.816-52.432l4.629-2.568
						c-1.544,17.465,4.081,41.479,6.116,51.718c0.581,2.961-0.365,6.017-2.517,8.08c-2.451,2.341-3.362,5.91-2.35,9.17
						c3.731,12.07,16.871,19.558,28.618,23.525c1.233,0.421,2.503,0.793,3.799,1.128
						C211.143,415.967,211.572,416.366,211.572,416.853z"/>
					<path style="fill:#37474F;" d="M178.309,384.575c0.459-0.978,1.079-1.887,1.883-2.655c1.555-1.491,2.469-3.503,2.643-5.621
						l-5.925,3.284c-0.174,2.117-1.094,4.128-2.648,5.618c-0.8,0.768-1.418,1.677-1.875,2.655L178.309,384.575z"/>
				</g>
				<path style="fill:#9E6767;" d="M122.263,199.498c-3.229,5.254-5.714,10.185-8.829,16.629c-3.826,7.915-3.853,19.457,2.59,29.598
					c5.791,9.115,12.55,19.563,18.379,25.753c8.7,9.238,21.982,22.963,24.746,25.656c2.764,2.693,6.822,7.056,6.822,7.056
					s-0.635,8.682-0.197,14.528c1.773,2.937,6.799,5.348,14.685,6.323c7.311,0.904,14.112-2.895,14.112-2.895
					c0.727-11.485-0.757-21.915-1.293-26.894c-1.151-10.703-20.333-42.2-32.64-65.434c0,0,8.296-5.032,12.217-13.357
					c3.933-8.351,6.599-19.019,6.599-19.019L122.263,199.498z"/>
				<path style="fill:#263238;" d="M122.927,261.36c0,0,1.557,0.383,3.183-0.362l-5.196-7.671L122.927,261.36z"/>
				<g>
					<path style="fill:#BA68C8;" d="M160.667,298.645c0.58-3.905,8.045-12.343,16.355-15.173c8.309-2.831,10.981-2.196,12.571-1.425
						c1.59,0.771,2.3,3.756,3.541,6.474c1.242,2.717,2.994,5.991,2.786,13.914c-0.208,7.923-0.001,20.024-0.001,20.024
						s-16.05,9.807-30.317-3.281c0,0-0.873-10.53-0.454-15.01C162.55,301.361,160.37,300.64,160.667,298.645z"/>
					<path style="opacity:0.55;fill:#FFFFFF;" d="M160.667,298.645c0.58-3.905,8.045-12.343,16.355-15.173
						c8.309-2.831,10.981-2.196,12.571-1.425c1.59,0.771,2.3,3.756,3.541,6.474c1.242,2.717,2.994,5.991,2.786,13.914
						c-0.208,7.923-0.001,20.024-0.001,20.024s-16.05,9.807-30.317-3.281c0,0-0.873-10.53-0.454-15.01
						C162.55,301.361,160.37,300.64,160.667,298.645z"/>
					<path style="opacity:0.5;fill:#BA68C8;" d="M169.012,296.325c-3.164,1.098-3.966,4.087-5.224,4.249
						c-1.257,0.163-3.012-2.156-2.575-3.623c-0.285,0.623-0.473,1.195-0.547,1.693c-0.296,1.995,1.883,2.716,4.481,5.522
						C165.225,301.207,167.736,297.179,169.012,296.325z"/>
				</g>
				<g>
					<path style="fill:#37474F;" d="M165.323,315.22l0.088,1.366c1.623,3.06,7.15,5.179,9.963,3.574
						c4.096-2.338,2.359-7.505,5.036-13.447c2.478-5.498,5.358-7.437,9.168-7.799c8.392-0.796,6.658,11.454,6.936,28.598
						c0.096,5.899,0.193,9.618-0.173,15.878c-0.179,3.072-2.911,7.919-6.195,8.846c-4.836,1.364-9.689-1.174-11.024-8.086
						c-3.265-16.895-8.007-15.379-12.743-15.407C164.459,323.118,164.125,315.552,165.323,315.22z"/>
					<path style="fill:#F0F0F0;" d="M189.991,311.783c-4.598,0.854-5.488,6.46-5.302,14.163c0.158,6.546,0.018,14.092,5.595,13.572
						c4.868-0.455,4.421-5.872,4.258-15.919C194.378,313.551,193.573,311.117,189.991,311.783z"/>
					<path style="fill:#263238;" d="M183.918,319.987c3.984,0.185,8.93-0.586,11.046-1.964c0,0,0.74,0.432,0.173,2.277
						c-2.044,1.983-7.593,2.678-10.979,2.206C183.297,321.575,183.918,319.987,183.918,319.987z"/>
					<path style="fill:#263238;" d="M184.062,326.096c3.984,0.185,8.93-0.586,11.046-1.964c0,0,0.74,0.432,0.173,2.277
						c-2.044,1.983-7.593,2.678-10.979,2.207C183.44,327.685,184.062,326.096,184.062,326.096z"/>
					<path style="fill:#263238;" d="M184.206,332.207c3.984,0.185,8.93-0.586,11.046-1.964c0,0,0.739,0.432,0.173,2.277
						c-2.044,1.983-7.593,2.678-10.979,2.206C183.584,333.795,184.206,332.207,184.206,332.207z"/>
				</g>
				<path style="fill:#37474F;" d="M120.914,194.686c-3.151,3.833-6.841,8.985-9.389,18.017c-2.256,7.997-2.195,18.591,0.479,27.869
					c2.723,9.448,8.255,17.381,10.923,20.787c2.588-4.32,7.59-8.571,7.59-8.571c-2.641-3-5.54-9.738-5.95-16.266
					c3.164,5.185,6.533,9.445,10.218,12.469c0,0,9.388-6.384,20.845-7.653c8.913-0.987,12.53,2.298,12.53,2.298l-6.87-13.803
					c0,0,15.262-9.88,18.162-32.392L120.914,194.686z"/>
			</g>
		</g>
		<g id="Top">
			<g>
				<path style="fill:#263238;" d="M211.931,170.984c-0.778-0.654-2.686,0.454-5.262,2.036c-2.148,1.319-2.314,3.631-2.314,3.631
					s2.03,0.187,4.226-1.424C210.777,173.616,211.931,170.984,211.931,170.984z"/>
				<path d="M213.507,188.528c-0.779-0.433-1.02-0.855,0.336-1.699c1.356-0.844,5.785-2.865,5.785-2.865l0.633,1.81
					C220.261,185.775,214.922,189.144,213.507,188.528z"/>
				<g>
					<path style="fill:#9E6767;" d="M171.864,116.118c6.542,0.349,7.421,2.015,16.477,7.834c5.961,3.83,43.611,30.856,48.478,34.95
						c3.921,3.298-17.132,13.6-17.546,13.51c-0.413-0.09-42.576-23.227-42.576-23.227L171.864,116.118z"/>
					<g>
						<path style="fill:#9E6767;" d="M213.833,180.214c-1.074-1.421-3.676-4.981-5.875-4.532c-3.466,0.707-5.222,1.667-10.47,2.952
							c-3.798,0.93-8.447,2.253-9.567,3.148c-2.852,2.28-3.493,9.461-3.17,12.621c0.311,3.038,3.387,2.448,3.387,2.448
							c0.159,0.662,0.665,2.138,3.217,2.138c0,0.949,1.173,2.319,3.429,2.319c0.07,1.064,1.946,1.805,3.371,1.477
							c1.972-0.454,4.381-2.654,5.718-3.407c1.221-0.687,1.954-1.014,2.102-1.625c0.201-0.829-0.549-1.847-2.102-2.015
							c1.828-0.225,3.777-0.716,5.258-2.016c1.191-1.046,2.315-2.402,3.202-3.699c0.972-1.423,1.447-1.914,2.762-2.905
							c2.064-1.557,0.114-4.9-0.976-6.506C214.027,180.478,213.932,180.345,213.833,180.214z"/>
						<path style="fill:#874C4C;" d="M203.873,195.739c-0.59,0.188-1.165,0.388-1.67,0.697c-0.249,0.159-0.493,0.32-0.71,0.52
							c-0.224,0.195-0.408,0.423-0.662,0.643l-0.127,0.11l-0.134-0.105c-0.739-0.579-1.749-0.773-2.736-0.947
							c1-0.152,2.095-0.014,2.991,0.621l-0.26,0.005c0.415-0.386,0.901-0.878,1.484-1.136
							C202.628,195.877,203.254,195.751,203.873,195.739z"/>
						<path style="fill:#874C4C;" d="M199.535,199.943c0.211-0.452,0.46-0.816,0.634-1.231c0.211-0.397,0.348-0.811,0.529-1.271
							c0.168,0.485,0.037,0.998-0.152,1.451C200.31,199.327,199.993,199.734,199.535,199.943z"/>
						<path style="fill:#874C4C;" d="M194.784,201.309c-0.39-1.249-0.365-2.584-0.242-3.873c0.184-1.281,0.449-2.587,1.113-3.717
							c-0.334,1.247-0.562,2.499-0.698,3.766C194.79,198.749,194.738,200.015,194.784,201.309z"/>
						<path style="fill:#874C4C;" d="M191.354,198.99c-0.266-1.54-0.258-3.112-0.135-4.67c0.173-1.549,0.465-3.111,1.116-4.536
							c-0.317,1.526-0.575,3.039-0.7,4.576C191.465,195.892,191.434,197.432,191.354,198.99z"/>
						<path style="fill:#874C4C;" d="M188.137,196.851c-0.777-3.108-0.417-6.553,1.08-9.397c-0.436,1.542-0.828,3.073-0.979,4.647
							C188.036,193.668,188.078,195.25,188.137,196.851z"/>
						<path style="fill:#874C4C;" d="M189.91,185.093c0.057-0.376,0.182-0.751,0.413-1.077c0.224-0.33,0.552-0.584,0.897-0.775
							c0.72-0.335,1.49-0.449,2.25-0.389c-0.362,0.121-0.719,0.231-1.07,0.34c-0.348,0.114-0.693,0.225-1.001,0.398
							C190.75,183.884,190.303,184.438,189.91,185.093z"/>
						<path style="fill:#874C4C;" d="M193.203,187.207c0.057-0.376,0.182-0.751,0.413-1.077c0.224-0.33,0.552-0.584,0.897-0.775
							c0.72-0.335,1.49-0.449,2.25-0.389c-0.361,0.121-0.719,0.231-1.069,0.34c-0.348,0.114-0.693,0.225-1.001,0.398
							C194.042,185.998,193.595,186.552,193.203,187.207z"/>
						<path style="fill:#874C4C;" d="M197.138,190.045c0.057-0.376,0.182-0.751,0.413-1.077c0.224-0.33,0.552-0.584,0.897-0.776
							c0.72-0.336,1.49-0.449,2.25-0.389c-0.361,0.121-0.719,0.231-1.069,0.34c-0.348,0.114-0.693,0.225-1.001,0.398
							C197.978,188.836,197.531,189.39,197.138,190.045z"/>
					</g>
					<path style="fill:#9E6767;" d="M212.977,189.031c3.357-3.454,20.556-8.262,25.09-12.939c3.387-3.493,5.329-6.404,5.269-8.825
						c-0.066-2.64-2.557-5.018-7.215-8.957c-3.079,0.628-8.417,2.464-14.098,6.057c-6.343,4.011-13.431,11.337-18.602,12.564
						L212.977,189.031z"/>
					<path style="fill:#874C4C;" d="M213.272,166.747c-0.533,0.408-1.416,0.994-1.955,1.384c1.169,0.644,2.308,1.256,3.26,1.763
						c0.772-0.7,1.862-1.633,2.901-2.567c4.771-4.294,9.613-6.869,15.175-6.505C225.044,157.96,217.061,163.842,213.272,166.747z"/>
				</g>
				<g>
					<g>
						<path style="fill:#37474F;" d="M219.295,173.514l-4.526-2.613c-0.929-0.536-2.435-0.536-3.364,0l-4.526,2.613
							c-0.464,0.268-0.696,0.62-0.695,0.971c0.001,0.258-0.001,1.229,0,1.49c0.001,0.35,0.233,0.699,0.695,0.966l4.526,2.613
							c0.929,0.536,2.435,0.536,3.364,0l4.525-2.613c0.451-0.26,0.682-0.599,0.695-0.94c0.01-0.269,0-1.257,0.001-1.516
							C219.991,174.133,219.759,173.782,219.295,173.514z"/>
						<path style="fill:#455A64;" d="M206.88,173.513l4.525-2.613c0.929-0.536,2.435-0.536,3.364,0l4.526,2.613
							c0.929,0.536,0.929,1.406,0,1.942l-4.525,2.613c-0.929,0.536-2.435,0.536-3.364,0l-4.525-2.613
							C205.951,174.919,205.951,174.05,206.88,173.513z"/>
						<path style="fill:#263238;" d="M213.088,177.985c-0.543,0-1.068-0.123-1.44-0.337l-4.526-2.613
							c-0.288-0.166-0.453-0.367-0.453-0.551c0-0.183,0.165-0.384,0.453-0.55l4.526-2.613c0.371-0.215,0.895-0.338,1.439-0.338
							c0.544,0,1.069,0.123,1.44,0.338l4.526,2.613c0.288,0.166,0.454,0.367,0.454,0.551s-0.166,0.384-0.454,0.55l-4.526,2.613
							C214.156,177.862,213.631,177.985,213.088,177.985z"/>
						<g>
							<path style="fill:#455A64;" d="M210.746,178.552c-0.029,0-0.059-0.007-0.085-0.023l-3.207-1.851
								c-0.081-0.047-0.109-0.151-0.063-0.232c0.048-0.083,0.152-0.109,0.232-0.062l3.207,1.852
								c0.081,0.047,0.109,0.151,0.063,0.232C210.861,178.521,210.804,178.552,210.746,178.552z"/>
						</g>
					</g>
					<path style="fill:#BA68C8;" d="M215.93,172.132l-1.521,0.878c-0.046,0.027-0.078,0.073-0.085,0.126
						c-0.007,0.053,0.011,0.106,0.048,0.144l1.452,1.464l-4.575-1.455c-0.073-0.023-0.153,0.005-0.195,0.068
						c-0.045,0.069-0.038,0.148,0.011,0.207l1.689,2.018l-1.685-0.428c-0.043-0.011-0.09-0.005-0.129,0.018l-1.791,1.034
						l0.345,0.199l1.558-0.899l2.134,0.543c0.072,0.018,0.149-0.012,0.189-0.075c0.04-0.067,0.034-0.145-0.014-0.202l-1.651-1.973
						l4.678,1.488c0.076,0.024,0.158-0.007,0.199-0.074c0.041-0.066,0.031-0.155-0.025-0.211l-1.789-1.804l1.499-0.866
						L215.93,172.132z"/>
				</g>
				<path style="fill:#263238;" d="M214.969,178.669c0.684,0.374,2.099,1.689,2.174,4.723c0.076,3.034-1.912,5.135-3.636,5.135
					c0.506,0.506,2.024,0.208,4.011-0.739c0.638-0.304,1.191-0.569,1.648-0.788c1.324-0.635,2.258-1.875,2.472-3.328
					c0.06-0.409,0.089-0.858,0.066-1.341c-0.112-2.399-0.513-4.228-2.462-6.125L214.969,178.669z"/>
			</g>
			<g>
				<path style="fill:#9E6767;" d="M127.11,173.097c0.54,3.184,1.805,6.762,0.442,10.701c-1.363,3.939-3.307,6.387-6.638,10.887
					c7.619,7.896,24.666,11.573,37.151,10.754c17.16-1.126,21.389-7.998,21.389-7.998l0.224-20.678L127.11,173.097z"/>
				<g id="XMLID_747_">
					<g>
						<path style="fill:#455A64;" d="M192.06,145.316c-5.687-14.752-20.196-29.197-20.196-29.197
							c-2.677-0.272-12.193-0.999-23.049,0.187c-6.264,0.684-11.856,1.406-17.316,2.141c-3.454,2.458-6.884,5.219-9.403,11.801
							c-1.07,2.797-2.108,13.113-1.093,17.406c2.134,9.022,6.462,27.917,6.462,27.917c12.128,9.83,44.225,9.291,52.194,2.938
							c0,0,0.449-5.489,0.777-10.409C191.295,164.156,194.839,152.526,192.06,145.316z"/>
						<path style="opacity:0.2;" d="M169.319,166.771c0,0-8.212,5.386-17.87,1.351c-9.44-3.944-10.661-12.524-9.811-15.826
							c0,0-4.257,13.237,7.485,18.289C163.821,176.909,169.319,166.771,169.319,166.771z"/>
					</g>
				</g>
			</g>
			<path id="XMLID_658_" style="fill:#9E6767;" d="M93.013,230.234c-1.241-3.442-1.907-7.092-1.942-10.751
				c1.303,0.914,2.297,2.197,3.489,3.251c1.192,1.054,2.735,1.909,4.309,1.668c0.801-0.122,1.68-0.82,1.414-1.586
				c-0.057-0.163-0.16-0.305-0.262-0.445c-1.605-2.189-3.199-4.385-4.782-6.59c-1.362-1.896-2.579-4.081-4.14-5.794
				c-0.835-0.916-1.9-1.993-1.933-4.037c-0.177-11.019,0.766-17.965,2.255-33.284c0,0,21.975-13.158,31.775-18.577
				c3.648-1.966,5.584-3.426,7.436-5.554c2.931-3.369,5.005-8.993,5.185-16.018c0.08-3.135-1.394-9.716-4.318-14.07
				c-6.998,1.12-10.81,2.793-15.478,5.906c-2.87,1.914-6.247,4.133-20.155,14.701c-6.993,5.313-10.962,8.231-20.972,18.147
				c-3.966,3.929-4.549,5.247-4.493,9.183c0.047,3.303,0.302,5.145,0.951,13.653c0.539,7.068,1.315,12.897,1.874,19.962
				c0.141,1.779,0.146,3.509,0.305,5.298c0.228,2.566-0.36,7.461-0.465,10.035c-0.106,2.611-0.023,5.062,0.395,7.675
				c0.372,2.325,1.009,4.801,2.825,6.299c0.638,0.526,1.401,0.911,1.939,1.54c0.558,0.653,0.824,1.516,1.382,2.169
				c0.85,0.994,2.217,1.339,3.492,1.633c0.585,0.135,1.188,0.278,1.669,0.636c0.477,0.354,0.787,0.883,1.159,1.346
				c1.038,1.294,2.645,2.113,4.301,2.194c0.395,0.019,0.808,0.002,1.165,0.171c0.235,0.111,0.428,0.293,0.616,0.473
				c1.338,1.279,2.676,2.558,4.014,3.837c0.222,0.213,0.5,0.442,0.8,0.376c0.167-0.037,0.301-0.16,0.417-0.286
				c0.653-0.706,1.018-1.492,0.822-2.432c-0.428-2.054-1.667-3.827-2.708-5.649C94.43,233.693,93.646,231.99,93.013,230.234z"/>
			<g id="XMLID_440_">
				<path style="fill:#263238;" d="M186.966,77.21c-0.342,4.054-1.018,8.111-2.682,11.823c-0.607,1.353-33.215,15.496-39.096,18.4
					c0,0-4.805-9.95-8.66-15.204c-5.785-7.882-6.857-20.284,2.781-25.355c0,0,1.539-10.17,11.311-13.681
					C167.333,47.187,188.868,54.682,186.966,77.21z"/>
				<path style="fill:#263238;" d="M116.748,64.88c-2.36,2.947-3.344,6.39-6.221,10.368c-2.46,3.401-5.913,5.158-10.11,5.067
					c-3.887-0.084-8.293-2.176-10.472-5.764c-0.139,5.705,2.509,8.912,6.293,10.542c-5.356-0.291-10.501-3.251-13.444-7.735
					c-1.195-1.821-2.093-3.819-3.195-5.698c-3.892-6.639-7.677-8.587-15.594-7.115c4.969,0.564,7.704,3.478,9.363,8.196
					c1.659,4.718,2.237,11.561,4.743,15.889c2.378,4.107,5.594,6.735,9.935,8.654c4.341,1.92,9.814,2.776,14.525,2.092
					c-3.231,2.313-7.251,2.439-11.221,2.259c4.136,3.968,13.498,4.273,19.688,1.751c7.454-3.037,11.461-11.126,13.732-18.848
					c0.852-2.895,1.563-5.857,2.897-8.564c1.334-2.707,3.391-5.192,6.18-6.344c3.325-1.373,5.42,0.035,8.194,1.346
					c1.59-1.881,3.953-4.45,3.312-6.425c-1.088-3.355-7.117-6.78-10.069-7.168C128.156,56.446,121.142,59.394,116.748,64.88z"/>
				<path id="XMLID_476_" style="fill:#9E6767;" d="M183.092,67.454c0,0,5.847,8.749,3,26.67c-1.84,11.58-4,15.835-9.791,17.569
					c-2.565,0.768-7.655,0.72-11.216,0.034l-0.999,7.687c0,0,11.503,13.152,0.865,13.766c-5.312,0.306-11.574-2.226-15.8-6.071
					c-4.32-3.932-5.783-8.72-5.783-8.72l1.392-18.645c0,0-3.711,2.689-7.355-1.397c-4.01-4.496-3.37-11.138,0.264-13.26
					c5.336-3.116,8.556,1.032,9.545,3.514c0.989,2.482,4.66,2.23,4.306-3.394c-0.354-5.624,1.229-15.488,6.196-16.836
					C163.865,66.701,170.602,80.027,183.092,67.454z"/>
				<path style="fill:#FAFAFA;" d="M144.404,91.129c0.037,0.854-0.38,1.697-1.068,2.205c-0.421,0.311-0.865,0.461-1.304,0.52
					c-0.284,0.038-0.174,0.466,0.126,1.784l0.188,0.843c0.139,0.443-0.107,0.916-0.55,1.055l0,0c-0.443,0.14-0.916-0.107-1.055-0.55
					l-1.515-4.822c-0.454-1.443,0.27-3.079,1.715-3.523C142.573,88.14,144.324,89.28,144.404,91.129z"/>
				<path style="fill:#874C4C;" d="M151.621,91.539c-0.044,1.917,2.143,3.522,4.886,3.586c2.743,0.063,5.002-1.439,5.046-3.355
					c0.044-1.917-2.143-3.522-4.886-3.585C153.925,88.12,151.666,89.622,151.621,91.539z"/>
				<path style="fill:#874C4C;" d="M180.526,92.151c-0.044,1.917,2.143,3.522,4.886,3.586c2.743,0.064,5.002-1.439,5.046-3.355
					c0.044-1.917-2.143-3.522-4.886-3.585C182.83,88.732,180.571,90.234,180.526,92.151z"/>
				<g>
					<path id="XMLID_469_" style="fill:#874C4C;" d="M164.877,97.344l6.898,2.13c-0.553,1.973-2.545,3.096-4.449,2.508
						C165.42,101.395,164.324,99.319,164.877,97.344z"/>
					<path id="XMLID_458_" style="fill:#263238;" d="M165.149,79.517l-5.07,2.053c-0.625-1.39,0.004-2.976,1.405-3.543
						C162.884,77.461,164.525,78.128,165.149,79.517z"/>
					<path id="XMLID_457_" style="fill:#263238;" d="M179.074,79.424l4.627,2.917c0.861-1.257,0.522-2.93-0.756-3.736
						C181.668,77.801,179.934,78.167,179.074,79.424z"/>
					<polygon id="XMLID_456_" style="fill:#874C4C;" points="171.572,82.342 171.572,94.704 178.814,92.832 					"/>
					<path id="XMLID_454_" style="fill:#874C4C;" d="M165.084,111.726c-3.123-0.631-10.369-3.193-14.072-5.98
						c-1.979-1.49-3.479-4.655-3.924-6.063c0,0,0.173,5.593,3.079,8.228c4.604,4.176,14.489,7.187,14.489,7.187L165.084,111.726z"/>
					<path id="XMLID_452_" style="fill:#263238;" d="M177.47,85.335c-0.136,1.133,0.681,2.188,1.825,2.357
						c1.144,0.169,2.181-0.614,2.316-1.748c0.136-1.134-0.681-2.188-1.824-2.356C178.643,83.419,177.605,84.201,177.47,85.335z"/>
					<path id="XMLID_446_" style="fill:#263238;" d="M162.13,85.335c-0.136,1.133,0.681,2.188,1.825,2.357
						c1.144,0.168,2.181-0.615,2.316-1.748c0.137-1.134-0.681-2.188-1.824-2.356C163.304,83.419,162.266,84.202,162.13,85.335z"/>
					<path style="fill:#F28F8F;" d="M164.869,99.346c0.278-0.007,0.558-0.003,0.844,0.04c1.623,0.238,2.957,1.244,3.697,2.585
						c-0.655,0.211-1.376,0.231-2.085,0.012C166.074,101.597,165.184,100.565,164.869,99.346z"/>
				</g>
			</g>
		</g>
	</g>
</g>
<g id="Smartwatch_1_">
	<g id="Smartwatch">
		<g>
			<path style="fill:#263238;" d="M296.404,211.428c-4.062,2.345-24.487,13.874-40.62,23.452
				c-13.413,7.964-14.16,27.382-14.16,36.818l75.09-62.615C307.63,203.839,300.466,209.083,296.404,211.428z"/>
			<g>
				<path style="fill:#37474F;" d="M384.833,361.154c0,7.54-0.42,13.58-1.26,18.5c-0.29,1.75-0.64,3.36-1.04,4.84
					c-2.45,9.08-6.87,13.48-13.21,17.14c-16.8,9.14-39.69,2.31-70.99-22.46c-28.59-22.63-40.03-40.82-40.03-40.82v8.53
					c5.68,7.32,17.37,20.74,36.92,36.21c23.15,18.31,42.49,27.39,58.55,27.39c6.51,0,12.48-1.49,17.94-4.46l0.11-0.06
					c8.2-4.73,13.09-10.77,15.67-20.59c0.39-1.53,0.74-3.15,1.03-4.88c0.91-5.37,1.31-11.72,1.31-19.34H384.833z"/>
				<path style="fill:#263238;" d="M337.924,354.444c-28.59-22.62-40.03-40.81-40.03-40.81l-39.59,24.72
					c0,0,11.44,18.19,40.03,40.82c31.3,24.77,54.19,31.6,70.99,22.46c6.34-3.66,10.76-8.06,13.21-17.14
					c0.4-1.48,0.75-3.09,1.04-4.84C370.793,376.804,355.723,368.524,337.924,354.444z"/>
			</g>
			<g>
				<path style="fill:#37474F;" d="M341.803,394.554v5.39c0,0-26.25-9.5-58-38.42c-31.74-28.92-42.18-64.2-42.18-87.91
					c0-23.72,6.255-34.51,13.765-35.71l0.79,4.94c-4.36,0.69-9.555,9.19-9.555,30.77c0,11.09,2.93,49.93,40.55,84.21
					C313.183,381.514,335.583,391.934,341.803,394.554z"/>
				<g>
					<path d="M341.803,399.944c-6.616-2.558-12.923-5.855-19.072-9.382c-6.133-3.566-12.064-7.473-17.818-11.621
						c-5.775-4.124-11.285-8.604-16.672-13.219l-3.995-3.515c-1.326-1.178-2.575-2.443-3.866-3.661
						c-2.626-2.395-4.958-5.08-7.402-7.655c-4.628-5.385-8.985-11.013-12.765-17.029c-3.755-6.026-7.069-12.325-9.829-18.867
						c-5.465-13.085-8.743-27.182-8.762-41.38c0.077,7.092,1.01,14.154,2.577,21.057c1.564,6.904,3.704,13.685,6.491,20.195
						c2.778,6.513,6.108,12.781,9.874,18.772c3.791,5.983,8.158,11.573,12.786,16.922c2.425,2.575,4.739,5.261,7.347,7.658
						c1.283,1.219,2.521,2.484,3.84,3.665l3.975,3.525c5.359,4.628,10.844,9.124,16.595,13.264
						c5.728,4.167,11.639,8.087,17.746,11.679C328.955,393.944,335.218,397.311,341.803,399.944z"/>
				</g>
				<path style="fill:#263238;" d="M325.114,335.924c-37.62-34.28-40.55-73.13-40.55-84.22c0-16.52,7.728-22.62,11.588-26.35
					c1.18-1.16,2.35-1.79,3.37-1.95l-0.79-4.94c-2.21,0.36-4.46,1.6-6.52,3.77c-1.91,1.99-3.66,4.76-5.1,8.34l-30.933,12.27
					c-4.36,0.69-9.555,9.19-9.555,30.77c0,11.09,2.93,49.93,40.55,84.21c26.01,23.69,48.41,34.11,54.63,36.73l32.57-18.8
					c3.44,1.59,5.37,2.29,5.37,2.29v-5.39C373.523,370.034,351.124,359.614,325.114,335.924z"/>
				<path style="fill:#37474F;" d="M256.178,242.844c3.667-0.422,4.617,3.011,4.617,3.011l0-6.414c0,0-1.382-1.957-5.407-1.537
					L256.178,242.844z"/>
				<polygon points="379.743,372.654 379.743,378.044 341.803,399.944 341.803,394.554 374.374,375.754 				"/>
			</g>
			<g>
				<path style="fill:#263238;" d="M273.753,352.124l-2.87-2.52c0,0-1.67,3.96-2.99,7.4c-0.73,1.9-0.57,3.49,0.08,4.19v0.01
					l0.03,0.02l0.13,0.12l23.85,21.32l2.719-11.761L273.753,352.124z"/>
				<path d="M294.038,382.151l1.185,0.943c-1.259,1.297-2.805-0.101-3.247-0.419c-0.796-0.573-1.061-2.285-0.262-4.372
					c1.315-3.436,2.989-7.398,2.989-7.398l44.234-25.398c0.634-0.364,1.425,0.094,1.425,0.825v2.393l-42.727,24.525L294.038,382.151
					z"/>
				<path style="fill:#37474F;" d="M316.33,324.436c-0.072-0.088-0.153-0.166-0.25-0.223v0l0,0
					c-0.278-0.164-0.637-0.191-0.956-0.009l-44.24,25.4l23.819,21.299l45.395-25.227L316.33,324.436z"/>
			</g>
		</g>
		<g>
			<g>
				<g>
					<path style="fill:#263238;" d="M412.464,236.033l-60.149-34.8c-9.903-5.717-25.958-5.717-35.862,0l-48.247,27.854
						c-4.952,2.86-7.42,6.606-7.412,10.353c0.006,2.755-0.011,13.106,0,15.879c0.015,3.729,2.483,7.454,7.412,10.301l60.149,34.8
						c9.903,5.718,25.961,5.718,35.864,0l48.244-27.854c4.807-2.775,7.273-6.385,7.407-10.02c0.106-2.866-0.001-13.404,0.006-16.16
						C419.885,242.641,417.418,238.894,412.464,236.033z"/>
					<g>
						<path d="M260.795,239.441l0.122,12.331l0.013,3.083c-0.013,1.025,0.102,2.03,0.414,2.998c0.609,1.939,1.86,3.624,3.348,4.999
							c1.485,1.408,3.256,2.431,5.049,3.441l5.347,3.07l10.695,6.139l21.307,12.423l10.652,6.214l10.613,6.282l-10.735-6.07
							l-10.696-6.138l-21.39-12.279l-10.653-6.212l-5.327-3.106c-1.773-1.015-3.589-2.079-5.088-3.522
							c-1.509-1.413-2.783-3.15-3.399-5.155c-0.316-0.993-0.428-2.055-0.407-3.083l0.013-3.083L260.795,239.441z"/>
					</g>
					<path style="fill:#37474F;" d="M346.287,273.614v31.095c6.49,0,12.981-1.43,17.932-4.289l48.244-27.854
						c4.807-2.775,7.273-6.385,7.407-10.02c0.106-2.866-0.001-13.404,0.006-16.16c0.009-3.747-2.459-7.494-7.413-10.354
						l-12.533-7.297L346.287,273.614z"/>
					<path style="fill:#455A64;" d="M268.208,229.088l48.244-27.854c9.904-5.718,25.961-5.718,35.864,0l60.148,34.8
						c9.904,5.718,9.904,14.988,0,20.706l-48.245,27.854c-9.904,5.718-25.961,5.718-35.864,0l-60.147-34.8
						C258.304,244.076,258.305,234.805,268.208,229.088z"/>
					<path style="fill:#263238;" d="M346.291,283.706c-5.793,0-11.384-1.309-15.348-3.594l-60.149-34.799
						c-3.074-1.774-4.833-3.918-4.833-5.874c0-1.951,1.759-4.09,4.833-5.864l48.247-27.854c3.953-2.29,9.544-3.599,15.337-3.599
						c5.803,0,11.395,1.309,15.348,3.599l60.149,34.799c3.074,1.774,4.843,3.913,4.843,5.869c0,1.956-1.769,4.095-4.843,5.869
						l-48.247,27.854C357.676,282.397,352.085,283.706,346.291,283.706z"/>
					<g>
						<path style="fill:#37474F;" d="M321.326,289.747c-0.308,0-0.618-0.079-0.905-0.243l-46.093-26.683
							c-0.866-0.501-1.163-1.609-0.663-2.476c0.5-0.866,1.606-1.16,2.476-0.663l46.093,26.683c0.866,0.501,1.163,1.609,0.663,2.476
							C322.561,289.421,321.952,289.747,321.326,289.747z"/>
					</g>
				</g>
			</g>
			<g>
				<g style="opacity:0.3;">
					<path style="fill:#FFFFFF;" d="M302.046,228.26c-1.965,2.764-2.851,5.664-2.721,8.524c0.036,0.787,1.348,1.348,2.665,1.145l0,0
						c0.929-0.143,1.595-0.629,1.568-1.184c-0.121-2.509,0.644-5.054,2.349-7.482c0.398-0.567,0.126-1.249-0.774-1.572
						C303.989,227.28,302.539,227.571,302.046,228.26z"/>
					<path style="fill:#FFFFFF;" d="M347.766,219.095c0.814,0.192,1.713,0.07,2.299-0.268c0.193-0.111,0.352-0.246,0.461-0.401
						c0.442-0.625-0.076-1.338-1.157-1.594c-13.573-3.205-29.042-1.408-39.41,4.578l-0.077,0.044
						c-0.826,0.477-0.788,1.229,0.038,1.706c0.826,0.477,2.205,0.454,3.031-0.023C322.11,217.85,335.775,216.264,347.766,219.095z"
						/>
					<path style="fill:#FFFFFF;" d="M358.173,221.352c-0.826,0.477-0.826,1.251,0,1.728l0.102,0.059
						c9.191,5.306,11.924,13.217,6.963,20.154c-0.446,0.624,0.068,1.338,1.148,1.596c0.815,0.194,1.718,0.073,2.305-0.266
						c0.191-0.11,0.349-0.244,0.459-0.397c5.615-7.853,2.52-16.808-7.884-22.814l-0.102-0.059
						C360.339,220.875,358.999,220.875,358.173,221.352z"/>
				</g>
				<g>
					<path style="fill:#BA68C8;" d="M304.36,250.689c-2.715,0-5.575-0.294-7.826-1.608c-1.169-0.682-1.842-1.624-1.894-2.654
						c-0.048-1.191,0.538-2.1,1.898-2.971c1.742-1.114,3.828-1.533,6.344-1.278c-0.328-1.502,0.479-2.769,2.408-3.774
						c1.42-0.74,2.795-1.048,4.58-1.021l0.032,0.001c1.564,0.026,3.032,0.387,4.133,1.016c2.879,1.645,3.063,3.852,2.862,5.795
						c-0.122,1.204-0.481,2.483-1.065,3.799l-0.561,1.758l-2.918,0.313c-2.195,0.325-4.34,0.526-6.354,0.595
						C305.462,250.676,304.914,250.689,304.36,250.689z M301.469,243.101c-1.708,0-3.134,0.393-4.392,1.198
						c-1.305,0.835-1.463,1.486-1.439,2.066c0.035,0.693,0.532,1.347,1.399,1.853c2.492,1.455,5.912,1.544,8.927,1.442
						c1.978-0.068,4.084-0.266,6.262-0.587l2.291-0.246l0.383-1.189c0.56-1.27,0.892-2.446,1.004-3.545
						c0.175-1.704,0.011-3.468-2.364-4.825c-0.957-0.546-2.255-0.86-3.654-0.884l-0.038-0.001c-1.581-0.017-2.831,0.25-4.094,0.908
						c-2.267,1.181-2.124,2.319-1.686,3.276l0.384,0.841l-0.914-0.139C302.803,243.157,302.116,243.101,301.469,243.101z"/>
				</g>
				<g>
					<path style="fill:#FAFAFA;" d="M328.056,267.113c-0.232-0.029-0.505-0.135-0.818-0.314l-0.322-0.188
						c-0.314-0.18-0.496-0.338-0.545-0.473c-0.05-0.133,0.025-0.256,0.223-0.371l3.099-1.789l-12.716-7.342l-2.827,2.232
						c-0.198,0.115-0.507,0.107-0.929-0.022c-0.421-0.129-0.806-0.293-1.152-0.494c-0.281-0.162-0.298-0.361-0.051-0.6l4.066-3.608
						c0.197-0.115,0.441-0.193,0.73-0.236c0.289-0.043,0.508-0.021,0.658,0.064l14.773,8.529l2.577-1.488
						c0.198-0.113,0.413-0.156,0.645-0.129c0.231,0.029,0.505,0.135,0.817,0.316l0.322,0.186c0.314,0.182,0.496,0.338,0.546,0.473
						c0.05,0.133-0.024,0.256-0.223,0.371l-8.229,4.752C328.502,267.098,328.287,267.141,328.056,267.113z"/>
					<path style="fill:#FAFAFA;" d="M341.429,259.592c-0.852,0.33-1.629,0.553-2.33,0.672c-0.703,0.121-1.202,0.094-1.5-0.078
						c-0.23-0.133-0.405-0.371-0.52-0.715c-0.116-0.344-0.093-0.563,0.073-0.658c0.082-0.049,0.347-0.115,0.794-0.201
						c0.627-0.113,1.201-0.25,1.722-0.408c0.522-0.156,1.046-0.389,1.575-0.693c0.826-0.477,1.293-1.037,1.4-1.682
						c0.106-0.645-0.393-1.285-1.5-1.926c-1.074-0.619-2.128-0.902-3.16-0.85c-1.033,0.051-2.088,0.389-3.161,1.008l-0.967,0.559
						c-0.198,0.113-0.412,0.158-0.646,0.129c-0.23-0.029-0.503-0.133-0.817-0.314l-0.322-0.188c-0.313-0.18-0.491-0.336-0.532-0.465
						c-0.041-0.129,0.036-0.25,0.234-0.365l0.818-0.473c0.66-0.381,1.059-0.785,1.19-1.215c0.132-0.43,0.075-0.83-0.173-1.203
						c-0.248-0.371-0.587-0.682-1.017-0.93c-0.628-0.363-1.36-0.561-2.194-0.594c-0.834-0.033-1.697,0.207-2.59,0.723
						c-0.496,0.287-0.855,0.561-1.078,0.822c-0.223,0.264-0.402,0.518-0.533,0.766c-0.133,0.248-0.231,0.393-0.297,0.43
						c-0.166,0.096-0.546,0.105-1.141,0.029c-0.596-0.076-1.018-0.188-1.266-0.33c-0.412-0.238-0.325-0.689,0.262-1.352
						c0.586-0.664,1.342-1.262,2.268-1.797c1.454-0.84,2.986-1.285,4.598-1.338c1.612-0.053,3.086,0.309,4.426,1.08
						c0.893,0.516,1.408,1.076,1.549,1.682c0.141,0.607-0.014,1.209-0.459,1.811l0.099,0.057c1.14-0.351,2.398-0.467,3.769-0.342
						c1.371,0.123,2.661,0.533,3.867,1.23c1.09,0.629,1.797,1.301,2.119,2.01c0.321,0.711,0.285,1.41-0.111,2.098
						c-0.397,0.688-1.092,1.316-2.082,1.889C343.069,258.889,342.279,259.264,341.429,259.592z"/>
					<path style="fill:#FAFAFA;" d="M352.669,253.074c-0.793,0.275-1.496,0.447-2.106,0.514c-0.61,0.068-1.042,0.029-1.29-0.113
						c-0.23-0.135-0.404-0.377-0.52-0.73c-0.115-0.354-0.092-0.578,0.074-0.672c0.1-0.059,0.332-0.115,0.694-0.172
						c0.628-0.115,1.202-0.246,1.722-0.395c0.521-0.146,1.055-0.379,1.6-0.693c0.827-0.476,1.227-1.047,1.202-1.711
						c-0.024-0.662-0.558-1.295-1.599-1.896c-1.058-0.609-2.156-0.9-3.297-0.873c-1.141,0.029-2.298,0.383-3.471,1.061l-1.983,1.145
						c-0.297,0.172-0.561,0.252-0.793,0.242c-0.231-0.008-0.495-0.1-0.792-0.271l-6.793-4.436c-0.264-0.172-0.396-0.334-0.396-0.486
						c0-0.154,0.141-0.311,0.422-0.473l6.296-3.636c0.198-0.113,0.414-0.156,0.646-0.129c0.232,0.029,0.504,0.135,0.817,0.315
						l0.396,0.23c0.281,0.162,0.442,0.308,0.483,0.436c0.042,0.13-0.037,0.251-0.235,0.365l-4.76,2.748l4.362,2.863l0.893-0.516
						c1.553-0.896,3.259-1.41,5.118-1.539c1.859-0.129,3.748,0.361,5.664,1.467c1.917,1.107,2.776,2.209,2.578,3.307
						c-0.199,1.098-1.05,2.08-2.554,2.947C354.255,252.43,353.462,252.797,352.669,253.074z"/>
				</g>
				<g>
					<path style="fill:#E0E0E0;" d="M347.728,274.859l-1.543-0.891l-2.656,1.533c-0.068,0.039-0.222,0.029-0.462-0.031
						c-0.239-0.061-0.425-0.129-0.552-0.201c-0.037-0.022-0.071-0.051-0.102-0.086l-2.252-4.574
						c-0.045-0.113,0.057-0.242,0.305-0.385l0.326-0.188c0.285-0.166,0.521-0.193,0.709-0.086l4.865,2.809l0.54-0.313
						c0.09-0.051,0.186-0.07,0.293-0.059c0.104,0.014,0.228,0.061,0.371,0.145l0.146,0.084c0.144,0.082,0.225,0.154,0.248,0.215
						c0.021,0.06-0.012,0.117-0.102,0.168l-0.541,0.313l1.543,0.891c0.188,0.107,0.139,0.244-0.147,0.41l-0.281,0.162
						C348.152,274.939,347.915,274.969,347.728,274.859z M345.218,273.424l-1.914-1.105c-0.475-0.273-0.909-0.568-1.307-0.885
						l-0.067,0.014l1.509,3.002L345.218,273.424z"/>
					<path style="fill:#E0E0E0;" d="M350.21,273.478c-0.191-0.055-0.359-0.123-0.502-0.205c-0.09-0.051-0.139-0.094-0.146-0.123
						l-1.113-3.633c-0.099-0.334-0.205-0.582-0.321-0.746c-0.116-0.162-0.284-0.307-0.501-0.432c-0.33-0.19-0.688-0.277-1.074-0.264
						c-0.387,0.016-0.758,0.125-1.111,0.328c-0.263,0.152-0.44,0.299-0.533,0.439c-0.094,0.141-0.184,0.313-0.265,0.518
						c-0.022,0.117-0.057,0.188-0.101,0.213c-0.092,0.053-0.267,0.064-0.529,0.033c-0.264-0.029-0.447-0.076-0.553-0.137
						c-0.158-0.09-0.2-0.236-0.129-0.438c0.07-0.203,0.224-0.418,0.456-0.648c0.232-0.229,0.495-0.428,0.788-0.598
						c0.676-0.391,1.391-0.602,2.145-0.633c0.754-0.033,1.428,0.121,2.021,0.465c0.262,0.15,0.471,0.313,0.623,0.484
						c0.154,0.17,0.283,0.391,0.39,0.66c0.105,0.268,0.214,0.643,0.327,1.123l0.799,2.359l2.714-1.566
						c0.089-0.051,0.185-0.072,0.286-0.06c0.101,0.01,0.224,0.057,0.366,0.139l0.146,0.084c0.143,0.082,0.225,0.154,0.247,0.215
						c0.022,0.06-0.012,0.117-0.101,0.17l-3.941,2.275C350.53,273.541,350.402,273.533,350.21,273.478z"/>
					<path style="fill:#E0E0E0;" d="M350.879,267.787l-0.821-0.475c-0.188-0.107-0.117-0.258,0.213-0.447l0.248-0.145
						c0.33-0.19,0.589-0.23,0.777-0.123l0.821,0.475c0.189,0.109,0.117,0.258-0.212,0.449l-0.248,0.143
						C351.326,267.855,351.068,267.896,350.879,267.787z M355.428,270.414l-0.822-0.475c-0.188-0.109-0.116-0.258,0.214-0.449
						l0.248-0.143c0.33-0.191,0.589-0.232,0.776-0.123l0.822,0.475c0.188,0.107,0.116,0.258-0.214,0.447l-0.248,0.145
						C355.874,270.48,355.616,270.521,355.428,270.414z"/>
					<path style="fill:#E0E0E0;" d="M358.688,268.81c-0.387,0.15-0.739,0.252-1.058,0.307c-0.32,0.055-0.546,0.041-0.682-0.037
						c-0.104-0.06-0.185-0.168-0.236-0.324c-0.053-0.156-0.042-0.256,0.033-0.299c0.037-0.022,0.158-0.053,0.36-0.092
						c0.286-0.051,0.546-0.113,0.782-0.184c0.236-0.072,0.476-0.178,0.716-0.316c0.374-0.217,0.586-0.471,0.636-0.764
						c0.049-0.293-0.179-0.584-0.682-0.873c-0.487-0.283-0.967-0.412-1.435-0.389c-0.469,0.025-0.947,0.178-1.435,0.459
						l-0.438,0.254c-0.091,0.053-0.189,0.072-0.293,0.059c-0.105-0.014-0.23-0.061-0.373-0.143l-0.146-0.086
						c-0.143-0.082-0.223-0.152-0.241-0.211c-0.018-0.059,0.017-0.113,0.107-0.166l0.371-0.215c0.301-0.172,0.482-0.355,0.541-0.551
						c0.06-0.195,0.034-0.377-0.078-0.547c-0.113-0.168-0.268-0.309-0.463-0.422c-0.284-0.164-0.617-0.256-0.995-0.27
						c-0.38-0.016-0.773,0.094-1.178,0.328c-0.225,0.129-0.389,0.254-0.489,0.373c-0.1,0.119-0.182,0.236-0.242,0.348
						c-0.061,0.113-0.105,0.178-0.135,0.195c-0.076,0.043-0.248,0.047-0.518,0.014c-0.271-0.035-0.461-0.086-0.574-0.15
						c-0.188-0.107-0.148-0.313,0.117-0.613c0.268-0.303,0.61-0.574,1.031-0.816c0.66-0.381,1.355-0.584,2.088-0.607
						c0.732-0.023,1.402,0.139,2.01,0.49c0.406,0.234,0.641,0.488,0.703,0.764c0.065,0.275-0.004,0.549-0.207,0.822l0.045,0.025
						c0.518-0.16,1.088-0.211,1.711-0.154c0.623,0.055,1.209,0.242,1.756,0.559c0.496,0.285,0.817,0.59,0.963,0.912
						c0.146,0.324,0.13,0.641-0.051,0.953c-0.18,0.313-0.496,0.598-0.946,0.857C359.432,268.492,359.074,268.662,358.688,268.81z"/>
					<path style="fill:#E0E0E0;" d="M363.792,265.852c-0.359,0.125-0.679,0.203-0.955,0.232c-0.279,0.031-0.475,0.014-0.586-0.051
						c-0.105-0.061-0.184-0.172-0.236-0.332c-0.053-0.16-0.042-0.262,0.033-0.305c0.045-0.027,0.15-0.053,0.316-0.078
						c0.283-0.053,0.545-0.113,0.78-0.18c0.237-0.066,0.479-0.172,0.728-0.314c0.375-0.217,0.557-0.477,0.545-0.777
						c-0.011-0.301-0.253-0.588-0.726-0.861c-0.48-0.277-0.979-0.41-1.497-0.396c-0.518,0.014-1.043,0.174-1.576,0.48l-0.9,0.52
						c-0.136,0.078-0.256,0.115-0.361,0.111c-0.104-0.004-0.225-0.045-0.359-0.123l-3.085-2.016c-0.12-0.078-0.181-0.15-0.181-0.221
						c0-0.068,0.064-0.141,0.191-0.215l2.859-1.65c0.091-0.053,0.188-0.072,0.293-0.059c0.105,0.014,0.229,0.061,0.372,0.143
						l0.181,0.103c0.127,0.074,0.199,0.141,0.219,0.199c0.02,0.059-0.017,0.113-0.107,0.166l-2.16,1.248l1.98,1.299l0.405-0.232
						c0.705-0.408,1.48-0.641,2.325-0.699c0.844-0.059,1.701,0.162,2.572,0.666c0.871,0.502,1.261,1.004,1.17,1.502
						c-0.089,0.498-0.477,0.943-1.159,1.338C364.513,265.559,364.154,265.725,363.792,265.852z"/>
					<path style="fill:#E0E0E0;" d="M367.88,263.225l-0.822-0.475c-0.188-0.107-0.117-0.258,0.214-0.449l0.248-0.142
						c0.329-0.19,0.589-0.23,0.776-0.123l0.822,0.475c0.188,0.109,0.115,0.258-0.214,0.449l-0.248,0.143
						C368.325,263.293,368.068,263.334,367.88,263.225z"/>
					<path style="fill:#E0E0E0;" d="M369.947,262.084c-0.192-0.055-0.359-0.123-0.502-0.205c-0.09-0.051-0.139-0.094-0.147-0.123
						l-1.113-3.633c-0.1-0.334-0.205-0.582-0.322-0.746c-0.115-0.162-0.283-0.307-0.501-0.432c-0.329-0.19-0.689-0.277-1.074-0.264
						c-0.387,0.016-0.758,0.125-1.11,0.328c-0.264,0.152-0.44,0.299-0.533,0.439c-0.094,0.141-0.184,0.313-0.266,0.518
						c-0.022,0.117-0.057,0.188-0.101,0.213c-0.091,0.053-0.267,0.065-0.529,0.033c-0.263-0.029-0.447-0.076-0.553-0.137
						c-0.157-0.09-0.2-0.236-0.128-0.438c0.07-0.203,0.223-0.418,0.455-0.648c0.232-0.229,0.496-0.428,0.788-0.598
						c0.676-0.391,1.392-0.601,2.145-0.633c0.755-0.033,1.429,0.121,2.022,0.465c0.263,0.15,0.472,0.313,0.624,0.484
						c0.154,0.17,0.283,0.391,0.389,0.66c0.105,0.268,0.215,0.643,0.327,1.123l0.8,2.359l2.713-1.566
						c0.09-0.051,0.186-0.072,0.287-0.06c0.101,0.01,0.223,0.057,0.365,0.139l0.147,0.084c0.142,0.082,0.225,0.154,0.248,0.215
						c0.023,0.06-0.012,0.117-0.102,0.17l-3.94,2.275C370.267,262.146,370.138,262.139,369.947,262.084z"/>
				</g>
			</g>
		</g>
		<g>
			<path style="fill:#263238;" d="M429.424,339.253c0,12.913-1.831,22.342-5.263,29.185c-6.391,12.742-17.645,17.208-28.107,23.375
				c-13.64,8.03-21.56,12.62-23.66,13.82c11.8-7.02,17.44-17.06,17.44-44.48c0-32.12-6.77-44.338-12.19-52.018
				c-4.96-7.04-12.18-10.93-20.31-10.93l60.93-35.18c-1.98,1.98-4.19,5.86-1.31,13.31
				C419.823,283.784,429.424,298.052,429.424,339.253z"/>
			<path style="fill:#37474F;" d="M377.654,309.134c-3.93-5.57-9.25-9.16-15.32-10.42c-1.62-0.34-3.29-0.51-5-0.51v5
				c6.46,0,12.22,3.13,16.23,8.81c5.14,7.3,11.27,18.61,11.27,49.14h5C389.833,330.644,383.983,318.124,377.654,309.134z"/>
		</g>
	</g>
</g>
<g id="Speech_Bubble">
	<g id="Notification_1_">
		<g id="Speech_Bubble_7_">
			<g id="XMLID_645_">
				<g id="XMLID_650_">
					<path style="fill:#263238;" d="M406.244,200.384l-7.07-4.08c-0.14-0.06-0.25-0.15-0.33-0.29l-1.31-2.28l3.58-2.07l4.91,8.49
						C406.084,200.254,406.154,200.334,406.244,200.384z"/>
				</g>
				<path id="XMLID_649_" style="fill:#263238;" d="M379.127,191.854c0,2.189,1.537,4.85,3.432,5.944l0.532,0.308
					c1.713,0.989,4.379,1.086,6.277,0.288c-1.615,0.611-2.845-0.312-2.845-2.269l0-57.148c0-1.094,0.384-2.307,1.005-3.382
					l-7.395-4.271c-0.621,1.076-1.005,2.288-1.005,3.382V191.854z"/>
				<path style="fill:#37474F;" d="M459.235,95.934c-0.388-1.457-1.71-1.924-3.303-1.01l-65.988,38.105
					c-0.933,0.544-1.807,1.477-2.41,2.565c-0.622,1.069-1.011,2.293-1.011,3.381v57.149c0,1.924,1.166,2.837,2.721,2.312
					c0.039,0,0.078-0.019,0.117-0.039c0.214-0.078,0.408-0.175,0.602-0.291l11.152-6.45l4.905,8.496
					c0.314,0.544,1.122,0.467,1.327-0.126l5.188-14.976l43.708-25.282c3.09-1.749,3.109-3.517,3.109-5.713V96.906
					C459.351,96.595,459.312,96.264,459.235,95.934z"/>
				<path id="XMLID_648_" style="fill:#455A64;" d="M459.244,95.935c-0.4-1.457-1.729-1.921-3.314-1.009l-65.978,38.11
					c-0.944,0.544-1.809,1.473-2.417,2.562l-7.391-4.267c0.624-1.089,1.473-2.017,2.417-2.562l65.962-38.11
					c1.905-1.089,4.979-1.089,6.868,0l0.539,0.312C457.547,91.9,458.908,93.981,459.244,95.935z"/>
			</g>
		</g>
		<g id="Message">
			<g id="XMLID_346_">
				<path id="XMLID_487_" style="fill:#BA68C8;" d="M394.948,141.878c0-0.634,0.445-1.405,0.995-1.722l50.879-29.375
					c0.549-0.317,1.44-0.317,1.989,0l1.121,0.647c0.549,0.317,0.995,1.088,0.995,1.723v38.999c0,0.631-0.447,1.407-0.995,1.722
					l-50.879,29.375c-0.547,0.316-1.442,0.316-1.989,0l-1.121-0.647c-0.547-0.316-0.994-1.091-0.994-1.722L394.948,141.878z"/>
				<path id="XMLID_437_" style="opacity:0.55;fill:#FFFFFF;" d="M394.948,141.878c0-0.634,0.445-1.405,0.995-1.722l50.879-29.375
					c0.549-0.317,1.44-0.317,1.989,0l1.121,0.647c0.549,0.317,0.995,1.088,0.995,1.723v38.999c0,0.631-0.447,1.407-0.995,1.722
					l-50.879,29.375c-0.547,0.316-1.442,0.316-1.989,0l-1.121-0.647c-0.547-0.316-0.994-1.091-0.994-1.722L394.948,141.878z"/>
				<path id="XMLID_436_" style="fill:#BA68C8;" d="M399.612,143.424l-4.373-2.525c-0.18,0.312-0.291,0.663-0.291,0.98l0,39
					c0,0.632,0.447,1.407,0.994,1.722l1.121,0.647c0.547,0.316,1.442,0.316,1.989,0l0.56-0.323V143.424z"/>
				<path id="XMLID_435_" style="opacity:0.25;fill:#F0F0F0;" d="M399.612,143.424l-4.373-2.525c-0.18,0.312-0.291,0.663-0.291,0.98
					l0,39c0,0.632,0.447,1.407,0.994,1.722l1.121,0.647c0.547,0.316,1.442,0.316,1.989,0l0.56-0.323V143.424z"/>
				<path id="XMLID_434_" style="fill:#BA68C8;" d="M450.927,113.152v38.999c0,0.325-0.119,0.689-0.31,1.007
					c-0.157,0.26-0.356,0.494-0.582,0.651l-0.038,0.023c-0.023,0.015-0.042,0.031-0.065,0.042l-50.877,29.372l-0.008,0.004
					c-0.264,0.15-0.502,0.169-0.678,0.077c-0.191-0.1-0.31-0.325-0.31-0.655v-38.999c0-0.632,0.498-1.03,1.118-0.88l21.394,5.087
					l2.802,0.666c0.62,0.145,1.42-0.153,1.788-0.67l3.246-4.521l21.85-30.421C450.624,112.421,450.927,112.517,450.927,113.152z"/>
				<path id="XMLID_655_" style="opacity:0.5;fill:#F0F0F0;" d="M450.927,113.152v38.999c0,0.325-0.119,0.689-0.31,1.007
					c-0.157,0.26-0.356,0.494-0.582,0.651l-0.038,0.023c-0.023,0.015-0.042,0.031-0.065,0.042l-50.877,29.372l-0.008,0.004
					c-0.264,0.15-0.502,0.169-0.678,0.077c-0.191-0.1-0.31-0.325-0.31-0.655v-38.999c0-0.632,0.498-1.03,1.118-0.88l21.394,5.087
					l2.802,0.666c0.62,0.145,1.42-0.153,1.788-0.67l3.246-4.521l21.85-30.421C450.624,112.421,450.927,112.517,450.927,113.152z"/>
				<path id="XMLID_433_" style="fill:#BA68C8;" d="M449.931,153.874c0.023-0.011,0.042-0.027,0.065-0.042l0.038-0.023
					c0.226-0.157,0.425-0.391,0.582-0.651c0.188-0.312,0.305-0.669,0.309-0.99l-22.518-8.813l15.08,14.24L449.931,153.874z"/>
				<path id="XMLID_402_" style="fill:#BA68C8;" d="M398.059,182.672c0,0.329,0.119,0.555,0.31,0.655
					c0.176,0.092,0.413,0.073,0.678-0.077l0.008-0.004l17.517-10.112l4-25.254l-22.512,34.145V182.672z"/>
				<path id="XMLID_390_" style="fill:#BA68C8;" d="M450.617,153.158c-0.157,0.26-0.356,0.494-0.582,0.651l-0.038,0.023
					l-50.943,29.414l-0.008,0.004c-0.264,0.15-0.502,0.169-0.678,0.077l24.363-38.894c1.01-1.612,3.05-2.238,4.79-1.47
					L450.617,153.158z"/>
				<path id="XMLID_656_" style="opacity:0.4;fill:#F0F0F0;" d="M450.617,153.158c-0.157,0.26-0.356,0.494-0.582,0.651l-0.038,0.023
					l-50.943,29.414l-0.008,0.004c-0.264,0.15-0.502,0.169-0.678,0.077l24.363-38.894c1.01-1.612,3.05-2.238,4.79-1.47
					L450.617,153.158z"/>
			</g>
			<path id="XMLID_333_" style="opacity:0.3;" d="M398.472,142.741l23.149,10.22c1.723,0.761,3.743,0.139,4.741-1.458l24.308-38.899
				L398.472,142.741z"/>
			<path id="XMLID_332_" style="fill:#BA68C8;" d="M398.472,142.741l23.311,8.709c1.66,0.62,3.528,0.006,4.496-1.478l24.391-37.368
				L398.472,142.741z"/>
			<path id="XMLID_396_" style="opacity:0.4;fill:#F0F0F0;" d="M398.472,142.741l23.311,8.709c1.66,0.62,3.528,0.006,4.496-1.478
				l24.391-37.368L398.472,142.741z"/>
		</g>
		<g id="Bell">
			<path id="XMLID_405_" style="fill:#BA68C8;" d="M463.931,94.806l-3.688-2.137c-0.001-0.001-0.003-0.002-0.004-0.002l-0.033-0.019
				l-0.003,0.006c-1.61-0.909-3.819-0.772-6.262,0.638c-4.92,2.841-8.91,9.751-8.91,15.433c0,2.836,0.995,4.829,2.602,5.762v0.001
				l0.007,0.004l0.001,0.001l3.362,1.929l0.788-1.318c0.814-0.187,1.661-0.478,2.556-0.994c4.92-2.841,8.91-9.751,8.911-15.433
				c0-0.844-0.113-1.587-0.28-2.276L463.931,94.806z"/>
			<path id="XMLID_642_" style="opacity:0.3;" d="M463.931,94.806l-3.688-2.137c-0.001-0.001-0.003-0.002-0.004-0.002l-0.033-0.019
				l-0.003,0.006c-1.61-0.909-3.819-0.772-6.262,0.638c-4.92,2.841-8.91,9.751-8.91,15.433c0,2.836,0.995,4.829,2.602,5.762v0.001
				l0.007,0.004l0.001,0.001l3.362,1.929l0.788-1.318c0.814-0.187,1.661-0.478,2.556-0.994c4.92-2.841,8.91-9.751,8.911-15.433
				c0-0.844-0.113-1.587-0.28-2.276L463.931,94.806z"/>
			<path id="XMLID_327_" style="opacity:0.3;" d="M445.366,105.731c-0.218,1.016-0.337,2.023-0.337,2.993
				c0,2.836,0.995,4.829,2.602,5.762v0.001l0.007,0.004l0.001,0.001l3.362,1.929l0.788-1.318c0.814-0.187,1.661-0.478,2.556-0.994
				c0.842-0.486,1.656-1.094,2.428-1.793L445.366,105.731z"/>
			<path id="XMLID_326_" style="fill:#BA68C8;" d="M457.447,95.314c-4.921,2.841-8.91,9.75-8.911,15.433
				c0,5.682,3.989,7.985,8.91,5.144c4.921-2.841,8.91-9.75,8.911-15.432C466.358,94.775,462.368,92.473,457.447,95.314z"/>
			<g id="XMLID_321_">
				<path id="XMLID_323_" style="fill:#FFFFFF;" d="M460.967,103.225v-2.183c0-2.491-1.514-3.636-3.382-2.557h0
					c-1.868,1.078-3.382,3.972-3.382,6.463v1.951c0,1.227-0.427,2.622-1.139,3.81c-0.002,0.003-0.003,0.006-0.005,0.008
					c-0.17,0.306-0.277,0.666-0.277,0.998v0c0,0.627,0.382,0.916,0.852,0.644l7.901-4.562c0.471-0.272,0.852-1,0.852-1.628l0,0
					c0-0.314-0.095-0.543-0.25-0.659c-0.004-0.003-0.008-0.006-0.013-0.008C461.426,105.188,460.967,104.4,460.967,103.225z"/>
				<path id="XMLID_322_" style="fill:#FFFFFF;" d="M459.208,109.815c0,1.196-0.727,2.585-1.624,3.103
					c-0.897,0.518-1.624-0.032-1.624-1.228L459.208,109.815z"/>
			</g>
		</g>
	</g>
</g>
<g id="Music_Bubble">
	<g id="Music">
		<g id="Speech_Bubble_6_">
			<path style="fill:#263238;" d="M292.506,172.241l-7.07-4.08c-0.14-0.06-0.25-0.15-0.33-0.29l-1.31-2.28l3.58-2.07l4.91,8.49
				C292.346,172.111,292.416,172.191,292.506,172.241z"/>
			<path id="XMLID_671_" style="fill:#263238;" d="M265.39,163.711c0,2.189,1.537,4.85,3.432,5.944l0.532,0.308
				c1.713,0.989,4.379,1.086,6.277,0.288c-1.615,0.611-2.845-0.312-2.845-2.269l0-52.636c0-1.094,0.384-2.307,1.005-3.382
				l-7.395-4.271c-0.621,1.076-1.005,2.288-1.005,3.382V163.711z"/>
			<path style="fill:#37474F;" d="M391.154,45.99c-0.388-1.457-1.71-1.924-3.303-1.01l-111.645,64.418
				c-0.933,0.544-1.807,1.477-2.41,2.565c-0.622,1.069-1.011,2.293-1.011,3.381v52.637c0,1.924,1.166,2.837,2.721,2.312
				c0.039,0,0.078-0.019,0.117-0.039c0.214-0.078,0.408-0.175,0.602-0.291l11.152-6.45l4.905,8.496
				c0.314,0.544,1.122,0.467,1.327-0.126l5.188-14.976l89.365-51.595c3.09-1.749,3.109-3.517,3.109-5.713V46.962
				C391.27,46.651,391.231,46.32,391.154,45.99z"/>
			<path id="XMLID_663_" style="fill:#455A64;" d="M391.163,45.991c-0.4-1.457-1.729-1.921-3.314-1.009l-111.634,64.423
				c-0.944,0.544-1.809,1.473-2.417,2.562l-7.391-4.267c0.624-1.089,1.473-2.017,2.417-2.562l111.618-64.423
				c1.905-1.089,4.979-1.089,6.868,0l0.539,0.312C389.466,41.956,390.827,44.037,391.163,45.991z"/>
		</g>
		<g>
			<g id="XMLID_305_">
				<g>
					<path style="fill:#FFFFFF;" d="M284.85,155.212c-0.033,0.019-0.061,0.024-0.085,0.014c-0.023-0.01-0.036-0.031-0.036-0.065
						v-0.455l-1.407,0.813c-0.033,0.019-0.061,0.023-0.085,0.012c-0.024-0.011-0.036-0.032-0.036-0.065v-0.473
						c0-0.077,0.019-0.153,0.058-0.226l1.335-2.455c0.027-0.048,0.052-0.084,0.073-0.107c0.023-0.023,0.053-0.045,0.092-0.068
						l0.674-0.389c0.033-0.019,0.061-0.024,0.085-0.014c0.023,0.01,0.035,0.031,0.035,0.065v1.715l0.384-0.222
						c0.033-0.019,0.061-0.024,0.086-0.014c0.024,0.01,0.036,0.031,0.036,0.065v0.473c0,0.033-0.012,0.068-0.036,0.106
						c-0.024,0.038-0.052,0.066-0.086,0.086l-0.384,0.222v0.455c0,0.031-0.012,0.068-0.035,0.105
						c-0.025,0.037-0.052,0.066-0.085,0.086L284.85,155.212z M284.753,153.978v-0.822l-0.653,1.198L284.753,153.978z"/>
					<path style="fill:#FFFFFF;" d="M287.5,152c0,0.031-0.012,0.068-0.036,0.105c-0.024,0.038-0.052,0.066-0.085,0.086l-0.585,0.337
						c-0.033,0.019-0.061,0.024-0.086,0.014c-0.023-0.01-0.036-0.031-0.036-0.064v-0.585c0-0.033,0.012-0.068,0.036-0.105
						c0.024-0.038,0.052-0.065,0.086-0.085l0.585-0.338c0.033-0.019,0.061-0.024,0.085-0.013c0.023,0.01,0.036,0.032,0.036,0.064
						V152z M287.5,153.563c0,0.031-0.012,0.068-0.036,0.105c-0.024,0.037-0.052,0.066-0.085,0.085l-0.585,0.337
						c-0.033,0.019-0.061,0.024-0.086,0.014c-0.023-0.01-0.036-0.031-0.036-0.064v-0.584c0-0.033,0.012-0.068,0.036-0.106
						c0.024-0.038,0.052-0.065,0.086-0.085l0.585-0.339c0.033-0.019,0.061-0.024,0.085-0.013c0.023,0.01,0.036,0.032,0.036,0.064
						V153.563z"/>
					<path style="fill:#FFFFFF;" d="M289.755,152.381c-0.033,0.019-0.061,0.024-0.085,0.013c-0.025-0.01-0.037-0.031-0.037-0.064
						v-0.455l-1.406,0.812c-0.033,0.019-0.062,0.023-0.085,0.013c-0.024-0.01-0.036-0.031-0.036-0.064v-0.473
						c0-0.078,0.02-0.154,0.058-0.226l1.336-2.455c0.026-0.048,0.051-0.084,0.073-0.107c0.023-0.024,0.052-0.046,0.092-0.069
						l0.673-0.389c0.033-0.019,0.061-0.023,0.086-0.014c0.023,0.01,0.036,0.032,0.036,0.064v1.715l0.384-0.222
						c0.033-0.019,0.061-0.023,0.085-0.014c0.023,0.011,0.036,0.032,0.036,0.065v0.473c0,0.033-0.012,0.068-0.036,0.106
						c-0.024,0.038-0.052,0.066-0.085,0.085l-0.384,0.221v0.455c0,0.032-0.012,0.068-0.036,0.105
						c-0.024,0.039-0.052,0.066-0.086,0.086L289.755,152.381z M289.656,151.147v-0.822l-0.652,1.199L289.656,151.147z"/>
					<path style="fill:#FFFFFF;" d="M291.822,151.081c0-0.012,0.004-0.033,0.014-0.061l0.965-2.809l-1.331,0.768
						c-0.033,0.018-0.062,0.024-0.085,0.013c-0.024-0.01-0.037-0.031-0.037-0.064v-0.474c0-0.032,0.012-0.068,0.037-0.105
						c0.023-0.038,0.052-0.065,0.085-0.085l2.134-1.232c0.032-0.018,0.061-0.024,0.085-0.013c0.025,0.01,0.037,0.031,0.037,0.064
						v0.415c0,0.048-0.024,0.138-0.072,0.27l-0.969,2.815c-0.012,0.034-0.027,0.067-0.047,0.101
						c-0.019,0.033-0.046,0.06-0.082,0.081l-0.625,0.361c-0.03,0.016-0.055,0.021-0.076,0.012
						C291.832,151.129,291.822,151.11,291.822,151.081z"/>
				</g>
				<g>
					<path style="fill:#FFFFFF;" d="M372.868,103.32c0,0.176-0.036,0.353-0.107,0.532c-0.072,0.18-0.169,0.353-0.291,0.518
						c-0.121,0.166-0.264,0.322-0.424,0.467c-0.16,0.144-0.331,0.269-0.509,0.372c-0.18,0.104-0.35,0.175-0.51,0.216
						c-0.161,0.041-0.303,0.048-0.426,0.025c-0.124-0.024-0.222-0.085-0.293-0.182c-0.071-0.097-0.107-0.233-0.107-0.409
						c0-0.093,0.011-0.183,0.034-0.271c0.023-0.089,0.05-0.175,0.083-0.26c0.032-0.085,0.068-0.166,0.107-0.245
						c0.039-0.078,0.075-0.155,0.111-0.225l0.854-1.645c0.014-0.024,0.031-0.051,0.049-0.085c0.017-0.032,0.048-0.06,0.089-0.084
						l0.71-0.41c0.027-0.016,0.049-0.018,0.065-0.009c0.016,0.01,0.024,0.029,0.024,0.056c0,0.015-0.002,0.028-0.006,0.04
						c-0.005,0.01-0.011,0.021-0.016,0.03l-0.581,1.122c0.158-0.073,0.306-0.12,0.445-0.142c0.138-0.022,0.259-0.016,0.364,0.018
						c0.105,0.034,0.186,0.099,0.245,0.193C372.838,103.034,372.868,103.161,372.868,103.32z M371.028,104.381
						c0,0.066,0.014,0.116,0.045,0.149c0.03,0.033,0.068,0.052,0.115,0.06c0.048,0.006,0.102,0.001,0.164-0.017
						c0.061-0.018,0.123-0.044,0.186-0.08c0.062-0.036,0.124-0.08,0.185-0.134c0.061-0.052,0.114-0.11,0.16-0.17
						c0.046-0.062,0.084-0.125,0.114-0.193c0.03-0.068,0.044-0.135,0.044-0.201c0-0.065-0.015-0.115-0.044-0.148
						c-0.03-0.033-0.068-0.054-0.114-0.062c-0.046-0.008-0.099-0.003-0.16,0.015c-0.061,0.017-0.123,0.045-0.185,0.08
						c-0.063,0.037-0.125,0.08-0.186,0.134c-0.062,0.052-0.116,0.11-0.164,0.172c-0.047,0.062-0.085,0.127-0.115,0.194
						C371.042,104.249,371.028,104.316,371.028,104.381z"/>
					<path style="fill:#FFFFFF;" d="M374.292,101.889c0,0.033-0.012,0.068-0.036,0.105c-0.024,0.038-0.052,0.065-0.086,0.085
						l-0.584,0.338c-0.033,0.019-0.061,0.023-0.086,0.013c-0.024-0.01-0.035-0.032-0.035-0.064v-0.586
						c0-0.032,0.011-0.068,0.035-0.105c0.024-0.038,0.052-0.066,0.086-0.085l0.584-0.337c0.034-0.019,0.062-0.024,0.086-0.014
						c0.023,0.01,0.036,0.031,0.036,0.065V101.889z M374.292,103.452c0,0.033-0.012,0.068-0.036,0.106
						c-0.024,0.037-0.052,0.065-0.086,0.085l-0.584,0.339c-0.033,0.019-0.061,0.023-0.086,0.013
						c-0.024-0.01-0.035-0.032-0.035-0.064v-0.586c0-0.031,0.011-0.068,0.035-0.105c0.024-0.038,0.052-0.066,0.086-0.086
						l0.584-0.337c0.034-0.019,0.062-0.024,0.086-0.014c0.023,0.01,0.036,0.031,0.036,0.064V103.452z"/>
					<path style="fill:#FFFFFF;" d="M377.307,98.706c0.033-0.018,0.061-0.024,0.085-0.013c0.025,0.01,0.037,0.031,0.037,0.064v0.474
						c0,0.033-0.01,0.069-0.032,0.107c-0.02,0.039-0.039,0.072-0.057,0.1l-0.54,0.858c0.231-0.074,0.421-0.084,0.567-0.027
						c0.146,0.058,0.218,0.203,0.218,0.435c0,0.337-0.115,0.657-0.348,0.96c-0.232,0.304-0.556,0.576-0.974,0.816
						c-0.214,0.124-0.405,0.208-0.569,0.253c-0.166,0.044-0.305,0.058-0.418,0.04c-0.113-0.018-0.201-0.063-0.262-0.133
						c-0.061-0.07-0.092-0.16-0.096-0.269c0-0.026,0.009-0.056,0.029-0.085c0.019-0.031,0.043-0.054,0.07-0.07l0.563-0.325
						c0.063-0.037,0.11-0.05,0.142-0.04c0.033,0.01,0.07,0.019,0.11,0.028c0.04,0.01,0.092,0.01,0.156,0.002
						c0.065-0.009,0.156-0.047,0.275-0.116c0.143-0.083,0.261-0.175,0.355-0.277c0.094-0.101,0.141-0.206,0.141-0.309
						c0-0.105-0.047-0.154-0.141-0.146c-0.094,0.006-0.212,0.051-0.355,0.133l-0.371,0.214c-0.033,0.019-0.061,0.023-0.085,0.014
						c-0.023-0.01-0.035-0.032-0.035-0.064v-0.385c0-0.032,0.01-0.068,0.031-0.107c0.021-0.038,0.042-0.075,0.062-0.107l0.474-0.751
						l-1.165,0.672c-0.033,0.019-0.061,0.024-0.085,0.013c-0.024-0.01-0.037-0.031-0.037-0.064v-0.474
						c0-0.032,0.012-0.068,0.037-0.106c0.023-0.038,0.051-0.065,0.085-0.085L377.307,98.706z"/>
					<path style="fill:#FFFFFF;" d="M379.54,97.372c0.223-0.129,0.416-0.208,0.576-0.235c0.161-0.027,0.295-0.016,0.4,0.033
						s0.184,0.132,0.236,0.249c0.052,0.118,0.083,0.255,0.092,0.41c0.006,0.125,0.009,0.257,0.009,0.397
						c0,0.14-0.003,0.273-0.009,0.399c-0.009,0.166-0.039,0.338-0.092,0.515c-0.052,0.178-0.131,0.352-0.236,0.522
						c-0.106,0.172-0.239,0.338-0.4,0.495c-0.16,0.158-0.352,0.301-0.576,0.43c-0.223,0.129-0.415,0.208-0.576,0.235
						c-0.161,0.027-0.293,0.016-0.4-0.034c-0.106-0.049-0.184-0.132-0.236-0.249c-0.051-0.118-0.083-0.255-0.092-0.41
						c-0.006-0.119-0.009-0.248-0.009-0.388c0-0.14,0.003-0.275,0.009-0.407c0.009-0.166,0.04-0.338,0.092-0.515
						c0.052-0.178,0.131-0.352,0.236-0.522c0.106-0.172,0.239-0.336,0.4-0.495C379.125,97.644,379.317,97.501,379.54,97.372z
						 M380.018,99.079c0.011-0.26,0.011-0.51,0-0.75c-0.006-0.071-0.017-0.133-0.034-0.187c-0.016-0.052-0.042-0.092-0.077-0.118
						c-0.036-0.024-0.084-0.034-0.143-0.026c-0.06,0.007-0.134,0.037-0.223,0.088c-0.089,0.051-0.164,0.107-0.223,0.169
						c-0.059,0.062-0.107,0.126-0.143,0.193c-0.035,0.065-0.063,0.136-0.08,0.208c-0.017,0.073-0.028,0.148-0.031,0.225
						c-0.015,0.255-0.015,0.506,0,0.75c0.004,0.072,0.013,0.135,0.03,0.189c0.016,0.052,0.043,0.092,0.08,0.116
						c0.037,0.025,0.085,0.034,0.145,0.026c0.059-0.008,0.134-0.038,0.223-0.089c0.089-0.051,0.163-0.107,0.223-0.168
						c0.059-0.062,0.108-0.126,0.146-0.195c0.037-0.067,0.064-0.137,0.08-0.208C380.006,99.229,380.015,99.155,380.018,99.079z"/>
				</g>
			</g>
			<g>
				<path style="opacity:0.3;fill:#FFFFFF;" d="M299.493,142.616l65.071-37.569c1.068-0.617,1.934-0.178,1.934,0.978
					c0,1.157-0.866,2.595-1.934,3.211l-65.071,37.569c-1.068,0.617-1.934,0.178-1.934-0.978
					C297.559,144.67,298.424,143.232,299.493,142.616z"/>
				<path style="fill:#FFFFFF;" d="M299.493,142.616l48.863-28.211c1.068-0.617,1.934-0.179,1.934,0.978
					c0,1.157-0.866,2.595-1.934,3.212l-48.863,28.211c-1.068,0.617-1.934,0.178-1.934-0.978
					C297.559,144.67,298.424,143.232,299.493,142.616z"/>
			</g>
		</g>
		<g>
			<g id="Audio_1_">
				<path style="fill:#BA68C8;" d="M284.502,130.271c-0.39,0-0.705-0.316-0.705-0.706v-0.441c0-0.39,0.315-0.706,0.705-0.706
					s0.706,0.316,0.706,0.706v0.441C285.207,129.955,284.892,130.271,284.502,130.271z"/>
				<path style="fill:#BA68C8;" d="M288.044,133.157c-0.39,0-0.706-0.316-0.706-0.706v-10.305c0-0.39,0.316-0.706,0.706-0.706
					c0.39,0,0.706,0.316,0.706,0.706v10.305C288.75,132.841,288.434,133.157,288.044,133.157z"/>
				<path style="fill:#BA68C8;" d="M291.587,129.432c-0.39,0-0.706-0.316-0.706-0.706v-6.945c0-0.389,0.315-0.706,0.706-0.706
					c0.39,0,0.705,0.316,0.705,0.706v6.945C292.292,129.116,291.977,129.432,291.587,129.432z"/>
				<path style="fill:#BA68C8;" d="M298.671,122.952c-0.39,0-0.706-0.316-0.706-0.705v-2.167c0-0.39,0.316-0.706,0.706-0.706
					c0.39,0,0.706,0.316,0.706,0.706v2.167C299.377,122.636,299.061,122.952,298.671,122.952z"/>
				<path style="fill:#BA68C8;" d="M302.214,124.085c-0.39,0-0.706-0.316-0.706-0.706v-8.522c0-0.39,0.316-0.706,0.706-0.706
					c0.39,0,0.705,0.316,0.705,0.706v8.522C302.919,123.769,302.604,124.085,302.214,124.085z"/>
				<path style="fill:#BA68C8;" d="M305.756,125.64c-0.39,0-0.706-0.316-0.706-0.706v-15.723c0-0.39,0.316-0.706,0.706-0.706
					c0.39,0,0.706,0.316,0.706,0.706v15.723C306.462,125.324,306.146,125.64,305.756,125.64z"/>
				<path style="fill:#BA68C8;" d="M309.299,120.94c-0.39,0-0.706-0.316-0.706-0.706v-10.413c0-0.39,0.315-0.706,0.706-0.706
					c0.39,0,0.706,0.316,0.706,0.706v10.413C310.004,120.624,309.689,120.94,309.299,120.94z"/>
				<path style="fill:#BA68C8;" d="M312.841,123.398c-0.39,0-0.706-0.316-0.706-0.706v-19.421c0-0.39,0.316-0.706,0.706-0.706
					c0.39,0,0.706,0.316,0.706,0.706v19.421C313.547,123.082,313.231,123.398,312.841,123.398z"/>
				<path style="fill:#BA68C8;" d="M316.384,117.703c-0.39,0-0.706-0.316-0.706-0.706v-12.121c0-0.39,0.316-0.706,0.706-0.706
					c0.39,0,0.706,0.316,0.706,0.706v12.121C317.089,117.388,316.774,117.703,316.384,117.703z"/>
				<path style="fill:#BA68C8;" d="M319.926,110.276c-0.39,0-0.706-0.316-0.706-0.706v-1.357c0-0.39,0.315-0.706,0.706-0.706
					c0.39,0,0.706,0.316,0.706,0.706v1.357C320.632,109.96,320.316,110.276,319.926,110.276z"/>
				<path style="fill:#BA68C8;" d="M327.011,112.173c-0.39,0-0.706-0.316-0.706-0.706V98.135c0-0.39,0.316-0.705,0.706-0.705
					c0.39,0,0.706,0.316,0.706,0.705v13.332C327.716,111.857,327.401,112.173,327.011,112.173z"/>
				<path style="fill:#BA68C8;" d="M334.096,109.078c-0.39,0-0.706-0.316-0.706-0.706V92.05c0-0.39,0.316-0.706,0.706-0.706
					c0.39,0,0.706,0.316,0.706,0.706v16.322C334.802,108.762,334.486,109.078,334.096,109.078z"/>
				<path style="fill:#BA68C8;" d="M341.181,98.41c-0.39,0-0.706-0.316-0.706-0.706v-2.167c0-0.39,0.316-0.705,0.706-0.705
					c0.39,0,0.706,0.316,0.706,0.705v2.167C341.886,98.094,341.571,98.41,341.181,98.41z"/>
				<path style="fill:#BA68C8;" d="M376.519,77.144c-0.39,0-0.706-0.316-0.706-0.706v-0.442c0-0.39,0.316-0.706,0.706-0.706
					c0.39,0,0.706,0.316,0.706,0.706v0.442C377.225,76.828,376.909,77.144,376.519,77.144z"/>
				<path style="fill:#BA68C8;" d="M372.977,84.121c-0.39,0-0.706-0.316-0.706-0.706V73.111c0-0.39,0.316-0.706,0.706-0.706
					c0.39,0,0.706,0.316,0.706,0.706v10.305C373.682,83.805,373.367,84.121,372.977,84.121z"/>
				<path style="fill:#BA68C8;" d="M369.434,84.486c-0.39,0-0.706-0.316-0.706-0.706v-6.945c0-0.39,0.316-0.706,0.706-0.706
					c0.39,0,0.706,0.316,0.706,0.706v6.945C370.14,84.171,369.824,84.486,369.434,84.486z"/>
				<path style="fill:#BA68C8;" d="M362.349,86.188c-0.39,0-0.706-0.316-0.706-0.706v-2.166c0-0.39,0.316-0.705,0.706-0.705
					c0.39,0,0.706,0.316,0.706,0.705v2.166C363.055,85.872,362.74,86.188,362.349,86.188z"/>
				<path style="fill:#BA68C8;" d="M358.807,91.41c-0.39,0-0.706-0.316-0.706-0.706v-8.521c0-0.39,0.316-0.705,0.706-0.705
					c0.39,0,0.706,0.316,0.706,0.705v8.521C359.513,91.094,359.197,91.41,358.807,91.41z"/>
				<path style="fill:#BA68C8;" d="M355.264,97.056c-0.39,0-0.706-0.316-0.706-0.706V80.628c0-0.39,0.315-0.705,0.706-0.705
					c0.39,0,0.706,0.316,0.706,0.705v15.723C355.97,96.74,355.655,97.056,355.264,97.056z"/>
				<path style="fill:#BA68C8;" d="M348.18,102.996c-0.39,0-0.706-0.316-0.706-0.706V82.869c0-0.39,0.316-0.706,0.706-0.706
					c0.39,0,0.706,0.316,0.706,0.706v19.421C348.885,102.68,348.57,102.996,348.18,102.996z"/>
				<path style="fill:#BA68C8;" d="M344.637,99.814c-0.39,0-0.706-0.316-0.706-0.706v-8.968c0-0.39,0.316-0.705,0.706-0.705
					c0.39,0,0.706,0.316,0.706,0.705v8.968C345.343,99.498,345.027,99.814,344.637,99.814z"/>
				<path style="fill:#BA68C8;" d="M295.129,133.992c-0.39,0-0.706-0.316-0.706-0.706v-20.156c0-0.39,0.316-0.706,0.706-0.706
					c0.39,0,0.706,0.316,0.706,0.706v20.156C295.835,133.676,295.519,133.992,295.129,133.992z"/>
				<path style="fill:#BA68C8;" d="M323.468,110.138c-0.39,0-0.706-0.316-0.706-0.706v-5.171c0-0.39,0.316-0.706,0.706-0.706
					c0.39,0,0.706,0.316,0.706,0.706v5.171C324.174,109.822,323.858,110.138,323.468,110.138z"/>
				<path style="fill:#BA68C8;" d="M330.553,116.446c-0.39,0-0.706-0.316-0.706-0.706V88.772c0-0.39,0.316-0.706,0.706-0.706
					c0.39,0,0.706,0.316,0.706,0.706v26.969C331.259,116.13,330.944,116.446,330.553,116.446z"/>
				<path style="fill:#BA68C8;" d="M337.638,105.209c-0.39,0-0.705-0.316-0.705-0.706V92.828c0-0.39,0.316-0.706,0.705-0.706
					c0.39,0,0.706,0.316,0.706,0.706v11.675C338.344,104.893,338.028,105.209,337.638,105.209z"/>
				<path style="fill:#BA68C8;" d="M365.892,93.137c-0.39,0-0.706-0.316-0.706-0.705V72.276c0-0.39,0.316-0.706,0.706-0.706
					c0.39,0,0.706,0.316,0.706,0.706v20.156C366.597,92.821,366.282,93.137,365.892,93.137z"/>
				<path style="fill:#BA68C8;" d="M351.722,96.447c-0.39,0-0.705-0.316-0.705-0.706V85.327c0-0.39,0.315-0.705,0.705-0.705
					c0.39,0,0.706,0.316,0.706,0.705v10.414C352.428,96.131,352.112,96.447,351.722,96.447z"/>
			</g>
			<g style="opacity:0.3;">
				<path style="fill:#FFFFFF;" d="M291.587,129.432c-0.39,0-0.706-0.316-0.706-0.706v-6.945c0-0.389,0.315-0.706,0.706-0.706
					c0.39,0,0.705,0.316,0.705,0.706v6.945C292.292,129.116,291.977,129.432,291.587,129.432z"/>
				<path style="fill:#FFFFFF;" d="M298.671,122.952c-0.39,0-0.706-0.316-0.706-0.705v-2.167c0-0.39,0.316-0.706,0.706-0.706
					c0.39,0,0.706,0.316,0.706,0.706v2.167C299.377,122.636,299.061,122.952,298.671,122.952z"/>
				<path style="fill:#FFFFFF;" d="M305.756,125.64c-0.39,0-0.706-0.316-0.706-0.706v-15.723c0-0.39,0.316-0.706,0.706-0.706
					c0.39,0,0.706,0.316,0.706,0.706v15.723C306.462,125.324,306.146,125.64,305.756,125.64z"/>
				<path style="fill:#FFFFFF;" d="M312.841,123.398c-0.39,0-0.706-0.316-0.706-0.706v-19.421c0-0.39,0.316-0.706,0.706-0.706
					c0.39,0,0.706,0.316,0.706,0.706v19.421C313.547,123.082,313.231,123.398,312.841,123.398z"/>
				<path style="fill:#FFFFFF;" d="M319.926,110.276c-0.39,0-0.706-0.316-0.706-0.706v-1.357c0-0.39,0.315-0.706,0.706-0.706
					c0.39,0,0.706,0.316,0.706,0.706v1.357C320.632,109.96,320.316,110.276,319.926,110.276z"/>
				<path style="fill:#FFFFFF;" d="M327.011,112.173c-0.39,0-0.706-0.316-0.706-0.706V98.135c0-0.39,0.316-0.705,0.706-0.705
					c0.39,0,0.706,0.316,0.706,0.705v13.332C327.716,111.857,327.401,112.173,327.011,112.173z"/>
				<path style="fill:#FFFFFF;" d="M334.096,109.078c-0.39,0-0.706-0.316-0.706-0.706V92.05c0-0.39,0.316-0.706,0.706-0.706
					c0.39,0,0.706,0.316,0.706,0.706v16.322C334.802,108.762,334.486,109.078,334.096,109.078z"/>
				<path style="fill:#FFFFFF;" d="M341.181,98.41c-0.39,0-0.706-0.316-0.706-0.706v-2.167c0-0.39,0.316-0.705,0.706-0.705
					c0.39,0,0.706,0.316,0.706,0.705v2.167C341.886,98.094,341.571,98.41,341.181,98.41z"/>
				<path style="fill:#FFFFFF;" d="M376.519,77.144c-0.39,0-0.706-0.316-0.706-0.706v-0.442c0-0.39,0.316-0.706,0.706-0.706
					c0.39,0,0.706,0.316,0.706,0.706v0.442C377.225,76.828,376.909,77.144,376.519,77.144z"/>
				<path style="fill:#FFFFFF;" d="M369.434,84.486c-0.39,0-0.706-0.316-0.706-0.706v-6.945c0-0.39,0.316-0.706,0.706-0.706
					c0.39,0,0.706,0.316,0.706,0.706v6.945C370.14,84.171,369.824,84.486,369.434,84.486z"/>
				<path style="fill:#FFFFFF;" d="M362.349,86.188c-0.39,0-0.706-0.316-0.706-0.706v-2.166c0-0.39,0.316-0.705,0.706-0.705
					c0.39,0,0.706,0.316,0.706,0.705v2.166C363.055,85.872,362.74,86.188,362.349,86.188z"/>
				<path style="fill:#FFFFFF;" d="M355.264,97.056c-0.39,0-0.706-0.316-0.706-0.706V80.628c0-0.39,0.315-0.705,0.706-0.705
					c0.39,0,0.706,0.316,0.706,0.705v15.723C355.97,96.74,355.655,97.056,355.264,97.056z"/>
				<path style="fill:#FFFFFF;" d="M348.18,102.996c-0.39,0-0.706-0.316-0.706-0.706V82.869c0-0.39,0.316-0.706,0.706-0.706
					c0.39,0,0.706,0.316,0.706,0.706v19.421C348.885,102.68,348.57,102.996,348.18,102.996z"/>
			</g>
		</g>
	</g>
</g>
</svg>
